<?xml version="1.0" encoding="utf-8" standalone="no"?>
<!DOCTYPE svg PUBLIC "-//W3C//DTD SVG 1.1//EN"
  "http://www.w3.org/Graphics/SVG/1.1/DTD/svg11.dtd">
<svg xmlns:xlink="http://www.w3.org/1999/xlink" width="864pt" height="360pt" viewBox="0 0 864 360" xmlns="http://www.w3.org/2000/svg" version="1.1">
 <metadata>
  <rdf:RDF xmlns:dc="http://purl.org/dc/elements/1.1/" xmlns:cc="http://creativecommons.org/ns#" xmlns:rdf="http://www.w3.org/1999/02/22-rdf-syntax-ns#">
   <cc:Work>
    <dc:type rdf:resource="http://purl.org/dc/dcmitype/StillImage"/>
    <dc:date>2022-10-21T23:01:16.127880</dc:date>
    <dc:format>image/svg+xml</dc:format>
    <dc:creator>
     <cc:Agent>
      <dc:title>Matplotlib v3.6.1, https://matplotlib.org/</dc:title>
     </cc:Agent>
    </dc:creator>
   </cc:Work>
  </rdf:RDF>
 </metadata>
 <defs>
  <style type="text/css">*{stroke-linejoin: round; stroke-linecap: butt}</style>
 </defs>
 <g id="figure_1">
  <g id="patch_1">
   <path d="M 0 360 
L 864 360 
L 864 0 
L 0 0 
z
" style="fill: #ffffff"/>
  </g>
  <g id="axes_1">
   <g id="patch_2">
    <path d="M 108 320.4 
L 304.941176 320.4 
L 304.941176 43.2 
L 108 43.2 
z
" style="fill: #ffffff"/>
   </g>
   <g id="matplotlib.axis_1">
    <g id="xtick_1">
     <g id="line2d_1">
      <path d="M 127.694118 320.4 
L 127.694118 43.2 
" clip-path="url(#p78551767f3)" style="fill: none; stroke: #b0b0b0; stroke-width: 0.8; stroke-linecap: square"/>
     </g>
     <g id="line2d_2">
      <defs>
       <path id="m2382ff711e" d="M 0 0 
L 0 3.5 
" style="stroke: #000000; stroke-width: 0.8"/>
      </defs>
      <g>
       <use xlink:href="#m2382ff711e" x="127.694118" y="320.4" style="stroke: #000000; stroke-width: 0.8"/>
      </g>
     </g>
     <g id="text_1">
      <!-- −4 -->
      <g transform="translate(120.323024 334.998438) scale(0.1 -0.1)">
       <defs>
        <path id="DejaVuSans-2212" d="M 678 2272 
L 4684 2272 
L 4684 1741 
L 678 1741 
L 678 2272 
z
" transform="scale(0.015625)"/>
        <path id="DejaVuSans-34" d="M 2419 4116 
L 825 1625 
L 2419 1625 
L 2419 4116 
z
M 2253 4666 
L 3047 4666 
L 3047 1625 
L 3713 1625 
L 3713 1100 
L 3047 1100 
L 3047 0 
L 2419 0 
L 2419 1100 
L 313 1100 
L 313 1709 
L 2253 4666 
z
" transform="scale(0.015625)"/>
       </defs>
       <use xlink:href="#DejaVuSans-2212"/>
       <use xlink:href="#DejaVuSans-34" x="83.789062"/>
      </g>
     </g>
    </g>
    <g id="xtick_2">
     <g id="line2d_3">
      <path d="M 167.082353 320.4 
L 167.082353 43.2 
" clip-path="url(#p78551767f3)" style="fill: none; stroke: #b0b0b0; stroke-width: 0.8; stroke-linecap: square"/>
     </g>
     <g id="line2d_4">
      <g>
       <use xlink:href="#m2382ff711e" x="167.082353" y="320.4" style="stroke: #000000; stroke-width: 0.8"/>
      </g>
     </g>
     <g id="text_2">
      <!-- −2 -->
      <g transform="translate(159.711259 334.998438) scale(0.1 -0.1)">
       <defs>
        <path id="DejaVuSans-32" d="M 1228 531 
L 3431 531 
L 3431 0 
L 469 0 
L 469 531 
Q 828 903 1448 1529 
Q 2069 2156 2228 2338 
Q 2531 2678 2651 2914 
Q 2772 3150 2772 3378 
Q 2772 3750 2511 3984 
Q 2250 4219 1831 4219 
Q 1534 4219 1204 4116 
Q 875 4013 500 3803 
L 500 4441 
Q 881 4594 1212 4672 
Q 1544 4750 1819 4750 
Q 2544 4750 2975 4387 
Q 3406 4025 3406 3419 
Q 3406 3131 3298 2873 
Q 3191 2616 2906 2266 
Q 2828 2175 2409 1742 
Q 1991 1309 1228 531 
z
" transform="scale(0.015625)"/>
       </defs>
       <use xlink:href="#DejaVuSans-2212"/>
       <use xlink:href="#DejaVuSans-32" x="83.789062"/>
      </g>
     </g>
    </g>
    <g id="xtick_3">
     <g id="line2d_5">
      <path d="M 206.470588 320.4 
L 206.470588 43.2 
" clip-path="url(#p78551767f3)" style="fill: none; stroke: #b0b0b0; stroke-width: 0.8; stroke-linecap: square"/>
     </g>
     <g id="line2d_6">
      <g>
       <use xlink:href="#m2382ff711e" x="206.470588" y="320.4" style="stroke: #000000; stroke-width: 0.8"/>
      </g>
     </g>
     <g id="text_3">
      <!-- 0 -->
      <g transform="translate(203.289338 334.998438) scale(0.1 -0.1)">
       <defs>
        <path id="DejaVuSans-30" d="M 2034 4250 
Q 1547 4250 1301 3770 
Q 1056 3291 1056 2328 
Q 1056 1369 1301 889 
Q 1547 409 2034 409 
Q 2525 409 2770 889 
Q 3016 1369 3016 2328 
Q 3016 3291 2770 3770 
Q 2525 4250 2034 4250 
z
M 2034 4750 
Q 2819 4750 3233 4129 
Q 3647 3509 3647 2328 
Q 3647 1150 3233 529 
Q 2819 -91 2034 -91 
Q 1250 -91 836 529 
Q 422 1150 422 2328 
Q 422 3509 836 4129 
Q 1250 4750 2034 4750 
z
" transform="scale(0.015625)"/>
       </defs>
       <use xlink:href="#DejaVuSans-30"/>
      </g>
     </g>
    </g>
    <g id="xtick_4">
     <g id="line2d_7">
      <path d="M 245.858824 320.4 
L 245.858824 43.2 
" clip-path="url(#p78551767f3)" style="fill: none; stroke: #b0b0b0; stroke-width: 0.8; stroke-linecap: square"/>
     </g>
     <g id="line2d_8">
      <g>
       <use xlink:href="#m2382ff711e" x="245.858824" y="320.4" style="stroke: #000000; stroke-width: 0.8"/>
      </g>
     </g>
     <g id="text_4">
      <!-- 2 -->
      <g transform="translate(242.677574 334.998438) scale(0.1 -0.1)">
       <use xlink:href="#DejaVuSans-32"/>
      </g>
     </g>
    </g>
    <g id="xtick_5">
     <g id="line2d_9">
      <path d="M 285.247059 320.4 
L 285.247059 43.2 
" clip-path="url(#p78551767f3)" style="fill: none; stroke: #b0b0b0; stroke-width: 0.8; stroke-linecap: square"/>
     </g>
     <g id="line2d_10">
      <g>
       <use xlink:href="#m2382ff711e" x="285.247059" y="320.4" style="stroke: #000000; stroke-width: 0.8"/>
      </g>
     </g>
     <g id="text_5">
      <!-- 4 -->
      <g transform="translate(282.065809 334.998438) scale(0.1 -0.1)">
       <use xlink:href="#DejaVuSans-34"/>
      </g>
     </g>
    </g>
   </g>
   <g id="matplotlib.axis_2">
    <g id="ytick_1">
     <g id="line2d_11">
      <path d="M 108 296.874577 
L 304.941176 296.874577 
" clip-path="url(#p78551767f3)" style="fill: none; stroke: #b0b0b0; stroke-width: 0.8; stroke-linecap: square"/>
     </g>
     <g id="line2d_12">
      <defs>
       <path id="m1d48f7e81c" d="M 0 0 
L -3.5 0 
" style="stroke: #000000; stroke-width: 0.8"/>
      </defs>
      <g>
       <use xlink:href="#m1d48f7e81c" x="108" y="296.874577" style="stroke: #000000; stroke-width: 0.8"/>
      </g>
     </g>
     <g id="text_6">
      <!-- −150 -->
      <g transform="translate(73.532813 300.673796) scale(0.1 -0.1)">
       <defs>
        <path id="DejaVuSans-31" d="M 794 531 
L 1825 531 
L 1825 4091 
L 703 3866 
L 703 4441 
L 1819 4666 
L 2450 4666 
L 2450 531 
L 3481 531 
L 3481 0 
L 794 0 
L 794 531 
z
" transform="scale(0.015625)"/>
        <path id="DejaVuSans-35" d="M 691 4666 
L 3169 4666 
L 3169 4134 
L 1269 4134 
L 1269 2991 
Q 1406 3038 1543 3061 
Q 1681 3084 1819 3084 
Q 2600 3084 3056 2656 
Q 3513 2228 3513 1497 
Q 3513 744 3044 326 
Q 2575 -91 1722 -91 
Q 1428 -91 1123 -41 
Q 819 9 494 109 
L 494 744 
Q 775 591 1075 516 
Q 1375 441 1709 441 
Q 2250 441 2565 725 
Q 2881 1009 2881 1497 
Q 2881 1984 2565 2268 
Q 2250 2553 1709 2553 
Q 1456 2553 1204 2497 
Q 953 2441 691 2322 
L 691 4666 
z
" transform="scale(0.015625)"/>
       </defs>
       <use xlink:href="#DejaVuSans-2212"/>
       <use xlink:href="#DejaVuSans-31" x="83.789062"/>
       <use xlink:href="#DejaVuSans-35" x="147.412109"/>
       <use xlink:href="#DejaVuSans-30" x="211.035156"/>
      </g>
     </g>
    </g>
    <g id="ytick_2">
     <g id="line2d_13">
      <path d="M 108 264.764312 
L 304.941176 264.764312 
" clip-path="url(#p78551767f3)" style="fill: none; stroke: #b0b0b0; stroke-width: 0.8; stroke-linecap: square"/>
     </g>
     <g id="line2d_14">
      <g>
       <use xlink:href="#m1d48f7e81c" x="108" y="264.764312" style="stroke: #000000; stroke-width: 0.8"/>
      </g>
     </g>
     <g id="text_7">
      <!-- −100 -->
      <g transform="translate(73.532813 268.56353) scale(0.1 -0.1)">
       <use xlink:href="#DejaVuSans-2212"/>
       <use xlink:href="#DejaVuSans-31" x="83.789062"/>
       <use xlink:href="#DejaVuSans-30" x="147.412109"/>
       <use xlink:href="#DejaVuSans-30" x="211.035156"/>
      </g>
     </g>
    </g>
    <g id="ytick_3">
     <g id="line2d_15">
      <path d="M 108 232.654046 
L 304.941176 232.654046 
" clip-path="url(#p78551767f3)" style="fill: none; stroke: #b0b0b0; stroke-width: 0.8; stroke-linecap: square"/>
     </g>
     <g id="line2d_16">
      <g>
       <use xlink:href="#m1d48f7e81c" x="108" y="232.654046" style="stroke: #000000; stroke-width: 0.8"/>
      </g>
     </g>
     <g id="text_8">
      <!-- −50 -->
      <g transform="translate(79.895313 236.453265) scale(0.1 -0.1)">
       <use xlink:href="#DejaVuSans-2212"/>
       <use xlink:href="#DejaVuSans-35" x="83.789062"/>
       <use xlink:href="#DejaVuSans-30" x="147.412109"/>
      </g>
     </g>
    </g>
    <g id="ytick_4">
     <g id="line2d_17">
      <path d="M 108 200.543781 
L 304.941176 200.543781 
" clip-path="url(#p78551767f3)" style="fill: none; stroke: #b0b0b0; stroke-width: 0.8; stroke-linecap: square"/>
     </g>
     <g id="line2d_18">
      <g>
       <use xlink:href="#m1d48f7e81c" x="108" y="200.543781" style="stroke: #000000; stroke-width: 0.8"/>
      </g>
     </g>
     <g id="text_9">
      <!-- 0 -->
      <g transform="translate(94.6375 204.342999) scale(0.1 -0.1)">
       <use xlink:href="#DejaVuSans-30"/>
      </g>
     </g>
    </g>
    <g id="ytick_5">
     <g id="line2d_19">
      <path d="M 108 168.433515 
L 304.941176 168.433515 
" clip-path="url(#p78551767f3)" style="fill: none; stroke: #b0b0b0; stroke-width: 0.8; stroke-linecap: square"/>
     </g>
     <g id="line2d_20">
      <g>
       <use xlink:href="#m1d48f7e81c" x="108" y="168.433515" style="stroke: #000000; stroke-width: 0.8"/>
      </g>
     </g>
     <g id="text_10">
      <!-- 50 -->
      <g transform="translate(88.275 172.232734) scale(0.1 -0.1)">
       <use xlink:href="#DejaVuSans-35"/>
       <use xlink:href="#DejaVuSans-30" x="63.623047"/>
      </g>
     </g>
    </g>
    <g id="ytick_6">
     <g id="line2d_21">
      <path d="M 108 136.323249 
L 304.941176 136.323249 
" clip-path="url(#p78551767f3)" style="fill: none; stroke: #b0b0b0; stroke-width: 0.8; stroke-linecap: square"/>
     </g>
     <g id="line2d_22">
      <g>
       <use xlink:href="#m1d48f7e81c" x="108" y="136.323249" style="stroke: #000000; stroke-width: 0.8"/>
      </g>
     </g>
     <g id="text_11">
      <!-- 100 -->
      <g transform="translate(81.9125 140.122468) scale(0.1 -0.1)">
       <use xlink:href="#DejaVuSans-31"/>
       <use xlink:href="#DejaVuSans-30" x="63.623047"/>
       <use xlink:href="#DejaVuSans-30" x="127.246094"/>
      </g>
     </g>
    </g>
    <g id="ytick_7">
     <g id="line2d_23">
      <path d="M 108 104.212984 
L 304.941176 104.212984 
" clip-path="url(#p78551767f3)" style="fill: none; stroke: #b0b0b0; stroke-width: 0.8; stroke-linecap: square"/>
     </g>
     <g id="line2d_24">
      <g>
       <use xlink:href="#m1d48f7e81c" x="108" y="104.212984" style="stroke: #000000; stroke-width: 0.8"/>
      </g>
     </g>
     <g id="text_12">
      <!-- 150 -->
      <g transform="translate(81.9125 108.012203) scale(0.1 -0.1)">
       <use xlink:href="#DejaVuSans-31"/>
       <use xlink:href="#DejaVuSans-35" x="63.623047"/>
       <use xlink:href="#DejaVuSans-30" x="127.246094"/>
      </g>
     </g>
    </g>
    <g id="ytick_8">
     <g id="line2d_25">
      <path d="M 108 72.102718 
L 304.941176 72.102718 
" clip-path="url(#p78551767f3)" style="fill: none; stroke: #b0b0b0; stroke-width: 0.8; stroke-linecap: square"/>
     </g>
     <g id="line2d_26">
      <g>
       <use xlink:href="#m1d48f7e81c" x="108" y="72.102718" style="stroke: #000000; stroke-width: 0.8"/>
      </g>
     </g>
     <g id="text_13">
      <!-- 200 -->
      <g transform="translate(81.9125 75.901937) scale(0.1 -0.1)">
       <use xlink:href="#DejaVuSans-32"/>
       <use xlink:href="#DejaVuSans-30" x="63.623047"/>
       <use xlink:href="#DejaVuSans-30" x="127.246094"/>
      </g>
     </g>
    </g>
   </g>
   <g id="line2d_27">
    <path d="M 108 118.341501 
L 109.969412 122.973391 
L 111.938824 128.911399 
L 113.908235 135.942748 
L 115.877647 143.86761 
L 117.847059 152.498796 
L 119.816471 161.661445 
L 121.785882 171.192719 
L 123.755294 180.941496 
L 125.724706 190.768057 
L 127.694118 200.543781 
L 129.663529 210.150835 
L 131.632941 219.481871 
L 133.602353 228.439707 
L 135.571765 236.937031 
L 137.541176 244.896085 
L 139.510588 252.248357 
L 141.48 258.934277 
L 143.449412 264.902905 
L 145.418824 270.111624 
L 147.388235 274.525832 
L 149.357647 278.118635 
L 151.327059 280.870533 
L 153.296471 282.769121 
L 155.265882 283.808771 
L 157.235294 283.990333 
L 159.204706 283.320819 
L 161.174118 281.813098 
L 163.143529 279.485589 
L 165.112941 276.361951 
L 167.082353 272.470775 
L 169.051765 267.845276 
L 171.021176 262.522984 
L 172.990588 256.545437 
L 174.96 249.957873 
L 176.929412 242.808918 
L 178.898824 235.150283 
L 180.868235 227.036453 
L 182.837647 218.524378 
L 184.807059 209.673168 
L 186.776471 200.543781 
L 188.745882 191.198715 
L 190.715294 181.701703 
L 192.684706 172.117402 
L 194.654118 162.511087 
L 196.623529 152.948339 
L 198.592941 143.494741 
L 200.562353 134.215565 
L 202.531765 125.175469 
L 204.501176 116.438187 
L 206.470588 108.066216 
L 208.44 100.120515 
L 210.409412 92.660193 
L 212.378824 85.742201 
L 214.348235 79.421023 
L 216.317647 73.748369 
L 218.287059 68.772868 
L 220.256471 64.539757 
L 222.225882 61.090572 
L 224.195294 58.462845 
L 226.164706 56.689791 
L 228.134118 55.8 
L 230.103529 55.817131 
L 232.072941 56.759604 
L 234.042353 58.640287 
L 236.011765 61.466193 
L 237.981176 65.23817 
L 239.950588 69.950593 
L 241.92 75.591054 
L 243.889412 82.140056 
L 245.858824 89.570703 
L 247.828235 97.848393 
L 249.797647 106.930509 
L 251.767059 116.766112 
L 253.736471 127.295631 
L 255.705882 138.450555 
L 257.675294 150.153125 
L 259.644706 162.316029 
L 261.614118 174.842087 
L 263.583529 187.623948 
L 265.552941 200.543781 
L 267.522353 213.472964 
L 269.491765 226.271779 
L 271.461176 238.789103 
L 273.430588 250.862098 
L 275.4 262.315904 
L 277.369412 272.963331 
L 279.338824 282.604552 
L 281.308235 291.026789 
L 283.277647 298.004013 
L 285.247059 303.29663 
L 287.216471 306.651174 
L 289.185882 307.8 
L 291.155294 306.460974 
L 293.124706 302.337165 
L 295.094118 295.11654 
L 297.063529 284.471651 
L 299.032941 270.059328 
L 301.002353 251.520374 
L 302.971765 228.479252 
L 304.941176 200.543781 
" clip-path="url(#p78551767f3)" style="fill: none; stroke-dasharray: 1.5,2.475; stroke-dashoffset: 0; stroke: #0000ff; stroke-width: 1.5"/>
   </g>
   <g id="line2d_28">
    <defs>
     <path id="m818bad785d" d="M -3 0 
L 3 0 
M 0 3 
L 0 -3 
" style="stroke: #0000ff"/>
    </defs>
    <g clip-path="url(#p78551767f3)">
     <use xlink:href="#m818bad785d" x="127.694118" y="200.543781" style="fill: #0000ff; stroke: #0000ff"/>
     <use xlink:href="#m818bad785d" x="147.388235" y="274.525832" style="fill: #0000ff; stroke: #0000ff"/>
     <use xlink:href="#m818bad785d" x="167.082353" y="272.470775" style="fill: #0000ff; stroke: #0000ff"/>
     <use xlink:href="#m818bad785d" x="186.776471" y="200.543781" style="fill: #0000ff; stroke: #0000ff"/>
     <use xlink:href="#m818bad785d" x="206.470588" y="108.066216" style="fill: #0000ff; stroke: #0000ff"/>
     <use xlink:href="#m818bad785d" x="226.164706" y="56.689791" style="fill: #0000ff; stroke: #0000ff"/>
     <use xlink:href="#m818bad785d" x="245.858824" y="89.570703" style="fill: #0000ff; stroke: #0000ff"/>
     <use xlink:href="#m818bad785d" x="265.552941" y="200.543781" style="fill: #0000ff; stroke: #0000ff"/>
     <use xlink:href="#m818bad785d" x="285.247059" y="303.29663" style="fill: #0000ff; stroke: #0000ff"/>
    </g>
   </g>
   <g id="patch_3">
    <path d="M 108 320.4 
L 108 43.2 
" style="fill: none; stroke: #000000; stroke-width: 0.8; stroke-linejoin: miter; stroke-linecap: square"/>
   </g>
   <g id="patch_4">
    <path d="M 304.941176 320.4 
L 304.941176 43.2 
" style="fill: none; stroke: #000000; stroke-width: 0.8; stroke-linejoin: miter; stroke-linecap: square"/>
   </g>
   <g id="patch_5">
    <path d="M 108 320.4 
L 304.941176 320.4 
" style="fill: none; stroke: #000000; stroke-width: 0.8; stroke-linejoin: miter; stroke-linecap: square"/>
   </g>
   <g id="patch_6">
    <path d="M 108 43.2 
L 304.941176 43.2 
" style="fill: none; stroke: #000000; stroke-width: 0.8; stroke-linejoin: miter; stroke-linecap: square"/>
   </g>
   <g id="text_14">
    <!-- Student-ID: 100 -->
    <g transform="translate(158.915901 37.2) scale(0.12 -0.12)">
     <defs>
      <path id="DejaVuSans-53" d="M 3425 4513 
L 3425 3897 
Q 3066 4069 2747 4153 
Q 2428 4238 2131 4238 
Q 1616 4238 1336 4038 
Q 1056 3838 1056 3469 
Q 1056 3159 1242 3001 
Q 1428 2844 1947 2747 
L 2328 2669 
Q 3034 2534 3370 2195 
Q 3706 1856 3706 1288 
Q 3706 609 3251 259 
Q 2797 -91 1919 -91 
Q 1588 -91 1214 -16 
Q 841 59 441 206 
L 441 856 
Q 825 641 1194 531 
Q 1563 422 1919 422 
Q 2459 422 2753 634 
Q 3047 847 3047 1241 
Q 3047 1584 2836 1778 
Q 2625 1972 2144 2069 
L 1759 2144 
Q 1053 2284 737 2584 
Q 422 2884 422 3419 
Q 422 4038 858 4394 
Q 1294 4750 2059 4750 
Q 2388 4750 2728 4690 
Q 3069 4631 3425 4513 
z
" transform="scale(0.015625)"/>
      <path id="DejaVuSans-74" d="M 1172 4494 
L 1172 3500 
L 2356 3500 
L 2356 3053 
L 1172 3053 
L 1172 1153 
Q 1172 725 1289 603 
Q 1406 481 1766 481 
L 2356 481 
L 2356 0 
L 1766 0 
Q 1100 0 847 248 
Q 594 497 594 1153 
L 594 3053 
L 172 3053 
L 172 3500 
L 594 3500 
L 594 4494 
L 1172 4494 
z
" transform="scale(0.015625)"/>
      <path id="DejaVuSans-75" d="M 544 1381 
L 544 3500 
L 1119 3500 
L 1119 1403 
Q 1119 906 1312 657 
Q 1506 409 1894 409 
Q 2359 409 2629 706 
Q 2900 1003 2900 1516 
L 2900 3500 
L 3475 3500 
L 3475 0 
L 2900 0 
L 2900 538 
Q 2691 219 2414 64 
Q 2138 -91 1772 -91 
Q 1169 -91 856 284 
Q 544 659 544 1381 
z
M 1991 3584 
L 1991 3584 
z
" transform="scale(0.015625)"/>
      <path id="DejaVuSans-64" d="M 2906 2969 
L 2906 4863 
L 3481 4863 
L 3481 0 
L 2906 0 
L 2906 525 
Q 2725 213 2448 61 
Q 2172 -91 1784 -91 
Q 1150 -91 751 415 
Q 353 922 353 1747 
Q 353 2572 751 3078 
Q 1150 3584 1784 3584 
Q 2172 3584 2448 3432 
Q 2725 3281 2906 2969 
z
M 947 1747 
Q 947 1113 1208 752 
Q 1469 391 1925 391 
Q 2381 391 2643 752 
Q 2906 1113 2906 1747 
Q 2906 2381 2643 2742 
Q 2381 3103 1925 3103 
Q 1469 3103 1208 2742 
Q 947 2381 947 1747 
z
" transform="scale(0.015625)"/>
      <path id="DejaVuSans-65" d="M 3597 1894 
L 3597 1613 
L 953 1613 
Q 991 1019 1311 708 
Q 1631 397 2203 397 
Q 2534 397 2845 478 
Q 3156 559 3463 722 
L 3463 178 
Q 3153 47 2828 -22 
Q 2503 -91 2169 -91 
Q 1331 -91 842 396 
Q 353 884 353 1716 
Q 353 2575 817 3079 
Q 1281 3584 2069 3584 
Q 2775 3584 3186 3129 
Q 3597 2675 3597 1894 
z
M 3022 2063 
Q 3016 2534 2758 2815 
Q 2500 3097 2075 3097 
Q 1594 3097 1305 2825 
Q 1016 2553 972 2059 
L 3022 2063 
z
" transform="scale(0.015625)"/>
      <path id="DejaVuSans-6e" d="M 3513 2113 
L 3513 0 
L 2938 0 
L 2938 2094 
Q 2938 2591 2744 2837 
Q 2550 3084 2163 3084 
Q 1697 3084 1428 2787 
Q 1159 2491 1159 1978 
L 1159 0 
L 581 0 
L 581 3500 
L 1159 3500 
L 1159 2956 
Q 1366 3272 1645 3428 
Q 1925 3584 2291 3584 
Q 2894 3584 3203 3211 
Q 3513 2838 3513 2113 
z
" transform="scale(0.015625)"/>
      <path id="DejaVuSans-2d" d="M 313 2009 
L 1997 2009 
L 1997 1497 
L 313 1497 
L 313 2009 
z
" transform="scale(0.015625)"/>
      <path id="DejaVuSans-49" d="M 628 4666 
L 1259 4666 
L 1259 0 
L 628 0 
L 628 4666 
z
" transform="scale(0.015625)"/>
      <path id="DejaVuSans-44" d="M 1259 4147 
L 1259 519 
L 2022 519 
Q 2988 519 3436 956 
Q 3884 1394 3884 2338 
Q 3884 3275 3436 3711 
Q 2988 4147 2022 4147 
L 1259 4147 
z
M 628 4666 
L 1925 4666 
Q 3281 4666 3915 4102 
Q 4550 3538 4550 2338 
Q 4550 1131 3912 565 
Q 3275 0 1925 0 
L 628 0 
L 628 4666 
z
" transform="scale(0.015625)"/>
      <path id="DejaVuSans-3a" d="M 750 794 
L 1409 794 
L 1409 0 
L 750 0 
L 750 794 
z
M 750 3309 
L 1409 3309 
L 1409 2516 
L 750 2516 
L 750 3309 
z
" transform="scale(0.015625)"/>
      <path id="DejaVuSans-20" transform="scale(0.015625)"/>
     </defs>
     <use xlink:href="#DejaVuSans-53"/>
     <use xlink:href="#DejaVuSans-74" x="63.476562"/>
     <use xlink:href="#DejaVuSans-75" x="102.685547"/>
     <use xlink:href="#DejaVuSans-64" x="166.064453"/>
     <use xlink:href="#DejaVuSans-65" x="229.541016"/>
     <use xlink:href="#DejaVuSans-6e" x="291.064453"/>
     <use xlink:href="#DejaVuSans-74" x="354.443359"/>
     <use xlink:href="#DejaVuSans-2d" x="393.652344"/>
     <use xlink:href="#DejaVuSans-49" x="429.736328"/>
     <use xlink:href="#DejaVuSans-44" x="459.228516"/>
     <use xlink:href="#DejaVuSans-3a" x="536.230469"/>
     <use xlink:href="#DejaVuSans-20" x="569.921875"/>
     <use xlink:href="#DejaVuSans-31" x="601.708984"/>
     <use xlink:href="#DejaVuSans-30" x="665.332031"/>
     <use xlink:href="#DejaVuSans-30" x="728.955078"/>
    </g>
   </g>
   <g id="legend_1">
    <g id="patch_7">
     <path d="M 115 80.55625 
L 212.0125 80.55625 
Q 214.0125 80.55625 214.0125 78.55625 
L 214.0125 50.2 
Q 214.0125 48.2 212.0125 48.2 
L 115 48.2 
Q 113 48.2 113 50.2 
L 113 78.55625 
Q 113 80.55625 115 80.55625 
z
" style="fill: #ffffff; opacity: 0.8; stroke: #cccccc; stroke-linejoin: miter"/>
    </g>
    <g id="line2d_29">
     <path d="M 117 56.298437 
L 127 56.298437 
L 137 56.298437 
" style="fill: none; stroke-dasharray: 1.5,2.475; stroke-dashoffset: 0; stroke: #0000ff; stroke-width: 1.5"/>
    </g>
    <g id="text_15">
     <!-- Polynomial -->
     <g transform="translate(145 59.798437) scale(0.1 -0.1)">
      <defs>
       <path id="DejaVuSans-50" d="M 1259 4147 
L 1259 2394 
L 2053 2394 
Q 2494 2394 2734 2622 
Q 2975 2850 2975 3272 
Q 2975 3691 2734 3919 
Q 2494 4147 2053 4147 
L 1259 4147 
z
M 628 4666 
L 2053 4666 
Q 2838 4666 3239 4311 
Q 3641 3956 3641 3272 
Q 3641 2581 3239 2228 
Q 2838 1875 2053 1875 
L 1259 1875 
L 1259 0 
L 628 0 
L 628 4666 
z
" transform="scale(0.015625)"/>
       <path id="DejaVuSans-6f" d="M 1959 3097 
Q 1497 3097 1228 2736 
Q 959 2375 959 1747 
Q 959 1119 1226 758 
Q 1494 397 1959 397 
Q 2419 397 2687 759 
Q 2956 1122 2956 1747 
Q 2956 2369 2687 2733 
Q 2419 3097 1959 3097 
z
M 1959 3584 
Q 2709 3584 3137 3096 
Q 3566 2609 3566 1747 
Q 3566 888 3137 398 
Q 2709 -91 1959 -91 
Q 1206 -91 779 398 
Q 353 888 353 1747 
Q 353 2609 779 3096 
Q 1206 3584 1959 3584 
z
" transform="scale(0.015625)"/>
       <path id="DejaVuSans-6c" d="M 603 4863 
L 1178 4863 
L 1178 0 
L 603 0 
L 603 4863 
z
" transform="scale(0.015625)"/>
       <path id="DejaVuSans-79" d="M 2059 -325 
Q 1816 -950 1584 -1140 
Q 1353 -1331 966 -1331 
L 506 -1331 
L 506 -850 
L 844 -850 
Q 1081 -850 1212 -737 
Q 1344 -625 1503 -206 
L 1606 56 
L 191 3500 
L 800 3500 
L 1894 763 
L 2988 3500 
L 3597 3500 
L 2059 -325 
z
" transform="scale(0.015625)"/>
       <path id="DejaVuSans-6d" d="M 3328 2828 
Q 3544 3216 3844 3400 
Q 4144 3584 4550 3584 
Q 5097 3584 5394 3201 
Q 5691 2819 5691 2113 
L 5691 0 
L 5113 0 
L 5113 2094 
Q 5113 2597 4934 2840 
Q 4756 3084 4391 3084 
Q 3944 3084 3684 2787 
Q 3425 2491 3425 1978 
L 3425 0 
L 2847 0 
L 2847 2094 
Q 2847 2600 2669 2842 
Q 2491 3084 2119 3084 
Q 1678 3084 1418 2786 
Q 1159 2488 1159 1978 
L 1159 0 
L 581 0 
L 581 3500 
L 1159 3500 
L 1159 2956 
Q 1356 3278 1631 3431 
Q 1906 3584 2284 3584 
Q 2666 3584 2933 3390 
Q 3200 3197 3328 2828 
z
" transform="scale(0.015625)"/>
       <path id="DejaVuSans-69" d="M 603 3500 
L 1178 3500 
L 1178 0 
L 603 0 
L 603 3500 
z
M 603 4863 
L 1178 4863 
L 1178 4134 
L 603 4134 
L 603 4863 
z
" transform="scale(0.015625)"/>
       <path id="DejaVuSans-61" d="M 2194 1759 
Q 1497 1759 1228 1600 
Q 959 1441 959 1056 
Q 959 750 1161 570 
Q 1363 391 1709 391 
Q 2188 391 2477 730 
Q 2766 1069 2766 1631 
L 2766 1759 
L 2194 1759 
z
M 3341 1997 
L 3341 0 
L 2766 0 
L 2766 531 
Q 2569 213 2275 61 
Q 1981 -91 1556 -91 
Q 1019 -91 701 211 
Q 384 513 384 1019 
Q 384 1609 779 1909 
Q 1175 2209 1959 2209 
L 2766 2209 
L 2766 2266 
Q 2766 2663 2505 2880 
Q 2244 3097 1772 3097 
Q 1472 3097 1187 3025 
Q 903 2953 641 2809 
L 641 3341 
Q 956 3463 1253 3523 
Q 1550 3584 1831 3584 
Q 2591 3584 2966 3190 
Q 3341 2797 3341 1997 
z
" transform="scale(0.015625)"/>
      </defs>
      <use xlink:href="#DejaVuSans-50"/>
      <use xlink:href="#DejaVuSans-6f" x="56.677734"/>
      <use xlink:href="#DejaVuSans-6c" x="117.859375"/>
      <use xlink:href="#DejaVuSans-79" x="145.642578"/>
      <use xlink:href="#DejaVuSans-6e" x="204.822266"/>
      <use xlink:href="#DejaVuSans-6f" x="268.201172"/>
      <use xlink:href="#DejaVuSans-6d" x="329.382812"/>
      <use xlink:href="#DejaVuSans-69" x="426.794922"/>
      <use xlink:href="#DejaVuSans-61" x="454.578125"/>
      <use xlink:href="#DejaVuSans-6c" x="515.857422"/>
     </g>
    </g>
    <g id="line2d_30">
     <g>
      <use xlink:href="#m818bad785d" x="127" y="70.976562" style="fill: #0000ff; stroke: #0000ff"/>
     </g>
    </g>
    <g id="text_16">
     <!-- Grid function -->
     <g transform="translate(145 74.476562) scale(0.1 -0.1)">
      <defs>
       <path id="DejaVuSans-47" d="M 3809 666 
L 3809 1919 
L 2778 1919 
L 2778 2438 
L 4434 2438 
L 4434 434 
Q 4069 175 3628 42 
Q 3188 -91 2688 -91 
Q 1594 -91 976 548 
Q 359 1188 359 2328 
Q 359 3472 976 4111 
Q 1594 4750 2688 4750 
Q 3144 4750 3555 4637 
Q 3966 4525 4313 4306 
L 4313 3634 
Q 3963 3931 3569 4081 
Q 3175 4231 2741 4231 
Q 1884 4231 1454 3753 
Q 1025 3275 1025 2328 
Q 1025 1384 1454 906 
Q 1884 428 2741 428 
Q 3075 428 3337 486 
Q 3600 544 3809 666 
z
" transform="scale(0.015625)"/>
       <path id="DejaVuSans-72" d="M 2631 2963 
Q 2534 3019 2420 3045 
Q 2306 3072 2169 3072 
Q 1681 3072 1420 2755 
Q 1159 2438 1159 1844 
L 1159 0 
L 581 0 
L 581 3500 
L 1159 3500 
L 1159 2956 
Q 1341 3275 1631 3429 
Q 1922 3584 2338 3584 
Q 2397 3584 2469 3576 
Q 2541 3569 2628 3553 
L 2631 2963 
z
" transform="scale(0.015625)"/>
       <path id="DejaVuSans-66" d="M 2375 4863 
L 2375 4384 
L 1825 4384 
Q 1516 4384 1395 4259 
Q 1275 4134 1275 3809 
L 1275 3500 
L 2222 3500 
L 2222 3053 
L 1275 3053 
L 1275 0 
L 697 0 
L 697 3053 
L 147 3053 
L 147 3500 
L 697 3500 
L 697 3744 
Q 697 4328 969 4595 
Q 1241 4863 1831 4863 
L 2375 4863 
z
" transform="scale(0.015625)"/>
       <path id="DejaVuSans-63" d="M 3122 3366 
L 3122 2828 
Q 2878 2963 2633 3030 
Q 2388 3097 2138 3097 
Q 1578 3097 1268 2742 
Q 959 2388 959 1747 
Q 959 1106 1268 751 
Q 1578 397 2138 397 
Q 2388 397 2633 464 
Q 2878 531 3122 666 
L 3122 134 
Q 2881 22 2623 -34 
Q 2366 -91 2075 -91 
Q 1284 -91 818 406 
Q 353 903 353 1747 
Q 353 2603 823 3093 
Q 1294 3584 2113 3584 
Q 2378 3584 2631 3529 
Q 2884 3475 3122 3366 
z
" transform="scale(0.015625)"/>
      </defs>
      <use xlink:href="#DejaVuSans-47"/>
      <use xlink:href="#DejaVuSans-72" x="77.490234"/>
      <use xlink:href="#DejaVuSans-69" x="118.603516"/>
      <use xlink:href="#DejaVuSans-64" x="146.386719"/>
      <use xlink:href="#DejaVuSans-20" x="209.863281"/>
      <use xlink:href="#DejaVuSans-66" x="241.650391"/>
      <use xlink:href="#DejaVuSans-75" x="276.855469"/>
      <use xlink:href="#DejaVuSans-6e" x="340.234375"/>
      <use xlink:href="#DejaVuSans-63" x="403.613281"/>
      <use xlink:href="#DejaVuSans-74" x="458.59375"/>
      <use xlink:href="#DejaVuSans-69" x="497.802734"/>
      <use xlink:href="#DejaVuSans-6f" x="525.585938"/>
      <use xlink:href="#DejaVuSans-6e" x="586.767578"/>
     </g>
    </g>
   </g>
  </g>
  <g id="axes_2">
   <g id="patch_8">
    <path d="M 344.329412 320.4 
L 541.270588 320.4 
L 541.270588 43.2 
L 344.329412 43.2 
z
" style="fill: #ffffff"/>
   </g>
   <g id="matplotlib.axis_3">
    <g id="xtick_6">
     <g id="line2d_31">
      <path d="M 364.023529 320.4 
L 364.023529 43.2 
" clip-path="url(#pdfcf34074a)" style="fill: none; stroke: #b0b0b0; stroke-width: 0.8; stroke-linecap: square"/>
     </g>
     <g id="line2d_32">
      <g>
       <use xlink:href="#m2382ff711e" x="364.023529" y="320.4" style="stroke: #000000; stroke-width: 0.8"/>
      </g>
     </g>
     <g id="text_17">
      <!-- −4 -->
      <g transform="translate(356.652436 334.998438) scale(0.1 -0.1)">
       <use xlink:href="#DejaVuSans-2212"/>
       <use xlink:href="#DejaVuSans-34" x="83.789062"/>
      </g>
     </g>
    </g>
    <g id="xtick_7">
     <g id="line2d_33">
      <path d="M 403.411765 320.4 
L 403.411765 43.2 
" clip-path="url(#pdfcf34074a)" style="fill: none; stroke: #b0b0b0; stroke-width: 0.8; stroke-linecap: square"/>
     </g>
     <g id="line2d_34">
      <g>
       <use xlink:href="#m2382ff711e" x="403.411765" y="320.4" style="stroke: #000000; stroke-width: 0.8"/>
      </g>
     </g>
     <g id="text_18">
      <!-- −2 -->
      <g transform="translate(396.040671 334.998438) scale(0.1 -0.1)">
       <use xlink:href="#DejaVuSans-2212"/>
       <use xlink:href="#DejaVuSans-32" x="83.789062"/>
      </g>
     </g>
    </g>
    <g id="xtick_8">
     <g id="line2d_35">
      <path d="M 442.8 320.4 
L 442.8 43.2 
" clip-path="url(#pdfcf34074a)" style="fill: none; stroke: #b0b0b0; stroke-width: 0.8; stroke-linecap: square"/>
     </g>
     <g id="line2d_36">
      <g>
       <use xlink:href="#m2382ff711e" x="442.8" y="320.4" style="stroke: #000000; stroke-width: 0.8"/>
      </g>
     </g>
     <g id="text_19">
      <!-- 0 -->
      <g transform="translate(439.61875 334.998438) scale(0.1 -0.1)">
       <use xlink:href="#DejaVuSans-30"/>
      </g>
     </g>
    </g>
    <g id="xtick_9">
     <g id="line2d_37">
      <path d="M 482.188235 320.4 
L 482.188235 43.2 
" clip-path="url(#pdfcf34074a)" style="fill: none; stroke: #b0b0b0; stroke-width: 0.8; stroke-linecap: square"/>
     </g>
     <g id="line2d_38">
      <g>
       <use xlink:href="#m2382ff711e" x="482.188235" y="320.4" style="stroke: #000000; stroke-width: 0.8"/>
      </g>
     </g>
     <g id="text_20">
      <!-- 2 -->
      <g transform="translate(479.006985 334.998438) scale(0.1 -0.1)">
       <use xlink:href="#DejaVuSans-32"/>
      </g>
     </g>
    </g>
    <g id="xtick_10">
     <g id="line2d_39">
      <path d="M 521.576471 320.4 
L 521.576471 43.2 
" clip-path="url(#pdfcf34074a)" style="fill: none; stroke: #b0b0b0; stroke-width: 0.8; stroke-linecap: square"/>
     </g>
     <g id="line2d_40">
      <g>
       <use xlink:href="#m2382ff711e" x="521.576471" y="320.4" style="stroke: #000000; stroke-width: 0.8"/>
      </g>
     </g>
     <g id="text_21">
      <!-- 4 -->
      <g transform="translate(518.395221 334.998438) scale(0.1 -0.1)">
       <use xlink:href="#DejaVuSans-34"/>
      </g>
     </g>
    </g>
    <g id="text_22">
     <!-- Numerical grid coordinate x -->
     <g transform="translate(373.108594 348.676562) scale(0.1 -0.1)">
      <defs>
       <path id="DejaVuSans-4e" d="M 628 4666 
L 1478 4666 
L 3547 763 
L 3547 4666 
L 4159 4666 
L 4159 0 
L 3309 0 
L 1241 3903 
L 1241 0 
L 628 0 
L 628 4666 
z
" transform="scale(0.015625)"/>
       <path id="DejaVuSans-67" d="M 2906 1791 
Q 2906 2416 2648 2759 
Q 2391 3103 1925 3103 
Q 1463 3103 1205 2759 
Q 947 2416 947 1791 
Q 947 1169 1205 825 
Q 1463 481 1925 481 
Q 2391 481 2648 825 
Q 2906 1169 2906 1791 
z
M 3481 434 
Q 3481 -459 3084 -895 
Q 2688 -1331 1869 -1331 
Q 1566 -1331 1297 -1286 
Q 1028 -1241 775 -1147 
L 775 -588 
Q 1028 -725 1275 -790 
Q 1522 -856 1778 -856 
Q 2344 -856 2625 -561 
Q 2906 -266 2906 331 
L 2906 616 
Q 2728 306 2450 153 
Q 2172 0 1784 0 
Q 1141 0 747 490 
Q 353 981 353 1791 
Q 353 2603 747 3093 
Q 1141 3584 1784 3584 
Q 2172 3584 2450 3431 
Q 2728 3278 2906 2969 
L 2906 3500 
L 3481 3500 
L 3481 434 
z
" transform="scale(0.015625)"/>
       <path id="DejaVuSans-78" d="M 3513 3500 
L 2247 1797 
L 3578 0 
L 2900 0 
L 1881 1375 
L 863 0 
L 184 0 
L 1544 1831 
L 300 3500 
L 978 3500 
L 1906 2253 
L 2834 3500 
L 3513 3500 
z
" transform="scale(0.015625)"/>
      </defs>
      <use xlink:href="#DejaVuSans-4e"/>
      <use xlink:href="#DejaVuSans-75" x="74.804688"/>
      <use xlink:href="#DejaVuSans-6d" x="138.183594"/>
      <use xlink:href="#DejaVuSans-65" x="235.595703"/>
      <use xlink:href="#DejaVuSans-72" x="297.119141"/>
      <use xlink:href="#DejaVuSans-69" x="338.232422"/>
      <use xlink:href="#DejaVuSans-63" x="366.015625"/>
      <use xlink:href="#DejaVuSans-61" x="420.996094"/>
      <use xlink:href="#DejaVuSans-6c" x="482.275391"/>
      <use xlink:href="#DejaVuSans-20" x="510.058594"/>
      <use xlink:href="#DejaVuSans-67" x="541.845703"/>
      <use xlink:href="#DejaVuSans-72" x="605.322266"/>
      <use xlink:href="#DejaVuSans-69" x="646.435547"/>
      <use xlink:href="#DejaVuSans-64" x="674.21875"/>
      <use xlink:href="#DejaVuSans-20" x="737.695312"/>
      <use xlink:href="#DejaVuSans-63" x="769.482422"/>
      <use xlink:href="#DejaVuSans-6f" x="824.462891"/>
      <use xlink:href="#DejaVuSans-6f" x="885.644531"/>
      <use xlink:href="#DejaVuSans-72" x="946.826172"/>
      <use xlink:href="#DejaVuSans-64" x="986.189453"/>
      <use xlink:href="#DejaVuSans-69" x="1049.666016"/>
      <use xlink:href="#DejaVuSans-6e" x="1077.449219"/>
      <use xlink:href="#DejaVuSans-61" x="1140.828125"/>
      <use xlink:href="#DejaVuSans-74" x="1202.107422"/>
      <use xlink:href="#DejaVuSans-65" x="1241.316406"/>
      <use xlink:href="#DejaVuSans-20" x="1302.839844"/>
      <use xlink:href="#DejaVuSans-78" x="1334.626953"/>
     </g>
    </g>
   </g>
   <g id="matplotlib.axis_4">
    <g id="ytick_9">
     <g id="line2d_41">
      <path d="M 344.329412 307.204255 
L 541.270588 307.204255 
" clip-path="url(#pdfcf34074a)" style="fill: none; stroke: #b0b0b0; stroke-width: 0.8; stroke-linecap: square"/>
     </g>
     <g id="line2d_42">
      <g>
       <use xlink:href="#m1d48f7e81c" x="344.329412" y="307.204255" style="stroke: #000000; stroke-width: 0.8"/>
      </g>
     </g>
     <g id="text_23">
      <!-- −200 -->
      <g transform="translate(309.862224 311.003474) scale(0.1 -0.1)">
       <use xlink:href="#DejaVuSans-2212"/>
       <use xlink:href="#DejaVuSans-32" x="83.789062"/>
       <use xlink:href="#DejaVuSans-30" x="147.412109"/>
       <use xlink:href="#DejaVuSans-30" x="211.035156"/>
      </g>
     </g>
    </g>
    <g id="ytick_10">
     <g id="line2d_43">
      <path d="M 344.329412 269.970213 
L 541.270588 269.970213 
" clip-path="url(#pdfcf34074a)" style="fill: none; stroke: #b0b0b0; stroke-width: 0.8; stroke-linecap: square"/>
     </g>
     <g id="line2d_44">
      <g>
       <use xlink:href="#m1d48f7e81c" x="344.329412" y="269.970213" style="stroke: #000000; stroke-width: 0.8"/>
      </g>
     </g>
     <g id="text_24">
      <!-- −100 -->
      <g transform="translate(309.862224 273.769432) scale(0.1 -0.1)">
       <use xlink:href="#DejaVuSans-2212"/>
       <use xlink:href="#DejaVuSans-31" x="83.789062"/>
       <use xlink:href="#DejaVuSans-30" x="147.412109"/>
       <use xlink:href="#DejaVuSans-30" x="211.035156"/>
      </g>
     </g>
    </g>
    <g id="ytick_11">
     <g id="line2d_45">
      <path d="M 344.329412 232.73617 
L 541.270588 232.73617 
" clip-path="url(#pdfcf34074a)" style="fill: none; stroke: #b0b0b0; stroke-width: 0.8; stroke-linecap: square"/>
     </g>
     <g id="line2d_46">
      <g>
       <use xlink:href="#m1d48f7e81c" x="344.329412" y="232.73617" style="stroke: #000000; stroke-width: 0.8"/>
      </g>
     </g>
     <g id="text_25">
      <!-- 0 -->
      <g transform="translate(330.966912 236.535389) scale(0.1 -0.1)">
       <use xlink:href="#DejaVuSans-30"/>
      </g>
     </g>
    </g>
    <g id="ytick_12">
     <g id="line2d_47">
      <path d="M 344.329412 195.502128 
L 541.270588 195.502128 
" clip-path="url(#pdfcf34074a)" style="fill: none; stroke: #b0b0b0; stroke-width: 0.8; stroke-linecap: square"/>
     </g>
     <g id="line2d_48">
      <g>
       <use xlink:href="#m1d48f7e81c" x="344.329412" y="195.502128" style="stroke: #000000; stroke-width: 0.8"/>
      </g>
     </g>
     <g id="text_26">
      <!-- 100 -->
      <g transform="translate(318.241912 199.301346) scale(0.1 -0.1)">
       <use xlink:href="#DejaVuSans-31"/>
       <use xlink:href="#DejaVuSans-30" x="63.623047"/>
       <use xlink:href="#DejaVuSans-30" x="127.246094"/>
      </g>
     </g>
    </g>
    <g id="ytick_13">
     <g id="line2d_49">
      <path d="M 344.329412 158.268085 
L 541.270588 158.268085 
" clip-path="url(#pdfcf34074a)" style="fill: none; stroke: #b0b0b0; stroke-width: 0.8; stroke-linecap: square"/>
     </g>
     <g id="line2d_50">
      <g>
       <use xlink:href="#m1d48f7e81c" x="344.329412" y="158.268085" style="stroke: #000000; stroke-width: 0.8"/>
      </g>
     </g>
     <g id="text_27">
      <!-- 200 -->
      <g transform="translate(318.241912 162.067304) scale(0.1 -0.1)">
       <use xlink:href="#DejaVuSans-32"/>
       <use xlink:href="#DejaVuSans-30" x="63.623047"/>
       <use xlink:href="#DejaVuSans-30" x="127.246094"/>
      </g>
     </g>
    </g>
    <g id="ytick_14">
     <g id="line2d_51">
      <path d="M 344.329412 121.034043 
L 541.270588 121.034043 
" clip-path="url(#pdfcf34074a)" style="fill: none; stroke: #b0b0b0; stroke-width: 0.8; stroke-linecap: square"/>
     </g>
     <g id="line2d_52">
      <g>
       <use xlink:href="#m1d48f7e81c" x="344.329412" y="121.034043" style="stroke: #000000; stroke-width: 0.8"/>
      </g>
     </g>
     <g id="text_28">
      <!-- 300 -->
      <g transform="translate(318.241912 124.833261) scale(0.1 -0.1)">
       <defs>
        <path id="DejaVuSans-33" d="M 2597 2516 
Q 3050 2419 3304 2112 
Q 3559 1806 3559 1356 
Q 3559 666 3084 287 
Q 2609 -91 1734 -91 
Q 1441 -91 1130 -33 
Q 819 25 488 141 
L 488 750 
Q 750 597 1062 519 
Q 1375 441 1716 441 
Q 2309 441 2620 675 
Q 2931 909 2931 1356 
Q 2931 1769 2642 2001 
Q 2353 2234 1838 2234 
L 1294 2234 
L 1294 2753 
L 1863 2753 
Q 2328 2753 2575 2939 
Q 2822 3125 2822 3475 
Q 2822 3834 2567 4026 
Q 2313 4219 1838 4219 
Q 1578 4219 1281 4162 
Q 984 4106 628 3988 
L 628 4550 
Q 988 4650 1302 4700 
Q 1616 4750 1894 4750 
Q 2613 4750 3031 4423 
Q 3450 4097 3450 3541 
Q 3450 3153 3228 2886 
Q 3006 2619 2597 2516 
z
" transform="scale(0.015625)"/>
       </defs>
       <use xlink:href="#DejaVuSans-33"/>
       <use xlink:href="#DejaVuSans-30" x="63.623047"/>
       <use xlink:href="#DejaVuSans-30" x="127.246094"/>
      </g>
     </g>
    </g>
    <g id="ytick_15">
     <g id="line2d_53">
      <path d="M 344.329412 83.8 
L 541.270588 83.8 
" clip-path="url(#pdfcf34074a)" style="fill: none; stroke: #b0b0b0; stroke-width: 0.8; stroke-linecap: square"/>
     </g>
     <g id="line2d_54">
      <g>
       <use xlink:href="#m1d48f7e81c" x="344.329412" y="83.8" style="stroke: #000000; stroke-width: 0.8"/>
      </g>
     </g>
     <g id="text_29">
      <!-- 400 -->
      <g transform="translate(318.241912 87.599219) scale(0.1 -0.1)">
       <use xlink:href="#DejaVuSans-34"/>
       <use xlink:href="#DejaVuSans-30" x="63.623047"/>
       <use xlink:href="#DejaVuSans-30" x="127.246094"/>
      </g>
     </g>
    </g>
    <g id="ytick_16">
     <g id="line2d_55">
      <path d="M 344.329412 46.565957 
L 541.270588 46.565957 
" clip-path="url(#pdfcf34074a)" style="fill: none; stroke: #b0b0b0; stroke-width: 0.8; stroke-linecap: square"/>
     </g>
     <g id="line2d_56">
      <g>
       <use xlink:href="#m1d48f7e81c" x="344.329412" y="46.565957" style="stroke: #000000; stroke-width: 0.8"/>
      </g>
     </g>
     <g id="text_30">
      <!-- 500 -->
      <g transform="translate(318.241912 50.365176) scale(0.1 -0.1)">
       <use xlink:href="#DejaVuSans-35"/>
       <use xlink:href="#DejaVuSans-30" x="63.623047"/>
       <use xlink:href="#DejaVuSans-30" x="127.246094"/>
      </g>
     </g>
    </g>
   </g>
   <g id="line2d_57">
    <path d="M 344.329412 255.374468 
L 346.298824 263.589415 
L 348.268235 270.532596 
L 350.237647 276.279968 
L 352.207059 280.905702 
L 354.176471 284.482181 
L 356.145882 287.08 
L 358.115294 288.767968 
L 360.084706 289.613106 
L 362.054118 289.680649 
L 364.023529 289.034043 
L 365.992941 287.734947 
L 367.962353 285.843234 
L 369.931765 283.416989 
L 371.901176 280.512511 
L 373.870588 277.184309 
L 375.84 273.485106 
L 377.809412 269.46584 
L 379.778824 265.17566 
L 381.748235 260.661926 
L 383.717647 255.970213 
L 385.687059 251.144309 
L 387.656471 246.226213 
L 389.625882 241.256138 
L 391.595294 236.272511 
L 393.564706 231.311968 
L 395.534118 226.409362 
L 397.503529 221.597755 
L 399.472941 216.908426 
L 401.442353 212.370862 
L 403.411765 208.012766 
L 405.381176 203.860053 
L 407.350588 199.936851 
L 409.32 196.2655 
L 411.289412 192.866553 
L 413.258824 189.758777 
L 415.228235 186.959149 
L 417.197647 184.482862 
L 419.167059 182.343319 
L 421.136471 180.552138 
L 423.105882 179.119149 
L 425.075294 178.052394 
L 427.044706 177.358128 
L 429.014118 177.040819 
L 430.983529 177.103149 
L 432.952941 177.546011 
L 434.922353 178.368511 
L 436.891765 179.567968 
L 438.861176 181.139915 
L 440.830588 183.078096 
L 442.8 185.374468 
L 444.769412 188.019202 
L 446.738824 191.000681 
L 448.708235 194.3055 
L 450.677647 197.918468 
L 452.647059 201.822606 
L 454.616471 205.999149 
L 456.585882 210.427543 
L 458.555294 215.085447 
L 460.524706 219.948734 
L 462.494118 224.991489 
L 464.463529 230.186011 
L 466.432941 235.502809 
L 468.402353 240.910606 
L 470.371765 246.37634 
L 472.341176 251.86516 
L 474.310588 257.340426 
L 476.28 262.763713 
L 478.249412 268.094809 
L 480.218824 273.291713 
L 482.188235 278.310638 
L 484.157647 283.106011 
L 486.127059 287.630468 
L 488.096471 291.834862 
L 490.065882 295.668255 
L 492.035294 299.077926 
L 494.004706 302.009362 
L 495.974118 304.406266 
L 497.943529 306.210553 
L 499.912941 307.362351 
L 501.882353 307.8 
L 503.851765 307.460053 
L 505.821176 306.277277 
L 507.790588 304.184649 
L 509.76 301.113362 
L 511.729412 296.992819 
L 513.698824 291.750638 
L 515.668235 285.312649 
L 517.637647 277.602894 
L 519.607059 268.543628 
L 521.576471 258.055319 
L 523.545882 246.056649 
L 525.515294 232.464511 
L 527.484706 217.194011 
L 529.454118 200.158468 
L 531.423529 181.269415 
L 533.392941 160.436596 
L 535.362353 137.567968 
L 537.331765 112.569702 
L 539.301176 85.346181 
L 541.270588 55.8 
" clip-path="url(#pdfcf34074a)" style="fill: none; stroke-dasharray: 1.5,2.475; stroke-dashoffset: 0; stroke: #008000; stroke-width: 1.5"/>
   </g>
   <g id="line2d_58">
    <defs>
     <path id="mde9c66e410" d="M -3 0 
L 3 0 
M 0 3 
L 0 -3 
" style="stroke: #008000"/>
    </defs>
    <g clip-path="url(#pdfcf34074a)">
     <use xlink:href="#mde9c66e410" x="364.023529" y="289.034043" style="fill: #008000; stroke: #008000"/>
     <use xlink:href="#mde9c66e410" x="383.717647" y="255.970213" style="fill: #008000; stroke: #008000"/>
     <use xlink:href="#mde9c66e410" x="403.411765" y="208.012766" style="fill: #008000; stroke: #008000"/>
     <use xlink:href="#mde9c66e410" x="423.105882" y="179.119149" style="fill: #008000; stroke: #008000"/>
     <use xlink:href="#mde9c66e410" x="442.8" y="185.374468" style="fill: #008000; stroke: #008000"/>
     <use xlink:href="#mde9c66e410" x="462.494118" y="224.991489" style="fill: #008000; stroke: #008000"/>
     <use xlink:href="#mde9c66e410" x="482.188235" y="278.310638" style="fill: #008000; stroke: #008000"/>
     <use xlink:href="#mde9c66e410" x="501.882353" y="307.8" style="fill: #008000; stroke: #008000"/>
     <use xlink:href="#mde9c66e410" x="521.576471" y="258.055319" style="fill: #008000; stroke: #008000"/>
    </g>
   </g>
   <g id="line2d_59">
    <defs>
     <path id="mcbf471faff" d="M -3 3 
L 3 -3 
M -3 -3 
L 3 3 
" style="stroke: #ff0000"/>
    </defs>
    <g clip-path="url(#pdfcf34074a)">
     <use xlink:href="#mcbf471faff" x="364.023529" y="278.012766" style="fill: #ff0000; stroke: #ff0000"/>
     <use xlink:href="#mcbf471faff" x="383.717647" y="253.587234" style="fill: #ff0000; stroke: #ff0000"/>
     <use xlink:href="#mcbf471faff" x="403.411765" y="211.289362" style="fill: #ff0000; stroke: #ff0000"/>
     <use xlink:href="#mcbf471faff" x="423.105882" y="185.076596" style="fill: #ff0000; stroke: #ff0000"/>
     <use xlink:href="#mcbf471faff" x="442.8" y="191.034043" style="fill: #ff0000; stroke: #ff0000"/>
     <use xlink:href="#mcbf471faff" x="462.494118" y="227.374468" style="fill: #ff0000; stroke: #ff0000"/>
     <use xlink:href="#mcbf471faff" x="482.188235" y="274.438298" style="fill: #ff0000; stroke: #ff0000"/>
     <use xlink:href="#mcbf471faff" x="501.882353" y="294.693617" style="fill: #ff0000; stroke: #ff0000"/>
     <use xlink:href="#mcbf471faff" x="521.576471" y="232.73617" style="fill: #ff0000; stroke: #ff0000"/>
    </g>
   </g>
   <g id="patch_9">
    <path d="M 344.329412 320.4 
L 344.329412 43.2 
" style="fill: none; stroke: #000000; stroke-width: 0.8; stroke-linejoin: miter; stroke-linecap: square"/>
   </g>
   <g id="patch_10">
    <path d="M 541.270588 320.4 
L 541.270588 43.2 
" style="fill: none; stroke: #000000; stroke-width: 0.8; stroke-linejoin: miter; stroke-linecap: square"/>
   </g>
   <g id="patch_11">
    <path d="M 344.329412 320.4 
L 541.270588 320.4 
" style="fill: none; stroke: #000000; stroke-width: 0.8; stroke-linejoin: miter; stroke-linecap: square"/>
   </g>
   <g id="patch_12">
    <path d="M 344.329412 43.2 
L 541.270588 43.2 
" style="fill: none; stroke: #000000; stroke-width: 0.8; stroke-linejoin: miter; stroke-linecap: square"/>
   </g>
   <g id="text_31">
    <!-- First derivative -->
    <g transform="translate(398.14125 37.2) scale(0.12 -0.12)">
     <defs>
      <path id="DejaVuSans-46" d="M 628 4666 
L 3309 4666 
L 3309 4134 
L 1259 4134 
L 1259 2759 
L 3109 2759 
L 3109 2228 
L 1259 2228 
L 1259 0 
L 628 0 
L 628 4666 
z
" transform="scale(0.015625)"/>
      <path id="DejaVuSans-73" d="M 2834 3397 
L 2834 2853 
Q 2591 2978 2328 3040 
Q 2066 3103 1784 3103 
Q 1356 3103 1142 2972 
Q 928 2841 928 2578 
Q 928 2378 1081 2264 
Q 1234 2150 1697 2047 
L 1894 2003 
Q 2506 1872 2764 1633 
Q 3022 1394 3022 966 
Q 3022 478 2636 193 
Q 2250 -91 1575 -91 
Q 1294 -91 989 -36 
Q 684 19 347 128 
L 347 722 
Q 666 556 975 473 
Q 1284 391 1588 391 
Q 1994 391 2212 530 
Q 2431 669 2431 922 
Q 2431 1156 2273 1281 
Q 2116 1406 1581 1522 
L 1381 1569 
Q 847 1681 609 1914 
Q 372 2147 372 2553 
Q 372 3047 722 3315 
Q 1072 3584 1716 3584 
Q 2034 3584 2315 3537 
Q 2597 3491 2834 3397 
z
" transform="scale(0.015625)"/>
      <path id="DejaVuSans-76" d="M 191 3500 
L 800 3500 
L 1894 563 
L 2988 3500 
L 3597 3500 
L 2284 0 
L 1503 0 
L 191 3500 
z
" transform="scale(0.015625)"/>
     </defs>
     <use xlink:href="#DejaVuSans-46"/>
     <use xlink:href="#DejaVuSans-69" x="50.269531"/>
     <use xlink:href="#DejaVuSans-72" x="78.052734"/>
     <use xlink:href="#DejaVuSans-73" x="119.166016"/>
     <use xlink:href="#DejaVuSans-74" x="171.265625"/>
     <use xlink:href="#DejaVuSans-20" x="210.474609"/>
     <use xlink:href="#DejaVuSans-64" x="242.261719"/>
     <use xlink:href="#DejaVuSans-65" x="305.738281"/>
     <use xlink:href="#DejaVuSans-72" x="367.261719"/>
     <use xlink:href="#DejaVuSans-69" x="408.375"/>
     <use xlink:href="#DejaVuSans-76" x="436.158203"/>
     <use xlink:href="#DejaVuSans-61" x="495.337891"/>
     <use xlink:href="#DejaVuSans-74" x="556.617188"/>
     <use xlink:href="#DejaVuSans-69" x="595.826172"/>
     <use xlink:href="#DejaVuSans-76" x="623.609375"/>
     <use xlink:href="#DejaVuSans-65" x="682.789062"/>
    </g>
   </g>
   <g id="legend_2">
    <g id="patch_13">
     <path d="M 397.878401 80.55625 
L 534.270588 80.55625 
Q 536.270588 80.55625 536.270588 78.55625 
L 536.270588 50.2 
Q 536.270588 48.2 534.270588 48.2 
L 397.878401 48.2 
Q 395.878401 48.2 395.878401 50.2 
L 395.878401 78.55625 
Q 395.878401 80.55625 397.878401 80.55625 
z
" style="fill: #ffffff; opacity: 0.8; stroke: #cccccc; stroke-linejoin: miter"/>
    </g>
    <g id="line2d_60">
     <g>
      <use xlink:href="#mde9c66e410" x="409.878401" y="56.298437" style="fill: #008000; stroke: #008000"/>
     </g>
    </g>
    <g id="text_32">
     <!-- Analytical derivative -->
     <g transform="translate(427.878401 59.798437) scale(0.1 -0.1)">
      <defs>
       <path id="DejaVuSans-41" d="M 2188 4044 
L 1331 1722 
L 3047 1722 
L 2188 4044 
z
M 1831 4666 
L 2547 4666 
L 4325 0 
L 3669 0 
L 3244 1197 
L 1141 1197 
L 716 0 
L 50 0 
L 1831 4666 
z
" transform="scale(0.015625)"/>
      </defs>
      <use xlink:href="#DejaVuSans-41"/>
      <use xlink:href="#DejaVuSans-6e" x="68.408203"/>
      <use xlink:href="#DejaVuSans-61" x="131.787109"/>
      <use xlink:href="#DejaVuSans-6c" x="193.066406"/>
      <use xlink:href="#DejaVuSans-79" x="220.849609"/>
      <use xlink:href="#DejaVuSans-74" x="280.029297"/>
      <use xlink:href="#DejaVuSans-69" x="319.238281"/>
      <use xlink:href="#DejaVuSans-63" x="347.021484"/>
      <use xlink:href="#DejaVuSans-61" x="402.001953"/>
      <use xlink:href="#DejaVuSans-6c" x="463.28125"/>
      <use xlink:href="#DejaVuSans-20" x="491.064453"/>
      <use xlink:href="#DejaVuSans-64" x="522.851562"/>
      <use xlink:href="#DejaVuSans-65" x="586.328125"/>
      <use xlink:href="#DejaVuSans-72" x="647.851562"/>
      <use xlink:href="#DejaVuSans-69" x="688.964844"/>
      <use xlink:href="#DejaVuSans-76" x="716.748047"/>
      <use xlink:href="#DejaVuSans-61" x="775.927734"/>
      <use xlink:href="#DejaVuSans-74" x="837.207031"/>
      <use xlink:href="#DejaVuSans-69" x="876.416016"/>
      <use xlink:href="#DejaVuSans-76" x="904.199219"/>
      <use xlink:href="#DejaVuSans-65" x="963.378906"/>
     </g>
    </g>
    <g id="line2d_61">
     <g>
      <use xlink:href="#mcbf471faff" x="409.878401" y="70.976562" style="fill: #ff0000; stroke: #ff0000"/>
     </g>
    </g>
    <g id="text_33">
     <!-- Numerical derivative -->
     <g transform="translate(427.878401 74.476562) scale(0.1 -0.1)">
      <use xlink:href="#DejaVuSans-4e"/>
      <use xlink:href="#DejaVuSans-75" x="74.804688"/>
      <use xlink:href="#DejaVuSans-6d" x="138.183594"/>
      <use xlink:href="#DejaVuSans-65" x="235.595703"/>
      <use xlink:href="#DejaVuSans-72" x="297.119141"/>
      <use xlink:href="#DejaVuSans-69" x="338.232422"/>
      <use xlink:href="#DejaVuSans-63" x="366.015625"/>
      <use xlink:href="#DejaVuSans-61" x="420.996094"/>
      <use xlink:href="#DejaVuSans-6c" x="482.275391"/>
      <use xlink:href="#DejaVuSans-20" x="510.058594"/>
      <use xlink:href="#DejaVuSans-64" x="541.845703"/>
      <use xlink:href="#DejaVuSans-65" x="605.322266"/>
      <use xlink:href="#DejaVuSans-72" x="666.845703"/>
      <use xlink:href="#DejaVuSans-69" x="707.958984"/>
      <use xlink:href="#DejaVuSans-76" x="735.742188"/>
      <use xlink:href="#DejaVuSans-61" x="794.921875"/>
      <use xlink:href="#DejaVuSans-74" x="856.201172"/>
      <use xlink:href="#DejaVuSans-69" x="895.410156"/>
      <use xlink:href="#DejaVuSans-76" x="923.193359"/>
      <use xlink:href="#DejaVuSans-65" x="982.373047"/>
     </g>
    </g>
   </g>
  </g>
  <g id="axes_3">
   <g id="patch_14">
    <path d="M 580.658824 320.4 
L 777.6 320.4 
L 777.6 43.2 
L 580.658824 43.2 
z
" style="fill: #ffffff"/>
   </g>
   <g id="matplotlib.axis_5">
    <g id="xtick_11">
     <g id="line2d_62">
      <path d="M 600.352941 320.4 
L 600.352941 43.2 
" clip-path="url(#p37ea8e3c8a)" style="fill: none; stroke: #b0b0b0; stroke-width: 0.8; stroke-linecap: square"/>
     </g>
     <g id="line2d_63">
      <g>
       <use xlink:href="#m2382ff711e" x="600.352941" y="320.4" style="stroke: #000000; stroke-width: 0.8"/>
      </g>
     </g>
     <g id="text_34">
      <!-- −4 -->
      <g transform="translate(592.981847 334.998438) scale(0.1 -0.1)">
       <use xlink:href="#DejaVuSans-2212"/>
       <use xlink:href="#DejaVuSans-34" x="83.789062"/>
      </g>
     </g>
    </g>
    <g id="xtick_12">
     <g id="line2d_64">
      <path d="M 639.741176 320.4 
L 639.741176 43.2 
" clip-path="url(#p37ea8e3c8a)" style="fill: none; stroke: #b0b0b0; stroke-width: 0.8; stroke-linecap: square"/>
     </g>
     <g id="line2d_65">
      <g>
       <use xlink:href="#m2382ff711e" x="639.741176" y="320.4" style="stroke: #000000; stroke-width: 0.8"/>
      </g>
     </g>
     <g id="text_35">
      <!-- −2 -->
      <g transform="translate(632.370083 334.998438) scale(0.1 -0.1)">
       <use xlink:href="#DejaVuSans-2212"/>
       <use xlink:href="#DejaVuSans-32" x="83.789062"/>
      </g>
     </g>
    </g>
    <g id="xtick_13">
     <g id="line2d_66">
      <path d="M 679.129412 320.4 
L 679.129412 43.2 
" clip-path="url(#p37ea8e3c8a)" style="fill: none; stroke: #b0b0b0; stroke-width: 0.8; stroke-linecap: square"/>
     </g>
     <g id="line2d_67">
      <g>
       <use xlink:href="#m2382ff711e" x="679.129412" y="320.4" style="stroke: #000000; stroke-width: 0.8"/>
      </g>
     </g>
     <g id="text_36">
      <!-- 0 -->
      <g transform="translate(675.948162 334.998438) scale(0.1 -0.1)">
       <use xlink:href="#DejaVuSans-30"/>
      </g>
     </g>
    </g>
    <g id="xtick_14">
     <g id="line2d_68">
      <path d="M 718.517647 320.4 
L 718.517647 43.2 
" clip-path="url(#p37ea8e3c8a)" style="fill: none; stroke: #b0b0b0; stroke-width: 0.8; stroke-linecap: square"/>
     </g>
     <g id="line2d_69">
      <g>
       <use xlink:href="#m2382ff711e" x="718.517647" y="320.4" style="stroke: #000000; stroke-width: 0.8"/>
      </g>
     </g>
     <g id="text_37">
      <!-- 2 -->
      <g transform="translate(715.336397 334.998438) scale(0.1 -0.1)">
       <use xlink:href="#DejaVuSans-32"/>
      </g>
     </g>
    </g>
    <g id="xtick_15">
     <g id="line2d_70">
      <path d="M 757.905882 320.4 
L 757.905882 43.2 
" clip-path="url(#p37ea8e3c8a)" style="fill: none; stroke: #b0b0b0; stroke-width: 0.8; stroke-linecap: square"/>
     </g>
     <g id="line2d_71">
      <g>
       <use xlink:href="#m2382ff711e" x="757.905882" y="320.4" style="stroke: #000000; stroke-width: 0.8"/>
      </g>
     </g>
     <g id="text_38">
      <!-- 4 -->
      <g transform="translate(754.724632 334.998438) scale(0.1 -0.1)">
       <use xlink:href="#DejaVuSans-34"/>
      </g>
     </g>
    </g>
   </g>
   <g id="matplotlib.axis_6">
    <g id="ytick_17">
     <g id="line2d_72">
      <path d="M 580.658824 298.705263 
L 777.6 298.705263 
" clip-path="url(#p37ea8e3c8a)" style="fill: none; stroke: #b0b0b0; stroke-width: 0.8; stroke-linecap: square"/>
     </g>
     <g id="line2d_73">
      <g>
       <use xlink:href="#m1d48f7e81c" x="580.658824" y="298.705263" style="stroke: #000000; stroke-width: 0.8"/>
      </g>
     </g>
     <g id="text_39">
      <!-- −200 -->
      <g transform="translate(546.191636 302.504482) scale(0.1 -0.1)">
       <use xlink:href="#DejaVuSans-2212"/>
       <use xlink:href="#DejaVuSans-32" x="83.789062"/>
       <use xlink:href="#DejaVuSans-30" x="147.412109"/>
       <use xlink:href="#DejaVuSans-30" x="211.035156"/>
      </g>
     </g>
    </g>
    <g id="ytick_18">
     <g id="line2d_74">
      <path d="M 580.658824 251.336842 
L 777.6 251.336842 
" clip-path="url(#p37ea8e3c8a)" style="fill: none; stroke: #b0b0b0; stroke-width: 0.8; stroke-linecap: square"/>
     </g>
     <g id="line2d_75">
      <g>
       <use xlink:href="#m1d48f7e81c" x="580.658824" y="251.336842" style="stroke: #000000; stroke-width: 0.8"/>
      </g>
     </g>
     <g id="text_40">
      <!-- 0 -->
      <g transform="translate(567.296324 255.136061) scale(0.1 -0.1)">
       <use xlink:href="#DejaVuSans-30"/>
      </g>
     </g>
    </g>
    <g id="ytick_19">
     <g id="line2d_76">
      <path d="M 580.658824 203.968421 
L 777.6 203.968421 
" clip-path="url(#p37ea8e3c8a)" style="fill: none; stroke: #b0b0b0; stroke-width: 0.8; stroke-linecap: square"/>
     </g>
     <g id="line2d_77">
      <g>
       <use xlink:href="#m1d48f7e81c" x="580.658824" y="203.968421" style="stroke: #000000; stroke-width: 0.8"/>
      </g>
     </g>
     <g id="text_41">
      <!-- 200 -->
      <g transform="translate(554.571324 207.76764) scale(0.1 -0.1)">
       <use xlink:href="#DejaVuSans-32"/>
       <use xlink:href="#DejaVuSans-30" x="63.623047"/>
       <use xlink:href="#DejaVuSans-30" x="127.246094"/>
      </g>
     </g>
    </g>
    <g id="ytick_20">
     <g id="line2d_78">
      <path d="M 580.658824 156.6 
L 777.6 156.6 
" clip-path="url(#p37ea8e3c8a)" style="fill: none; stroke: #b0b0b0; stroke-width: 0.8; stroke-linecap: square"/>
     </g>
     <g id="line2d_79">
      <g>
       <use xlink:href="#m1d48f7e81c" x="580.658824" y="156.6" style="stroke: #000000; stroke-width: 0.8"/>
      </g>
     </g>
     <g id="text_42">
      <!-- 400 -->
      <g transform="translate(554.571324 160.399219) scale(0.1 -0.1)">
       <use xlink:href="#DejaVuSans-34"/>
       <use xlink:href="#DejaVuSans-30" x="63.623047"/>
       <use xlink:href="#DejaVuSans-30" x="127.246094"/>
      </g>
     </g>
    </g>
    <g id="ytick_21">
     <g id="line2d_80">
      <path d="M 580.658824 109.231579 
L 777.6 109.231579 
" clip-path="url(#p37ea8e3c8a)" style="fill: none; stroke: #b0b0b0; stroke-width: 0.8; stroke-linecap: square"/>
     </g>
     <g id="line2d_81">
      <g>
       <use xlink:href="#m1d48f7e81c" x="580.658824" y="109.231579" style="stroke: #000000; stroke-width: 0.8"/>
      </g>
     </g>
     <g id="text_43">
      <!-- 600 -->
      <g transform="translate(554.571324 113.030798) scale(0.1 -0.1)">
       <defs>
        <path id="DejaVuSans-36" d="M 2113 2584 
Q 1688 2584 1439 2293 
Q 1191 2003 1191 1497 
Q 1191 994 1439 701 
Q 1688 409 2113 409 
Q 2538 409 2786 701 
Q 3034 994 3034 1497 
Q 3034 2003 2786 2293 
Q 2538 2584 2113 2584 
z
M 3366 4563 
L 3366 3988 
Q 3128 4100 2886 4159 
Q 2644 4219 2406 4219 
Q 1781 4219 1451 3797 
Q 1122 3375 1075 2522 
Q 1259 2794 1537 2939 
Q 1816 3084 2150 3084 
Q 2853 3084 3261 2657 
Q 3669 2231 3669 1497 
Q 3669 778 3244 343 
Q 2819 -91 2113 -91 
Q 1303 -91 875 529 
Q 447 1150 447 2328 
Q 447 3434 972 4092 
Q 1497 4750 2381 4750 
Q 2619 4750 2861 4703 
Q 3103 4656 3366 4563 
z
" transform="scale(0.015625)"/>
       </defs>
       <use xlink:href="#DejaVuSans-36"/>
       <use xlink:href="#DejaVuSans-30" x="63.623047"/>
       <use xlink:href="#DejaVuSans-30" x="127.246094"/>
      </g>
     </g>
    </g>
    <g id="ytick_22">
     <g id="line2d_82">
      <path d="M 580.658824 61.863158 
L 777.6 61.863158 
" clip-path="url(#p37ea8e3c8a)" style="fill: none; stroke: #b0b0b0; stroke-width: 0.8; stroke-linecap: square"/>
     </g>
     <g id="line2d_83">
      <g>
       <use xlink:href="#m1d48f7e81c" x="580.658824" y="61.863158" style="stroke: #000000; stroke-width: 0.8"/>
      </g>
     </g>
     <g id="text_44">
      <!-- 800 -->
      <g transform="translate(554.571324 65.662377) scale(0.1 -0.1)">
       <defs>
        <path id="DejaVuSans-38" d="M 2034 2216 
Q 1584 2216 1326 1975 
Q 1069 1734 1069 1313 
Q 1069 891 1326 650 
Q 1584 409 2034 409 
Q 2484 409 2743 651 
Q 3003 894 3003 1313 
Q 3003 1734 2745 1975 
Q 2488 2216 2034 2216 
z
M 1403 2484 
Q 997 2584 770 2862 
Q 544 3141 544 3541 
Q 544 4100 942 4425 
Q 1341 4750 2034 4750 
Q 2731 4750 3128 4425 
Q 3525 4100 3525 3541 
Q 3525 3141 3298 2862 
Q 3072 2584 2669 2484 
Q 3125 2378 3379 2068 
Q 3634 1759 3634 1313 
Q 3634 634 3220 271 
Q 2806 -91 2034 -91 
Q 1263 -91 848 271 
Q 434 634 434 1313 
Q 434 1759 690 2068 
Q 947 2378 1403 2484 
z
M 1172 3481 
Q 1172 3119 1398 2916 
Q 1625 2713 2034 2713 
Q 2441 2713 2670 2916 
Q 2900 3119 2900 3481 
Q 2900 3844 2670 4047 
Q 2441 4250 2034 4250 
Q 1625 4250 1398 4047 
Q 1172 3844 1172 3481 
z
" transform="scale(0.015625)"/>
       </defs>
       <use xlink:href="#DejaVuSans-38"/>
       <use xlink:href="#DejaVuSans-30" x="63.623047"/>
       <use xlink:href="#DejaVuSans-30" x="127.246094"/>
      </g>
     </g>
    </g>
   </g>
   <g id="line2d_84">
    <g clip-path="url(#p37ea8e3c8a)">
     <use xlink:href="#mde9c66e410" x="600.352941" y="245.084211" style="fill: #008000; stroke: #008000"/>
     <use xlink:href="#mde9c66e410" x="620.047059" y="221.021053" style="fill: #008000; stroke: #008000"/>
     <use xlink:href="#mde9c66e410" x="639.741176" y="224.242105" style="fill: #008000; stroke: #008000"/>
     <use xlink:href="#mde9c66e410" x="659.435294" y="243.378947" style="fill: #008000; stroke: #008000"/>
     <use xlink:href="#mde9c66e410" x="679.129412" y="267.063158" style="fill: #008000; stroke: #008000"/>
     <use xlink:href="#mde9c66e410" x="698.823529" y="283.926316" style="fill: #008000; stroke: #008000"/>
     <use xlink:href="#mde9c66e410" x="718.517647" y="282.6" style="fill: #008000; stroke: #008000"/>
     <use xlink:href="#mde9c66e410" x="738.211765" y="251.715789" style="fill: #008000; stroke: #008000"/>
     <use xlink:href="#mde9c66e410" x="757.905882" y="179.905263" style="fill: #008000; stroke: #008000"/>
    </g>
   </g>
   <g id="line2d_85">
    <path d="M 580.658824 307.8 
L 582.628235 299.465053 
L 584.597647 291.618947 
L 586.567059 284.250316 
L 588.536471 277.347789 
L 590.505882 270.9 
L 592.475294 264.895579 
L 594.444706 259.323158 
L 596.414118 254.171368 
L 598.383529 249.428842 
L 600.352941 245.084211 
L 602.322353 241.126105 
L 604.291765 237.543158 
L 606.261176 234.324 
L 608.230588 231.457263 
L 610.2 228.931579 
L 612.169412 226.735579 
L 614.138824 224.857895 
L 616.108235 223.287158 
L 618.077647 222.012 
L 620.047059 221.021053 
L 622.016471 220.302947 
L 623.985882 219.846316 
L 625.955294 219.639789 
L 627.924706 219.672 
L 629.894118 219.931579 
L 631.863529 220.407158 
L 633.832941 221.087368 
L 635.802353 221.960842 
L 637.771765 223.016211 
L 639.741176 224.242105 
L 641.710588 225.627158 
L 643.68 227.16 
L 645.649412 228.829263 
L 647.618824 230.623579 
L 649.588235 232.531579 
L 651.557647 234.541895 
L 653.527059 236.643158 
L 655.496471 238.824 
L 657.465882 241.073053 
L 659.435294 243.378947 
L 661.404706 245.730316 
L 663.374118 248.115789 
L 665.343529 250.524 
L 667.312941 252.943579 
L 669.282353 255.363158 
L 671.251765 257.771368 
L 673.221176 260.156842 
L 675.190588 262.508211 
L 677.16 264.814105 
L 679.129412 267.063158 
L 681.098824 269.244 
L 683.068235 271.345263 
L 685.037647 273.355579 
L 687.007059 275.263579 
L 688.976471 277.057895 
L 690.945882 278.727158 
L 692.915294 280.26 
L 694.884706 281.645053 
L 696.854118 282.870947 
L 698.823529 283.926316 
L 700.792941 284.799789 
L 702.762353 285.48 
L 704.731765 285.955579 
L 706.701176 286.215158 
L 708.670588 286.247368 
L 710.64 286.040842 
L 712.609412 285.584211 
L 714.578824 284.866105 
L 716.548235 283.875158 
L 718.517647 282.6 
L 720.487059 281.029263 
L 722.456471 279.151579 
L 724.425882 276.955579 
L 726.395294 274.429895 
L 728.364706 271.563158 
L 730.334118 268.344 
L 732.303529 264.761053 
L 734.272941 260.802947 
L 736.242353 256.458316 
L 738.211765 251.715789 
L 740.181176 246.564 
L 742.150588 240.991579 
L 744.12 234.987158 
L 746.089412 228.539368 
L 748.058824 221.636842 
L 750.028235 214.268211 
L 751.997647 206.422105 
L 753.967059 198.087158 
L 755.936471 189.252 
L 757.905882 179.905263 
L 759.875294 170.035579 
L 761.844706 159.631579 
L 763.814118 148.681895 
L 765.783529 137.175158 
L 767.752941 125.1 
L 769.722353 112.445053 
L 771.691765 99.198947 
L 773.661176 85.350316 
L 775.630588 70.887789 
L 777.6 55.8 
" clip-path="url(#p37ea8e3c8a)" style="fill: none; stroke-dasharray: 1.5,2.475; stroke-dashoffset: 0; stroke: #008000; stroke-width: 1.5"/>
   </g>
   <g id="line2d_86">
    <g clip-path="url(#p37ea8e3c8a)">
     <use xlink:href="#mcbf471faff" x="600.352941" y="248.305263" style="fill: #ff0000; stroke: #ff0000"/>
     <use xlink:href="#mcbf471faff" x="620.047059" y="223.294737" style="fill: #ff0000; stroke: #ff0000"/>
     <use xlink:href="#mcbf471faff" x="639.741176" y="225.568421" style="fill: #ff0000; stroke: #ff0000"/>
     <use xlink:href="#mcbf471faff" x="659.435294" y="243.757895" style="fill: #ff0000; stroke: #ff0000"/>
     <use xlink:href="#mcbf471faff" x="679.129412" y="266.494737" style="fill: #ff0000; stroke: #ff0000"/>
     <use xlink:href="#mcbf471faff" x="698.823529" y="282.410526" style="fill: #ff0000; stroke: #ff0000"/>
     <use xlink:href="#mcbf471faff" x="718.517647" y="280.136842" style="fill: #ff0000; stroke: #ff0000"/>
     <use xlink:href="#mcbf471faff" x="738.211765" y="248.305263" style="fill: #ff0000; stroke: #ff0000"/>
     <use xlink:href="#mcbf471faff" x="757.905882" y="175.547368" style="fill: #ff0000; stroke: #ff0000"/>
    </g>
   </g>
   <g id="patch_15">
    <path d="M 580.658824 320.4 
L 580.658824 43.2 
" style="fill: none; stroke: #000000; stroke-width: 0.8; stroke-linejoin: miter; stroke-linecap: square"/>
   </g>
   <g id="patch_16">
    <path d="M 777.6 320.4 
L 777.6 43.2 
" style="fill: none; stroke: #000000; stroke-width: 0.8; stroke-linejoin: miter; stroke-linecap: square"/>
   </g>
   <g id="patch_17">
    <path d="M 580.658824 320.4 
L 777.6 320.4 
" style="fill: none; stroke: #000000; stroke-width: 0.8; stroke-linejoin: miter; stroke-linecap: square"/>
   </g>
   <g id="patch_18">
    <path d="M 580.658824 43.2 
L 777.6 43.2 
" style="fill: none; stroke: #000000; stroke-width: 0.8; stroke-linejoin: miter; stroke-linecap: square"/>
   </g>
   <g id="text_45">
    <!-- Second derivative -->
    <g transform="translate(625.015037 37.2) scale(0.12 -0.12)">
     <use xlink:href="#DejaVuSans-53"/>
     <use xlink:href="#DejaVuSans-65" x="63.476562"/>
     <use xlink:href="#DejaVuSans-63" x="125"/>
     <use xlink:href="#DejaVuSans-6f" x="179.980469"/>
     <use xlink:href="#DejaVuSans-6e" x="241.162109"/>
     <use xlink:href="#DejaVuSans-64" x="304.541016"/>
     <use xlink:href="#DejaVuSans-20" x="368.017578"/>
     <use xlink:href="#DejaVuSans-64" x="399.804688"/>
     <use xlink:href="#DejaVuSans-65" x="463.28125"/>
     <use xlink:href="#DejaVuSans-72" x="524.804688"/>
     <use xlink:href="#DejaVuSans-69" x="565.917969"/>
     <use xlink:href="#DejaVuSans-76" x="593.701172"/>
     <use xlink:href="#DejaVuSans-61" x="652.880859"/>
     <use xlink:href="#DejaVuSans-74" x="714.160156"/>
     <use xlink:href="#DejaVuSans-69" x="753.369141"/>
     <use xlink:href="#DejaVuSans-76" x="781.152344"/>
     <use xlink:href="#DejaVuSans-65" x="840.332031"/>
    </g>
   </g>
   <g id="legend_3">
    <g id="patch_19">
     <path d="M 634.207813 80.55625 
L 770.6 80.55625 
Q 772.6 80.55625 772.6 78.55625 
L 772.6 50.2 
Q 772.6 48.2 770.6 48.2 
L 634.207813 48.2 
Q 632.207813 48.2 632.207813 50.2 
L 632.207813 78.55625 
Q 632.207813 80.55625 634.207813 80.55625 
z
" style="fill: #ffffff; opacity: 0.8; stroke: #cccccc; stroke-linejoin: miter"/>
    </g>
    <g id="line2d_87">
     <g>
      <use xlink:href="#mde9c66e410" x="646.207813" y="56.298437" style="fill: #008000; stroke: #008000"/>
     </g>
    </g>
    <g id="text_46">
     <!-- Analytical derivative -->
     <g transform="translate(664.207813 59.798437) scale(0.1 -0.1)">
      <use xlink:href="#DejaVuSans-41"/>
      <use xlink:href="#DejaVuSans-6e" x="68.408203"/>
      <use xlink:href="#DejaVuSans-61" x="131.787109"/>
      <use xlink:href="#DejaVuSans-6c" x="193.066406"/>
      <use xlink:href="#DejaVuSans-79" x="220.849609"/>
      <use xlink:href="#DejaVuSans-74" x="280.029297"/>
      <use xlink:href="#DejaVuSans-69" x="319.238281"/>
      <use xlink:href="#DejaVuSans-63" x="347.021484"/>
      <use xlink:href="#DejaVuSans-61" x="402.001953"/>
      <use xlink:href="#DejaVuSans-6c" x="463.28125"/>
      <use xlink:href="#DejaVuSans-20" x="491.064453"/>
      <use xlink:href="#DejaVuSans-64" x="522.851562"/>
      <use xlink:href="#DejaVuSans-65" x="586.328125"/>
      <use xlink:href="#DejaVuSans-72" x="647.851562"/>
      <use xlink:href="#DejaVuSans-69" x="688.964844"/>
      <use xlink:href="#DejaVuSans-76" x="716.748047"/>
      <use xlink:href="#DejaVuSans-61" x="775.927734"/>
      <use xlink:href="#DejaVuSans-74" x="837.207031"/>
      <use xlink:href="#DejaVuSans-69" x="876.416016"/>
      <use xlink:href="#DejaVuSans-76" x="904.199219"/>
      <use xlink:href="#DejaVuSans-65" x="963.378906"/>
     </g>
    </g>
    <g id="line2d_88">
     <g>
      <use xlink:href="#mcbf471faff" x="646.207813" y="70.976562" style="fill: #ff0000; stroke: #ff0000"/>
     </g>
    </g>
    <g id="text_47">
     <!-- Numerical derivative -->
     <g transform="translate(664.207813 74.476562) scale(0.1 -0.1)">
      <use xlink:href="#DejaVuSans-4e"/>
      <use xlink:href="#DejaVuSans-75" x="74.804688"/>
      <use xlink:href="#DejaVuSans-6d" x="138.183594"/>
      <use xlink:href="#DejaVuSans-65" x="235.595703"/>
      <use xlink:href="#DejaVuSans-72" x="297.119141"/>
      <use xlink:href="#DejaVuSans-69" x="338.232422"/>
      <use xlink:href="#DejaVuSans-63" x="366.015625"/>
      <use xlink:href="#DejaVuSans-61" x="420.996094"/>
      <use xlink:href="#DejaVuSans-6c" x="482.275391"/>
      <use xlink:href="#DejaVuSans-20" x="510.058594"/>
      <use xlink:href="#DejaVuSans-64" x="541.845703"/>
      <use xlink:href="#DejaVuSans-65" x="605.322266"/>
      <use xlink:href="#DejaVuSans-72" x="666.845703"/>
      <use xlink:href="#DejaVuSans-69" x="707.958984"/>
      <use xlink:href="#DejaVuSans-76" x="735.742188"/>
      <use xlink:href="#DejaVuSans-61" x="794.921875"/>
      <use xlink:href="#DejaVuSans-74" x="856.201172"/>
      <use xlink:href="#DejaVuSans-69" x="895.410156"/>
      <use xlink:href="#DejaVuSans-76" x="923.193359"/>
      <use xlink:href="#DejaVuSans-65" x="982.373047"/>
     </g>
    </g>
   </g>
  </g>
 </g>
 <defs>
  <clipPath id="p78551767f3">
   <rect x="108" y="43.2" width="196.941176" height="277.2"/>
  </clipPath>
  <clipPath id="pdfcf34074a">
   <rect x="344.329412" y="43.2" width="196.941176" height="277.2"/>
  </clipPath>
  <clipPath id="p37ea8e3c8a">
   <rect x="580.658824" y="43.2" width="196.941176" height="277.2"/>
  </clipPath>
 </defs>
</svg>
