<?xml version="1.0" encoding="utf-8" standalone="no"?>
<!DOCTYPE svg PUBLIC "-//W3C//DTD SVG 1.1//EN"
  "http://www.w3.org/Graphics/SVG/1.1/DTD/svg11.dtd">
<svg xmlns:xlink="http://www.w3.org/1999/xlink" width="576pt" height="360pt" viewBox="0 0 576 360" xmlns="http://www.w3.org/2000/svg" version="1.1">
 <metadata>
  <rdf:RDF xmlns:dc="http://purl.org/dc/elements/1.1/" xmlns:cc="http://creativecommons.org/ns#" xmlns:rdf="http://www.w3.org/1999/02/22-rdf-syntax-ns#">
   <cc:Work>
    <dc:type rdf:resource="http://purl.org/dc/dcmitype/StillImage"/>
    <dc:date>2022-11-11T21:57:39.210599</dc:date>
    <dc:format>image/svg+xml</dc:format>
    <dc:creator>
     <cc:Agent>
      <dc:title>Matplotlib v3.6.0, https://matplotlib.org/</dc:title>
     </cc:Agent>
    </dc:creator>
   </cc:Work>
  </rdf:RDF>
 </metadata>
 <defs>
  <style type="text/css">*{stroke-linejoin: round; stroke-linecap: butt}</style>
 </defs>
 <g id="figure_1">
  <g id="patch_1">
   <path d="M 0 360 
L 576 360 
L 576 0 
L 0 0 
z
" style="fill: #ffffff"/>
  </g>
  <g id="axes_1">
   <g id="patch_2">
    <path d="M 72 320.4 
L 518.4 320.4 
L 518.4 43.2 
L 72 43.2 
z
" style="fill: #ffffff"/>
   </g>
   <g id="matplotlib.axis_1">
    <g id="xtick_1">
     <g id="line2d_1">
      <path d="M 72 320.4 
L 72 43.2 
" clip-path="url(#p62bb0f2cc0)" style="fill: none; stroke: #b0b0b0; stroke-width: 0.8; stroke-linecap: square"/>
     </g>
     <g id="line2d_2">
      <defs>
       <path id="ma821e39228" d="M 0 0 
L 0 3.5 
" style="stroke: #000000; stroke-width: 0.8"/>
      </defs>
      <g>
       <use xlink:href="#ma821e39228" x="72" y="320.4" style="stroke: #000000; stroke-width: 0.8"/>
      </g>
     </g>
     <g id="text_1">
      <!-- 0 -->
      <g transform="translate(68.81875 334.998438) scale(0.1 -0.1)">
       <defs>
        <path id="DejaVuSans-30" d="M 2034 4250 
Q 1547 4250 1301 3770 
Q 1056 3291 1056 2328 
Q 1056 1369 1301 889 
Q 1547 409 2034 409 
Q 2525 409 2770 889 
Q 3016 1369 3016 2328 
Q 3016 3291 2770 3770 
Q 2525 4250 2034 4250 
z
M 2034 4750 
Q 2819 4750 3233 4129 
Q 3647 3509 3647 2328 
Q 3647 1150 3233 529 
Q 2819 -91 2034 -91 
Q 1250 -91 836 529 
Q 422 1150 422 2328 
Q 422 3509 836 4129 
Q 1250 4750 2034 4750 
z
" transform="scale(0.015625)"/>
       </defs>
       <use xlink:href="#DejaVuSans-30"/>
      </g>
     </g>
    </g>
    <g id="xtick_2">
     <g id="line2d_3">
      <path d="M 161.28 320.4 
L 161.28 43.2 
" clip-path="url(#p62bb0f2cc0)" style="fill: none; stroke: #b0b0b0; stroke-width: 0.8; stroke-linecap: square"/>
     </g>
     <g id="line2d_4">
      <g>
       <use xlink:href="#ma821e39228" x="161.28" y="320.4" style="stroke: #000000; stroke-width: 0.8"/>
      </g>
     </g>
     <g id="text_2">
      <!-- 20 -->
      <g transform="translate(154.9175 334.998438) scale(0.1 -0.1)">
       <defs>
        <path id="DejaVuSans-32" d="M 1228 531 
L 3431 531 
L 3431 0 
L 469 0 
L 469 531 
Q 828 903 1448 1529 
Q 2069 2156 2228 2338 
Q 2531 2678 2651 2914 
Q 2772 3150 2772 3378 
Q 2772 3750 2511 3984 
Q 2250 4219 1831 4219 
Q 1534 4219 1204 4116 
Q 875 4013 500 3803 
L 500 4441 
Q 881 4594 1212 4672 
Q 1544 4750 1819 4750 
Q 2544 4750 2975 4387 
Q 3406 4025 3406 3419 
Q 3406 3131 3298 2873 
Q 3191 2616 2906 2266 
Q 2828 2175 2409 1742 
Q 1991 1309 1228 531 
z
" transform="scale(0.015625)"/>
       </defs>
       <use xlink:href="#DejaVuSans-32"/>
       <use xlink:href="#DejaVuSans-30" x="63.623047"/>
      </g>
     </g>
    </g>
    <g id="xtick_3">
     <g id="line2d_5">
      <path d="M 250.56 320.4 
L 250.56 43.2 
" clip-path="url(#p62bb0f2cc0)" style="fill: none; stroke: #b0b0b0; stroke-width: 0.8; stroke-linecap: square"/>
     </g>
     <g id="line2d_6">
      <g>
       <use xlink:href="#ma821e39228" x="250.56" y="320.4" style="stroke: #000000; stroke-width: 0.8"/>
      </g>
     </g>
     <g id="text_3">
      <!-- 40 -->
      <g transform="translate(244.1975 334.998438) scale(0.1 -0.1)">
       <defs>
        <path id="DejaVuSans-34" d="M 2419 4116 
L 825 1625 
L 2419 1625 
L 2419 4116 
z
M 2253 4666 
L 3047 4666 
L 3047 1625 
L 3713 1625 
L 3713 1100 
L 3047 1100 
L 3047 0 
L 2419 0 
L 2419 1100 
L 313 1100 
L 313 1709 
L 2253 4666 
z
" transform="scale(0.015625)"/>
       </defs>
       <use xlink:href="#DejaVuSans-34"/>
       <use xlink:href="#DejaVuSans-30" x="63.623047"/>
      </g>
     </g>
    </g>
    <g id="xtick_4">
     <g id="line2d_7">
      <path d="M 339.84 320.4 
L 339.84 43.2 
" clip-path="url(#p62bb0f2cc0)" style="fill: none; stroke: #b0b0b0; stroke-width: 0.8; stroke-linecap: square"/>
     </g>
     <g id="line2d_8">
      <g>
       <use xlink:href="#ma821e39228" x="339.84" y="320.4" style="stroke: #000000; stroke-width: 0.8"/>
      </g>
     </g>
     <g id="text_4">
      <!-- 60 -->
      <g transform="translate(333.4775 334.998438) scale(0.1 -0.1)">
       <defs>
        <path id="DejaVuSans-36" d="M 2113 2584 
Q 1688 2584 1439 2293 
Q 1191 2003 1191 1497 
Q 1191 994 1439 701 
Q 1688 409 2113 409 
Q 2538 409 2786 701 
Q 3034 994 3034 1497 
Q 3034 2003 2786 2293 
Q 2538 2584 2113 2584 
z
M 3366 4563 
L 3366 3988 
Q 3128 4100 2886 4159 
Q 2644 4219 2406 4219 
Q 1781 4219 1451 3797 
Q 1122 3375 1075 2522 
Q 1259 2794 1537 2939 
Q 1816 3084 2150 3084 
Q 2853 3084 3261 2657 
Q 3669 2231 3669 1497 
Q 3669 778 3244 343 
Q 2819 -91 2113 -91 
Q 1303 -91 875 529 
Q 447 1150 447 2328 
Q 447 3434 972 4092 
Q 1497 4750 2381 4750 
Q 2619 4750 2861 4703 
Q 3103 4656 3366 4563 
z
" transform="scale(0.015625)"/>
       </defs>
       <use xlink:href="#DejaVuSans-36"/>
       <use xlink:href="#DejaVuSans-30" x="63.623047"/>
      </g>
     </g>
    </g>
    <g id="xtick_5">
     <g id="line2d_9">
      <path d="M 429.12 320.4 
L 429.12 43.2 
" clip-path="url(#p62bb0f2cc0)" style="fill: none; stroke: #b0b0b0; stroke-width: 0.8; stroke-linecap: square"/>
     </g>
     <g id="line2d_10">
      <g>
       <use xlink:href="#ma821e39228" x="429.12" y="320.4" style="stroke: #000000; stroke-width: 0.8"/>
      </g>
     </g>
     <g id="text_5">
      <!-- 80 -->
      <g transform="translate(422.7575 334.998438) scale(0.1 -0.1)">
       <defs>
        <path id="DejaVuSans-38" d="M 2034 2216 
Q 1584 2216 1326 1975 
Q 1069 1734 1069 1313 
Q 1069 891 1326 650 
Q 1584 409 2034 409 
Q 2484 409 2743 651 
Q 3003 894 3003 1313 
Q 3003 1734 2745 1975 
Q 2488 2216 2034 2216 
z
M 1403 2484 
Q 997 2584 770 2862 
Q 544 3141 544 3541 
Q 544 4100 942 4425 
Q 1341 4750 2034 4750 
Q 2731 4750 3128 4425 
Q 3525 4100 3525 3541 
Q 3525 3141 3298 2862 
Q 3072 2584 2669 2484 
Q 3125 2378 3379 2068 
Q 3634 1759 3634 1313 
Q 3634 634 3220 271 
Q 2806 -91 2034 -91 
Q 1263 -91 848 271 
Q 434 634 434 1313 
Q 434 1759 690 2068 
Q 947 2378 1403 2484 
z
M 1172 3481 
Q 1172 3119 1398 2916 
Q 1625 2713 2034 2713 
Q 2441 2713 2670 2916 
Q 2900 3119 2900 3481 
Q 2900 3844 2670 4047 
Q 2441 4250 2034 4250 
Q 1625 4250 1398 4047 
Q 1172 3844 1172 3481 
z
" transform="scale(0.015625)"/>
       </defs>
       <use xlink:href="#DejaVuSans-38"/>
       <use xlink:href="#DejaVuSans-30" x="63.623047"/>
      </g>
     </g>
    </g>
    <g id="xtick_6">
     <g id="line2d_11">
      <path d="M 518.4 320.4 
L 518.4 43.2 
" clip-path="url(#p62bb0f2cc0)" style="fill: none; stroke: #b0b0b0; stroke-width: 0.8; stroke-linecap: square"/>
     </g>
     <g id="line2d_12">
      <g>
       <use xlink:href="#ma821e39228" x="518.4" y="320.4" style="stroke: #000000; stroke-width: 0.8"/>
      </g>
     </g>
     <g id="text_6">
      <!-- 100 -->
      <g transform="translate(508.85625 334.998438) scale(0.1 -0.1)">
       <defs>
        <path id="DejaVuSans-31" d="M 794 531 
L 1825 531 
L 1825 4091 
L 703 3866 
L 703 4441 
L 1819 4666 
L 2450 4666 
L 2450 531 
L 3481 531 
L 3481 0 
L 794 0 
L 794 531 
z
" transform="scale(0.015625)"/>
       </defs>
       <use xlink:href="#DejaVuSans-31"/>
       <use xlink:href="#DejaVuSans-30" x="63.623047"/>
       <use xlink:href="#DejaVuSans-30" x="127.246094"/>
      </g>
     </g>
    </g>
    <g id="text_7">
     <!-- Horizontal dimension (column index) -->
     <g transform="translate(203.014844 348.676562) scale(0.1 -0.1)">
      <defs>
       <path id="DejaVuSans-48" d="M 628 4666 
L 1259 4666 
L 1259 2753 
L 3553 2753 
L 3553 4666 
L 4184 4666 
L 4184 0 
L 3553 0 
L 3553 2222 
L 1259 2222 
L 1259 0 
L 628 0 
L 628 4666 
z
" transform="scale(0.015625)"/>
       <path id="DejaVuSans-6f" d="M 1959 3097 
Q 1497 3097 1228 2736 
Q 959 2375 959 1747 
Q 959 1119 1226 758 
Q 1494 397 1959 397 
Q 2419 397 2687 759 
Q 2956 1122 2956 1747 
Q 2956 2369 2687 2733 
Q 2419 3097 1959 3097 
z
M 1959 3584 
Q 2709 3584 3137 3096 
Q 3566 2609 3566 1747 
Q 3566 888 3137 398 
Q 2709 -91 1959 -91 
Q 1206 -91 779 398 
Q 353 888 353 1747 
Q 353 2609 779 3096 
Q 1206 3584 1959 3584 
z
" transform="scale(0.015625)"/>
       <path id="DejaVuSans-72" d="M 2631 2963 
Q 2534 3019 2420 3045 
Q 2306 3072 2169 3072 
Q 1681 3072 1420 2755 
Q 1159 2438 1159 1844 
L 1159 0 
L 581 0 
L 581 3500 
L 1159 3500 
L 1159 2956 
Q 1341 3275 1631 3429 
Q 1922 3584 2338 3584 
Q 2397 3584 2469 3576 
Q 2541 3569 2628 3553 
L 2631 2963 
z
" transform="scale(0.015625)"/>
       <path id="DejaVuSans-69" d="M 603 3500 
L 1178 3500 
L 1178 0 
L 603 0 
L 603 3500 
z
M 603 4863 
L 1178 4863 
L 1178 4134 
L 603 4134 
L 603 4863 
z
" transform="scale(0.015625)"/>
       <path id="DejaVuSans-7a" d="M 353 3500 
L 3084 3500 
L 3084 2975 
L 922 459 
L 3084 459 
L 3084 0 
L 275 0 
L 275 525 
L 2438 3041 
L 353 3041 
L 353 3500 
z
" transform="scale(0.015625)"/>
       <path id="DejaVuSans-6e" d="M 3513 2113 
L 3513 0 
L 2938 0 
L 2938 2094 
Q 2938 2591 2744 2837 
Q 2550 3084 2163 3084 
Q 1697 3084 1428 2787 
Q 1159 2491 1159 1978 
L 1159 0 
L 581 0 
L 581 3500 
L 1159 3500 
L 1159 2956 
Q 1366 3272 1645 3428 
Q 1925 3584 2291 3584 
Q 2894 3584 3203 3211 
Q 3513 2838 3513 2113 
z
" transform="scale(0.015625)"/>
       <path id="DejaVuSans-74" d="M 1172 4494 
L 1172 3500 
L 2356 3500 
L 2356 3053 
L 1172 3053 
L 1172 1153 
Q 1172 725 1289 603 
Q 1406 481 1766 481 
L 2356 481 
L 2356 0 
L 1766 0 
Q 1100 0 847 248 
Q 594 497 594 1153 
L 594 3053 
L 172 3053 
L 172 3500 
L 594 3500 
L 594 4494 
L 1172 4494 
z
" transform="scale(0.015625)"/>
       <path id="DejaVuSans-61" d="M 2194 1759 
Q 1497 1759 1228 1600 
Q 959 1441 959 1056 
Q 959 750 1161 570 
Q 1363 391 1709 391 
Q 2188 391 2477 730 
Q 2766 1069 2766 1631 
L 2766 1759 
L 2194 1759 
z
M 3341 1997 
L 3341 0 
L 2766 0 
L 2766 531 
Q 2569 213 2275 61 
Q 1981 -91 1556 -91 
Q 1019 -91 701 211 
Q 384 513 384 1019 
Q 384 1609 779 1909 
Q 1175 2209 1959 2209 
L 2766 2209 
L 2766 2266 
Q 2766 2663 2505 2880 
Q 2244 3097 1772 3097 
Q 1472 3097 1187 3025 
Q 903 2953 641 2809 
L 641 3341 
Q 956 3463 1253 3523 
Q 1550 3584 1831 3584 
Q 2591 3584 2966 3190 
Q 3341 2797 3341 1997 
z
" transform="scale(0.015625)"/>
       <path id="DejaVuSans-6c" d="M 603 4863 
L 1178 4863 
L 1178 0 
L 603 0 
L 603 4863 
z
" transform="scale(0.015625)"/>
       <path id="DejaVuSans-20" transform="scale(0.015625)"/>
       <path id="DejaVuSans-64" d="M 2906 2969 
L 2906 4863 
L 3481 4863 
L 3481 0 
L 2906 0 
L 2906 525 
Q 2725 213 2448 61 
Q 2172 -91 1784 -91 
Q 1150 -91 751 415 
Q 353 922 353 1747 
Q 353 2572 751 3078 
Q 1150 3584 1784 3584 
Q 2172 3584 2448 3432 
Q 2725 3281 2906 2969 
z
M 947 1747 
Q 947 1113 1208 752 
Q 1469 391 1925 391 
Q 2381 391 2643 752 
Q 2906 1113 2906 1747 
Q 2906 2381 2643 2742 
Q 2381 3103 1925 3103 
Q 1469 3103 1208 2742 
Q 947 2381 947 1747 
z
" transform="scale(0.015625)"/>
       <path id="DejaVuSans-6d" d="M 3328 2828 
Q 3544 3216 3844 3400 
Q 4144 3584 4550 3584 
Q 5097 3584 5394 3201 
Q 5691 2819 5691 2113 
L 5691 0 
L 5113 0 
L 5113 2094 
Q 5113 2597 4934 2840 
Q 4756 3084 4391 3084 
Q 3944 3084 3684 2787 
Q 3425 2491 3425 1978 
L 3425 0 
L 2847 0 
L 2847 2094 
Q 2847 2600 2669 2842 
Q 2491 3084 2119 3084 
Q 1678 3084 1418 2786 
Q 1159 2488 1159 1978 
L 1159 0 
L 581 0 
L 581 3500 
L 1159 3500 
L 1159 2956 
Q 1356 3278 1631 3431 
Q 1906 3584 2284 3584 
Q 2666 3584 2933 3390 
Q 3200 3197 3328 2828 
z
" transform="scale(0.015625)"/>
       <path id="DejaVuSans-65" d="M 3597 1894 
L 3597 1613 
L 953 1613 
Q 991 1019 1311 708 
Q 1631 397 2203 397 
Q 2534 397 2845 478 
Q 3156 559 3463 722 
L 3463 178 
Q 3153 47 2828 -22 
Q 2503 -91 2169 -91 
Q 1331 -91 842 396 
Q 353 884 353 1716 
Q 353 2575 817 3079 
Q 1281 3584 2069 3584 
Q 2775 3584 3186 3129 
Q 3597 2675 3597 1894 
z
M 3022 2063 
Q 3016 2534 2758 2815 
Q 2500 3097 2075 3097 
Q 1594 3097 1305 2825 
Q 1016 2553 972 2059 
L 3022 2063 
z
" transform="scale(0.015625)"/>
       <path id="DejaVuSans-73" d="M 2834 3397 
L 2834 2853 
Q 2591 2978 2328 3040 
Q 2066 3103 1784 3103 
Q 1356 3103 1142 2972 
Q 928 2841 928 2578 
Q 928 2378 1081 2264 
Q 1234 2150 1697 2047 
L 1894 2003 
Q 2506 1872 2764 1633 
Q 3022 1394 3022 966 
Q 3022 478 2636 193 
Q 2250 -91 1575 -91 
Q 1294 -91 989 -36 
Q 684 19 347 128 
L 347 722 
Q 666 556 975 473 
Q 1284 391 1588 391 
Q 1994 391 2212 530 
Q 2431 669 2431 922 
Q 2431 1156 2273 1281 
Q 2116 1406 1581 1522 
L 1381 1569 
Q 847 1681 609 1914 
Q 372 2147 372 2553 
Q 372 3047 722 3315 
Q 1072 3584 1716 3584 
Q 2034 3584 2315 3537 
Q 2597 3491 2834 3397 
z
" transform="scale(0.015625)"/>
       <path id="DejaVuSans-28" d="M 1984 4856 
Q 1566 4138 1362 3434 
Q 1159 2731 1159 2009 
Q 1159 1288 1364 580 
Q 1569 -128 1984 -844 
L 1484 -844 
Q 1016 -109 783 600 
Q 550 1309 550 2009 
Q 550 2706 781 3412 
Q 1013 4119 1484 4856 
L 1984 4856 
z
" transform="scale(0.015625)"/>
       <path id="DejaVuSans-63" d="M 3122 3366 
L 3122 2828 
Q 2878 2963 2633 3030 
Q 2388 3097 2138 3097 
Q 1578 3097 1268 2742 
Q 959 2388 959 1747 
Q 959 1106 1268 751 
Q 1578 397 2138 397 
Q 2388 397 2633 464 
Q 2878 531 3122 666 
L 3122 134 
Q 2881 22 2623 -34 
Q 2366 -91 2075 -91 
Q 1284 -91 818 406 
Q 353 903 353 1747 
Q 353 2603 823 3093 
Q 1294 3584 2113 3584 
Q 2378 3584 2631 3529 
Q 2884 3475 3122 3366 
z
" transform="scale(0.015625)"/>
       <path id="DejaVuSans-75" d="M 544 1381 
L 544 3500 
L 1119 3500 
L 1119 1403 
Q 1119 906 1312 657 
Q 1506 409 1894 409 
Q 2359 409 2629 706 
Q 2900 1003 2900 1516 
L 2900 3500 
L 3475 3500 
L 3475 0 
L 2900 0 
L 2900 538 
Q 2691 219 2414 64 
Q 2138 -91 1772 -91 
Q 1169 -91 856 284 
Q 544 659 544 1381 
z
M 1991 3584 
L 1991 3584 
z
" transform="scale(0.015625)"/>
       <path id="DejaVuSans-78" d="M 3513 3500 
L 2247 1797 
L 3578 0 
L 2900 0 
L 1881 1375 
L 863 0 
L 184 0 
L 1544 1831 
L 300 3500 
L 978 3500 
L 1906 2253 
L 2834 3500 
L 3513 3500 
z
" transform="scale(0.015625)"/>
       <path id="DejaVuSans-29" d="M 513 4856 
L 1013 4856 
Q 1481 4119 1714 3412 
Q 1947 2706 1947 2009 
Q 1947 1309 1714 600 
Q 1481 -109 1013 -844 
L 513 -844 
Q 928 -128 1133 580 
Q 1338 1288 1338 2009 
Q 1338 2731 1133 3434 
Q 928 4138 513 4856 
z
" transform="scale(0.015625)"/>
      </defs>
      <use xlink:href="#DejaVuSans-48"/>
      <use xlink:href="#DejaVuSans-6f" x="75.195312"/>
      <use xlink:href="#DejaVuSans-72" x="136.376953"/>
      <use xlink:href="#DejaVuSans-69" x="177.490234"/>
      <use xlink:href="#DejaVuSans-7a" x="205.273438"/>
      <use xlink:href="#DejaVuSans-6f" x="257.763672"/>
      <use xlink:href="#DejaVuSans-6e" x="318.945312"/>
      <use xlink:href="#DejaVuSans-74" x="382.324219"/>
      <use xlink:href="#DejaVuSans-61" x="421.533203"/>
      <use xlink:href="#DejaVuSans-6c" x="482.8125"/>
      <use xlink:href="#DejaVuSans-20" x="510.595703"/>
      <use xlink:href="#DejaVuSans-64" x="542.382812"/>
      <use xlink:href="#DejaVuSans-69" x="605.859375"/>
      <use xlink:href="#DejaVuSans-6d" x="633.642578"/>
      <use xlink:href="#DejaVuSans-65" x="731.054688"/>
      <use xlink:href="#DejaVuSans-6e" x="792.578125"/>
      <use xlink:href="#DejaVuSans-73" x="855.957031"/>
      <use xlink:href="#DejaVuSans-69" x="908.056641"/>
      <use xlink:href="#DejaVuSans-6f" x="935.839844"/>
      <use xlink:href="#DejaVuSans-6e" x="997.021484"/>
      <use xlink:href="#DejaVuSans-20" x="1060.400391"/>
      <use xlink:href="#DejaVuSans-28" x="1092.1875"/>
      <use xlink:href="#DejaVuSans-63" x="1131.201172"/>
      <use xlink:href="#DejaVuSans-6f" x="1186.181641"/>
      <use xlink:href="#DejaVuSans-6c" x="1247.363281"/>
      <use xlink:href="#DejaVuSans-75" x="1275.146484"/>
      <use xlink:href="#DejaVuSans-6d" x="1338.525391"/>
      <use xlink:href="#DejaVuSans-6e" x="1435.9375"/>
      <use xlink:href="#DejaVuSans-20" x="1499.316406"/>
      <use xlink:href="#DejaVuSans-69" x="1531.103516"/>
      <use xlink:href="#DejaVuSans-6e" x="1558.886719"/>
      <use xlink:href="#DejaVuSans-64" x="1622.265625"/>
      <use xlink:href="#DejaVuSans-65" x="1685.742188"/>
      <use xlink:href="#DejaVuSans-78" x="1745.515625"/>
      <use xlink:href="#DejaVuSans-29" x="1804.695312"/>
     </g>
    </g>
   </g>
   <g id="matplotlib.axis_2">
    <g id="ytick_1">
     <g id="line2d_13">
      <path d="M 72 320.4 
L 518.4 320.4 
" clip-path="url(#p62bb0f2cc0)" style="fill: none; stroke: #b0b0b0; stroke-width: 0.8; stroke-linecap: square"/>
     </g>
     <g id="line2d_14">
      <defs>
       <path id="m0b950d10e9" d="M 0 0 
L -3.5 0 
" style="stroke: #000000; stroke-width: 0.8"/>
      </defs>
      <g>
       <use xlink:href="#m0b950d10e9" x="72" y="320.4" style="stroke: #000000; stroke-width: 0.8"/>
      </g>
     </g>
     <g id="text_8">
      <!-- 0 -->
      <g transform="translate(58.6375 324.199219) scale(0.1 -0.1)">
       <use xlink:href="#DejaVuSans-30"/>
      </g>
     </g>
    </g>
    <g id="ytick_2">
     <g id="line2d_15">
      <path d="M 72 266.047059 
L 518.4 266.047059 
" clip-path="url(#p62bb0f2cc0)" style="fill: none; stroke: #b0b0b0; stroke-width: 0.8; stroke-linecap: square"/>
     </g>
     <g id="line2d_16">
      <g>
       <use xlink:href="#m0b950d10e9" x="72" y="266.047059" style="stroke: #000000; stroke-width: 0.8"/>
      </g>
     </g>
     <g id="text_9">
      <!-- 50 -->
      <g transform="translate(52.275 269.846278) scale(0.1 -0.1)">
       <defs>
        <path id="DejaVuSans-35" d="M 691 4666 
L 3169 4666 
L 3169 4134 
L 1269 4134 
L 1269 2991 
Q 1406 3038 1543 3061 
Q 1681 3084 1819 3084 
Q 2600 3084 3056 2656 
Q 3513 2228 3513 1497 
Q 3513 744 3044 326 
Q 2575 -91 1722 -91 
Q 1428 -91 1123 -41 
Q 819 9 494 109 
L 494 744 
Q 775 591 1075 516 
Q 1375 441 1709 441 
Q 2250 441 2565 725 
Q 2881 1009 2881 1497 
Q 2881 1984 2565 2268 
Q 2250 2553 1709 2553 
Q 1456 2553 1204 2497 
Q 953 2441 691 2322 
L 691 4666 
z
" transform="scale(0.015625)"/>
       </defs>
       <use xlink:href="#DejaVuSans-35"/>
       <use xlink:href="#DejaVuSans-30" x="63.623047"/>
      </g>
     </g>
    </g>
    <g id="ytick_3">
     <g id="line2d_17">
      <path d="M 72 211.694118 
L 518.4 211.694118 
" clip-path="url(#p62bb0f2cc0)" style="fill: none; stroke: #b0b0b0; stroke-width: 0.8; stroke-linecap: square"/>
     </g>
     <g id="line2d_18">
      <g>
       <use xlink:href="#m0b950d10e9" x="72" y="211.694118" style="stroke: #000000; stroke-width: 0.8"/>
      </g>
     </g>
     <g id="text_10">
      <!-- 100 -->
      <g transform="translate(45.9125 215.493336) scale(0.1 -0.1)">
       <use xlink:href="#DejaVuSans-31"/>
       <use xlink:href="#DejaVuSans-30" x="63.623047"/>
       <use xlink:href="#DejaVuSans-30" x="127.246094"/>
      </g>
     </g>
    </g>
    <g id="ytick_4">
     <g id="line2d_19">
      <path d="M 72 157.341176 
L 518.4 157.341176 
" clip-path="url(#p62bb0f2cc0)" style="fill: none; stroke: #b0b0b0; stroke-width: 0.8; stroke-linecap: square"/>
     </g>
     <g id="line2d_20">
      <g>
       <use xlink:href="#m0b950d10e9" x="72" y="157.341176" style="stroke: #000000; stroke-width: 0.8"/>
      </g>
     </g>
     <g id="text_11">
      <!-- 150 -->
      <g transform="translate(45.9125 161.140395) scale(0.1 -0.1)">
       <use xlink:href="#DejaVuSans-31"/>
       <use xlink:href="#DejaVuSans-35" x="63.623047"/>
       <use xlink:href="#DejaVuSans-30" x="127.246094"/>
      </g>
     </g>
    </g>
    <g id="ytick_5">
     <g id="line2d_21">
      <path d="M 72 102.988235 
L 518.4 102.988235 
" clip-path="url(#p62bb0f2cc0)" style="fill: none; stroke: #b0b0b0; stroke-width: 0.8; stroke-linecap: square"/>
     </g>
     <g id="line2d_22">
      <g>
       <use xlink:href="#m0b950d10e9" x="72" y="102.988235" style="stroke: #000000; stroke-width: 0.8"/>
      </g>
     </g>
     <g id="text_12">
      <!-- 200 -->
      <g transform="translate(45.9125 106.787454) scale(0.1 -0.1)">
       <use xlink:href="#DejaVuSans-32"/>
       <use xlink:href="#DejaVuSans-30" x="63.623047"/>
       <use xlink:href="#DejaVuSans-30" x="127.246094"/>
      </g>
     </g>
    </g>
    <g id="ytick_6">
     <g id="line2d_23">
      <path d="M 72 48.635294 
L 518.4 48.635294 
" clip-path="url(#p62bb0f2cc0)" style="fill: none; stroke: #b0b0b0; stroke-width: 0.8; stroke-linecap: square"/>
     </g>
     <g id="line2d_24">
      <g>
       <use xlink:href="#m0b950d10e9" x="72" y="48.635294" style="stroke: #000000; stroke-width: 0.8"/>
      </g>
     </g>
     <g id="text_13">
      <!-- 250 -->
      <g transform="translate(45.9125 52.434513) scale(0.1 -0.1)">
       <use xlink:href="#DejaVuSans-32"/>
       <use xlink:href="#DejaVuSans-35" x="63.623047"/>
       <use xlink:href="#DejaVuSans-30" x="127.246094"/>
      </g>
     </g>
    </g>
    <g id="text_14">
     <!-- Intensity (8-bit) -->
     <g transform="translate(39.832812 220.561719) rotate(-90) scale(0.1 -0.1)">
      <defs>
       <path id="DejaVuSans-49" d="M 628 4666 
L 1259 4666 
L 1259 0 
L 628 0 
L 628 4666 
z
" transform="scale(0.015625)"/>
       <path id="DejaVuSans-79" d="M 2059 -325 
Q 1816 -950 1584 -1140 
Q 1353 -1331 966 -1331 
L 506 -1331 
L 506 -850 
L 844 -850 
Q 1081 -850 1212 -737 
Q 1344 -625 1503 -206 
L 1606 56 
L 191 3500 
L 800 3500 
L 1894 763 
L 2988 3500 
L 3597 3500 
L 2059 -325 
z
" transform="scale(0.015625)"/>
       <path id="DejaVuSans-2d" d="M 313 2009 
L 1997 2009 
L 1997 1497 
L 313 1497 
L 313 2009 
z
" transform="scale(0.015625)"/>
       <path id="DejaVuSans-62" d="M 3116 1747 
Q 3116 2381 2855 2742 
Q 2594 3103 2138 3103 
Q 1681 3103 1420 2742 
Q 1159 2381 1159 1747 
Q 1159 1113 1420 752 
Q 1681 391 2138 391 
Q 2594 391 2855 752 
Q 3116 1113 3116 1747 
z
M 1159 2969 
Q 1341 3281 1617 3432 
Q 1894 3584 2278 3584 
Q 2916 3584 3314 3078 
Q 3713 2572 3713 1747 
Q 3713 922 3314 415 
Q 2916 -91 2278 -91 
Q 1894 -91 1617 61 
Q 1341 213 1159 525 
L 1159 0 
L 581 0 
L 581 4863 
L 1159 4863 
L 1159 2969 
z
" transform="scale(0.015625)"/>
      </defs>
      <use xlink:href="#DejaVuSans-49"/>
      <use xlink:href="#DejaVuSans-6e" x="29.492188"/>
      <use xlink:href="#DejaVuSans-74" x="92.871094"/>
      <use xlink:href="#DejaVuSans-65" x="132.080078"/>
      <use xlink:href="#DejaVuSans-6e" x="193.603516"/>
      <use xlink:href="#DejaVuSans-73" x="256.982422"/>
      <use xlink:href="#DejaVuSans-69" x="309.082031"/>
      <use xlink:href="#DejaVuSans-74" x="336.865234"/>
      <use xlink:href="#DejaVuSans-79" x="376.074219"/>
      <use xlink:href="#DejaVuSans-20" x="435.253906"/>
      <use xlink:href="#DejaVuSans-28" x="467.041016"/>
      <use xlink:href="#DejaVuSans-38" x="506.054688"/>
      <use xlink:href="#DejaVuSans-2d" x="569.677734"/>
      <use xlink:href="#DejaVuSans-62" x="605.761719"/>
      <use xlink:href="#DejaVuSans-69" x="669.238281"/>
      <use xlink:href="#DejaVuSans-74" x="697.021484"/>
      <use xlink:href="#DejaVuSans-29" x="736.230469"/>
     </g>
    </g>
   </g>
   <g id="line2d_25">
    <path d="M 72 48.635294 
L 76.464 49.722353 
L 80.928 50.809412 
L 85.392 52.983529 
L 89.856 54.070588 
L 94.32 56.244706 
L 98.784 58.418824 
L 103.248 61.68 
L 107.712 69.289412 
L 112.176 80.16 
L 116.64 98.64 
L 121.104 122.555294 
L 125.568 151.905882 
L 130.032 181.256471 
L 134.496 205.171765 
L 138.96 219.303529 
L 143.424 220.390588 
L 147.888 208.432941 
L 152.352 184.517647 
L 156.816 154.08 
L 161.28 122.555294 
L 165.744 95.378824 
L 170.208 74.724706 
L 174.672 60.592941 
L 179.136 51.896471 
L 183.6 47.548235 
L 188.064 45.374118 
L 192.528 44.287059 
L 196.992 44.287059 
L 201.456 45.374118 
L 205.92 48.635294 
L 210.384 54.070588 
L 214.848 63.854118 
L 219.312 77.985882 
L 223.776 99.727059 
L 228.24 126.903529 
L 232.704 157.341176 
L 237.168 185.604706 
L 241.632 208.432941 
L 246.096 219.303529 
L 250.56 217.129412 
L 255.024 202.997647 
L 259.488 177.995294 
L 263.952 149.731765 
L 268.416 120.381176 
L 272.88 95.378824 
L 277.344 75.811765 
L 281.808 62.767059 
L 286.272 55.157647 
L 290.736 50.809412 
L 295.2 49.722353 
L 299.664 51.896471 
L 304.128 56.244706 
L 308.592 66.028235 
L 313.056 80.16 
L 317.52 101.901176 
L 321.984 127.990588 
L 326.448 157.341176 
L 330.912 185.604706 
L 335.376 207.345882 
L 339.84 219.303529 
L 344.304 218.216471 
L 348.768 202.997647 
L 353.232 179.082353 
L 357.696 149.731765 
L 362.16 121.468235 
L 366.624 97.552941 
L 371.088 82.334118 
L 375.552 76.898824 
L 380.016 82.334118 
L 384.48 97.552941 
L 388.944 121.468235 
L 393.408 149.731765 
L 397.872 179.082353 
L 402.336 202.997647 
L 406.8 217.129412 
L 411.264 219.303529 
L 415.728 207.345882 
L 420.192 184.517647 
L 424.656 156.254118 
L 429.12 126.903529 
L 433.584 100.814118 
L 438.048 80.16 
L 442.512 66.028235 
L 446.976 56.244706 
L 451.44 51.896471 
L 455.904 49.722353 
L 460.368 50.809412 
L 464.832 55.157647 
L 469.296 62.767059 
L 473.76 75.811765 
L 478.224 95.378824 
L 482.688 120.381176 
L 487.152 149.731765 
L 491.616 177.995294 
L 496.08 202.997647 
L 500.544 217.129412 
L 505.008 219.303529 
L 509.472 208.432941 
L 513.936 185.604706 
L 518.4 157.341176 
L 522.864 127.990588 
L 527.328 101.901176 
L 531.792 83.421176 
L 536.256 73.637647 
" clip-path="url(#p62bb0f2cc0)" style="fill: none; stroke-dasharray: 1.5,2.475; stroke-dashoffset: 0; stroke: #0000ff; stroke-width: 1.5"/>
   </g>
   <g id="line2d_26">
    <path d="M 72 43.2 
L 76.464 44.287059 
L 80.928 44.287059 
L 85.392 44.287059 
L 89.856 44.287059 
L 94.32 45.374118 
L 98.784 46.461176 
L 103.248 50.809412 
L 107.712 58.418824 
L 112.176 71.463529 
L 116.64 89.943529 
L 121.104 116.032941 
L 125.568 146.470588 
L 130.032 176.908235 
L 134.496 202.997647 
L 138.96 218.216471 
L 143.424 219.303529 
L 147.888 207.345882 
L 152.352 183.430588 
L 156.816 154.08 
L 161.28 122.555294 
L 165.744 95.378824 
L 170.208 74.724706 
L 174.672 60.592941 
L 179.136 51.896471 
L 183.6 47.548235 
L 188.064 45.374118 
L 192.528 45.374118 
L 196.992 45.374118 
L 201.456 47.548235 
L 205.92 51.896471 
L 210.384 60.592941 
L 214.848 75.811765 
L 219.312 96.465882 
L 223.776 123.642353 
L 228.24 155.167059 
L 232.704 185.604706 
L 237.168 209.52 
L 241.632 222.564706 
L 246.096 221.477647 
L 250.56 206.258824 
L 255.024 181.256471 
L 259.488 149.731765 
L 263.952 119.294118 
L 268.416 93.204706 
L 272.88 72.550588 
L 277.344 59.505882 
L 281.808 51.896471 
L 286.272 47.548235 
L 290.736 45.374118 
L 295.2 45.374118 
L 299.664 45.374118 
L 304.128 47.548235 
L 308.592 52.983529 
L 313.056 61.68 
L 317.52 76.898824 
L 321.984 98.64 
L 326.448 125.816471 
L 330.912 157.341176 
L 335.376 187.778824 
L 339.84 211.694118 
L 344.304 222.564706 
L 348.768 220.390588 
L 353.232 205.171765 
L 357.696 179.082353 
L 362.16 150.818824 
L 366.624 123.642353 
L 371.088 106.249412 
L 375.552 99.727059 
L 380.016 106.249412 
L 384.48 124.729412 
L 388.944 150.818824 
L 393.408 180.169412 
L 397.872 205.171765 
L 402.336 220.390588 
L 406.8 222.564706 
L 411.264 210.607059 
L 415.728 187.778824 
L 420.192 157.341176 
L 424.656 125.816471 
L 429.12 98.64 
L 433.584 76.898824 
L 438.048 61.68 
L 442.512 52.983529 
L 446.976 47.548235 
L 451.44 45.374118 
L 455.904 45.374118 
L 460.368 45.374118 
L 464.832 47.548235 
L 469.296 51.896471 
L 473.76 59.505882 
L 478.224 73.637647 
L 482.688 93.204706 
L 487.152 119.294118 
L 491.616 149.731765 
L 496.08 181.256471 
L 500.544 206.258824 
L 505.008 221.477647 
L 509.472 222.564706 
L 513.936 209.52 
L 518.4 185.604706 
L 522.864 156.254118 
L 527.328 127.990588 
L 531.792 105.162353 
L 536.256 92.117647 
" clip-path="url(#p62bb0f2cc0)" style="fill: none; stroke-dasharray: 5.55,2.4; stroke-dashoffset: 0; stroke: #008000; stroke-width: 1.5"/>
   </g>
   <g id="line2d_27">
    <path d="M 72 45.374118 
L 76.464 46.461176 
L 80.928 46.461176 
L 85.392 47.548235 
L 89.856 49.722353 
L 94.32 51.896471 
L 98.784 54.070588 
L 103.248 59.505882 
L 107.712 67.115294 
L 112.176 80.16 
L 116.64 98.64 
L 121.104 123.642353 
L 125.568 151.905882 
L 130.032 182.343529 
L 134.496 206.258824 
L 138.96 221.477647 
L 143.424 223.651765 
L 147.888 211.694118 
L 152.352 188.865882 
L 156.816 159.515294 
L 161.28 130.164706 
L 165.744 104.075294 
L 170.208 83.421176 
L 174.672 69.289412 
L 179.136 60.592941 
L 183.6 55.157647 
L 188.064 51.896471 
L 192.528 49.722353 
L 196.992 48.635294 
L 201.456 48.635294 
L 205.92 48.635294 
L 210.384 51.896471 
L 214.848 59.505882 
L 219.312 70.376471 
L 223.776 88.856471 
L 228.24 112.771765 
L 232.704 141.035294 
L 237.168 169.298824 
L 241.632 195.388235 
L 246.096 212.781176 
L 250.56 218.216471 
L 255.024 211.694118 
L 259.488 193.214118 
L 263.952 168.211765 
L 268.416 141.035294 
L 272.88 114.945882 
L 277.344 93.204706 
L 281.808 76.898824 
L 286.272 67.115294 
L 290.736 60.592941 
L 295.2 59.505882 
L 299.664 61.68 
L 304.128 68.202353 
L 308.592 80.16 
L 313.056 98.64 
L 317.52 121.468235 
L 321.984 147.557647 
L 326.448 174.734118 
L 330.912 198.649412 
L 335.376 213.868235 
L 339.84 218.216471 
L 344.304 209.52 
L 348.768 189.952941 
L 353.232 162.776471 
L 357.696 133.425882 
L 362.16 107.336471 
L 366.624 85.595294 
L 371.088 72.550588 
L 375.552 68.202353 
L 380.016 72.550588 
L 384.48 85.595294 
L 388.944 107.336471 
L 393.408 133.425882 
L 397.872 162.776471 
L 402.336 189.952941 
L 406.8 209.52 
L 411.264 218.216471 
L 415.728 213.868235 
L 420.192 198.649412 
L 424.656 174.734118 
L 429.12 147.557647 
L 433.584 121.468235 
L 438.048 98.64 
L 442.512 80.16 
L 446.976 68.202353 
L 451.44 61.68 
L 455.904 59.505882 
L 460.368 60.592941 
L 464.832 67.115294 
L 469.296 76.898824 
L 473.76 93.204706 
L 478.224 114.945882 
L 482.688 141.035294 
L 487.152 168.211765 
L 491.616 193.214118 
L 496.08 211.694118 
L 500.544 218.216471 
L 505.008 212.781176 
L 509.472 195.388235 
L 513.936 169.298824 
L 518.4 141.035294 
L 522.864 112.771765 
L 527.328 89.943529 
L 531.792 73.637647 
L 536.256 66.028235 
" clip-path="url(#p62bb0f2cc0)" style="fill: none; stroke-dasharray: 9.6,2.4,1.5,2.4; stroke-dashoffset: 0; stroke: #ff0000; stroke-width: 1.5"/>
   </g>
   <g id="line2d_28">
    <path d="M 72 58.816528 
L 76.464 61.998164 
L 80.928 67.778135 
L 85.392 75.254978 
L 89.856 83.44769 
L 94.32 91.375265 
L 98.784 98.852109 
L 103.248 106.249412 
L 107.712 114.654232 
L 112.176 125.763443 
L 116.64 140.690617 
L 121.104 160.257676 
L 125.568 182.847288 
L 130.032 205.542956 
L 134.496 223.863874 
L 138.96 233.779971 
L 143.424 232.533831 
L 147.888 219.780775 
L 152.352 197.562353 
L 156.816 170.651019 
L 161.28 142.864735 
L 165.744 118.631277 
L 170.208 99.753572 
L 174.672 86.364189 
L 179.136 77.110933 
L 183.6 70.88023 
L 188.064 65.789613 
L 192.528 61.255782 
L 196.992 57.490846 
L 201.456 54.786456 
L 205.92 53.778938 
L 210.384 55.847001 
L 214.848 62.210273 
L 219.312 73.372511 
L 223.776 90.076098 
L 228.24 111.525624 
L 232.704 135.838623 
L 237.168 159.70089 
L 241.632 180.01033 
L 246.096 193.134577 
L 250.56 197.535839 
L 255.024 193.399713 
L 259.488 181.83977 
L 263.952 166.170215 
L 268.416 149.015897 
L 272.88 133.028178 
L 277.344 119.718336 
L 281.808 109.722697 
L 286.272 103.09429 
L 290.736 99.329354 
L 295.2 98.374864 
L 299.664 100.045222 
L 304.128 104.34043 
L 308.592 111.923329 
L 313.056 122.714376 
L 317.52 136.872654 
L 321.984 153.337618 
L 326.448 170.306341 
L 330.912 185.286542 
L 335.376 195.149613 
L 339.84 197.429785 
L 344.304 190.483214 
L 348.768 175.476499 
L 353.232 154.159541 
L 357.696 129.97911 
L 362.16 107.124362 
L 366.624 88.405739 
L 371.088 76.262496 
L 375.552 72.099857 
L 380.016 76.368551 
L 384.48 88.458766 
L 388.944 107.177389 
L 393.408 130.111679 
L 397.872 154.186055 
L 402.336 175.529527 
L 406.8 190.4567 
L 411.264 197.297217 
L 415.728 195.017044 
L 420.192 185.127461 
L 424.656 170.200287 
L 429.12 153.20505 
L 433.584 136.713572 
L 438.048 122.608321 
L 442.512 111.896815 
L 446.976 104.34043 
L 451.44 100.018709 
L 455.904 98.427891 
L 460.368 99.355868 
L 464.832 103.09429 
L 469.296 109.775725 
L 473.76 119.771363 
L 478.224 133.134232 
L 482.688 149.228006 
L 487.152 166.223242 
L 491.616 181.866284 
L 496.08 193.505768 
L 500.544 197.562353 
L 505.008 193.028522 
L 509.472 179.957303 
L 513.936 159.674376 
L 518.4 135.838623 
L 522.864 112.029383 
L 527.328 91.375265 
L 531.792 76.58066 
L 536.256 68.785653 
" clip-path="url(#p62bb0f2cc0)" style="fill: none; stroke: #000000; stroke-width: 1.5; stroke-linecap: square"/>
   </g>
   <g id="patch_3">
    <path d="M 72 320.4 
L 72 43.2 
" style="fill: none; stroke: #000000; stroke-width: 0.8; stroke-linejoin: miter; stroke-linecap: square"/>
   </g>
   <g id="patch_4">
    <path d="M 518.4 320.4 
L 518.4 43.2 
" style="fill: none; stroke: #000000; stroke-width: 0.8; stroke-linejoin: miter; stroke-linecap: square"/>
   </g>
   <g id="patch_5">
    <path d="M 72 320.4 
L 518.4 320.4 
" style="fill: none; stroke: #000000; stroke-width: 0.8; stroke-linejoin: miter; stroke-linecap: square"/>
   </g>
   <g id="patch_6">
    <path d="M 72 43.2 
L 518.4 43.2 
" style="fill: none; stroke: #000000; stroke-width: 0.8; stroke-linejoin: miter; stroke-linecap: square"/>
   </g>
   <g id="text_15">
    <!-- Student-ID:100 -->
    <g transform="translate(249.552188 37.2) scale(0.12 -0.12)">
     <defs>
      <path id="DejaVuSans-53" d="M 3425 4513 
L 3425 3897 
Q 3066 4069 2747 4153 
Q 2428 4238 2131 4238 
Q 1616 4238 1336 4038 
Q 1056 3838 1056 3469 
Q 1056 3159 1242 3001 
Q 1428 2844 1947 2747 
L 2328 2669 
Q 3034 2534 3370 2195 
Q 3706 1856 3706 1288 
Q 3706 609 3251 259 
Q 2797 -91 1919 -91 
Q 1588 -91 1214 -16 
Q 841 59 441 206 
L 441 856 
Q 825 641 1194 531 
Q 1563 422 1919 422 
Q 2459 422 2753 634 
Q 3047 847 3047 1241 
Q 3047 1584 2836 1778 
Q 2625 1972 2144 2069 
L 1759 2144 
Q 1053 2284 737 2584 
Q 422 2884 422 3419 
Q 422 4038 858 4394 
Q 1294 4750 2059 4750 
Q 2388 4750 2728 4690 
Q 3069 4631 3425 4513 
z
" transform="scale(0.015625)"/>
      <path id="DejaVuSans-44" d="M 1259 4147 
L 1259 519 
L 2022 519 
Q 2988 519 3436 956 
Q 3884 1394 3884 2338 
Q 3884 3275 3436 3711 
Q 2988 4147 2022 4147 
L 1259 4147 
z
M 628 4666 
L 1925 4666 
Q 3281 4666 3915 4102 
Q 4550 3538 4550 2338 
Q 4550 1131 3912 565 
Q 3275 0 1925 0 
L 628 0 
L 628 4666 
z
" transform="scale(0.015625)"/>
      <path id="DejaVuSans-3a" d="M 750 794 
L 1409 794 
L 1409 0 
L 750 0 
L 750 794 
z
M 750 3309 
L 1409 3309 
L 1409 2516 
L 750 2516 
L 750 3309 
z
" transform="scale(0.015625)"/>
     </defs>
     <use xlink:href="#DejaVuSans-53"/>
     <use xlink:href="#DejaVuSans-74" x="63.476562"/>
     <use xlink:href="#DejaVuSans-75" x="102.685547"/>
     <use xlink:href="#DejaVuSans-64" x="166.064453"/>
     <use xlink:href="#DejaVuSans-65" x="229.541016"/>
     <use xlink:href="#DejaVuSans-6e" x="291.064453"/>
     <use xlink:href="#DejaVuSans-74" x="354.443359"/>
     <use xlink:href="#DejaVuSans-2d" x="393.652344"/>
     <use xlink:href="#DejaVuSans-49" x="429.736328"/>
     <use xlink:href="#DejaVuSans-44" x="459.228516"/>
     <use xlink:href="#DejaVuSans-3a" x="536.230469"/>
     <use xlink:href="#DejaVuSans-31" x="569.921875"/>
     <use xlink:href="#DejaVuSans-30" x="633.544922"/>
     <use xlink:href="#DejaVuSans-30" x="697.167969"/>
    </g>
   </g>
   <g id="legend_1">
    <g id="patch_7">
     <path d="M 408.79375 315.4 
L 511.4 315.4 
Q 513.4 315.4 513.4 313.4 
L 513.4 255.6875 
Q 513.4 253.6875 511.4 253.6875 
L 408.79375 253.6875 
Q 406.79375 253.6875 406.79375 255.6875 
L 406.79375 313.4 
Q 406.79375 315.4 408.79375 315.4 
z
" style="fill: #ffffff; opacity: 0.8; stroke: #cccccc; stroke-linejoin: miter"/>
    </g>
    <g id="line2d_29">
     <path d="M 410.79375 261.785937 
L 420.79375 261.785937 
L 430.79375 261.785937 
" style="fill: none; stroke-dasharray: 1.5,2.475; stroke-dashoffset: 0; stroke: #0000ff; stroke-width: 1.5"/>
    </g>
    <g id="text_16">
     <!-- Row index: 10 -->
     <g transform="translate(438.79375 265.285937) scale(0.1 -0.1)">
      <defs>
       <path id="DejaVuSans-52" d="M 2841 2188 
Q 3044 2119 3236 1894 
Q 3428 1669 3622 1275 
L 4263 0 
L 3584 0 
L 2988 1197 
Q 2756 1666 2539 1819 
Q 2322 1972 1947 1972 
L 1259 1972 
L 1259 0 
L 628 0 
L 628 4666 
L 2053 4666 
Q 2853 4666 3247 4331 
Q 3641 3997 3641 3322 
Q 3641 2881 3436 2590 
Q 3231 2300 2841 2188 
z
M 1259 4147 
L 1259 2491 
L 2053 2491 
Q 2509 2491 2742 2702 
Q 2975 2913 2975 3322 
Q 2975 3731 2742 3939 
Q 2509 4147 2053 4147 
L 1259 4147 
z
" transform="scale(0.015625)"/>
       <path id="DejaVuSans-77" d="M 269 3500 
L 844 3500 
L 1563 769 
L 2278 3500 
L 2956 3500 
L 3675 769 
L 4391 3500 
L 4966 3500 
L 4050 0 
L 3372 0 
L 2619 2869 
L 1863 0 
L 1184 0 
L 269 3500 
z
" transform="scale(0.015625)"/>
      </defs>
      <use xlink:href="#DejaVuSans-52"/>
      <use xlink:href="#DejaVuSans-6f" x="64.982422"/>
      <use xlink:href="#DejaVuSans-77" x="126.164062"/>
      <use xlink:href="#DejaVuSans-20" x="207.951172"/>
      <use xlink:href="#DejaVuSans-69" x="239.738281"/>
      <use xlink:href="#DejaVuSans-6e" x="267.521484"/>
      <use xlink:href="#DejaVuSans-64" x="330.900391"/>
      <use xlink:href="#DejaVuSans-65" x="394.376953"/>
      <use xlink:href="#DejaVuSans-78" x="454.150391"/>
      <use xlink:href="#DejaVuSans-3a" x="513.330078"/>
      <use xlink:href="#DejaVuSans-20" x="547.021484"/>
      <use xlink:href="#DejaVuSans-31" x="578.808594"/>
      <use xlink:href="#DejaVuSans-30" x="642.431641"/>
     </g>
    </g>
    <g id="line2d_30">
     <path d="M 410.79375 276.464063 
L 420.79375 276.464063 
L 430.79375 276.464063 
" style="fill: none; stroke-dasharray: 5.55,2.4; stroke-dashoffset: 0; stroke: #008000; stroke-width: 1.5"/>
    </g>
    <g id="text_17">
     <!-- Row index: 20 -->
     <g transform="translate(438.79375 279.964063) scale(0.1 -0.1)">
      <use xlink:href="#DejaVuSans-52"/>
      <use xlink:href="#DejaVuSans-6f" x="64.982422"/>
      <use xlink:href="#DejaVuSans-77" x="126.164062"/>
      <use xlink:href="#DejaVuSans-20" x="207.951172"/>
      <use xlink:href="#DejaVuSans-69" x="239.738281"/>
      <use xlink:href="#DejaVuSans-6e" x="267.521484"/>
      <use xlink:href="#DejaVuSans-64" x="330.900391"/>
      <use xlink:href="#DejaVuSans-65" x="394.376953"/>
      <use xlink:href="#DejaVuSans-78" x="454.150391"/>
      <use xlink:href="#DejaVuSans-3a" x="513.330078"/>
      <use xlink:href="#DejaVuSans-20" x="547.021484"/>
      <use xlink:href="#DejaVuSans-32" x="578.808594"/>
      <use xlink:href="#DejaVuSans-30" x="642.431641"/>
     </g>
    </g>
    <g id="line2d_31">
     <path d="M 410.79375 291.142187 
L 420.79375 291.142187 
L 430.79375 291.142187 
" style="fill: none; stroke-dasharray: 9.6,2.4,1.5,2.4; stroke-dashoffset: 0; stroke: #ff0000; stroke-width: 1.5"/>
    </g>
    <g id="text_18">
     <!-- Row index: 30 -->
     <g transform="translate(438.79375 294.642187) scale(0.1 -0.1)">
      <defs>
       <path id="DejaVuSans-33" d="M 2597 2516 
Q 3050 2419 3304 2112 
Q 3559 1806 3559 1356 
Q 3559 666 3084 287 
Q 2609 -91 1734 -91 
Q 1441 -91 1130 -33 
Q 819 25 488 141 
L 488 750 
Q 750 597 1062 519 
Q 1375 441 1716 441 
Q 2309 441 2620 675 
Q 2931 909 2931 1356 
Q 2931 1769 2642 2001 
Q 2353 2234 1838 2234 
L 1294 2234 
L 1294 2753 
L 1863 2753 
Q 2328 2753 2575 2939 
Q 2822 3125 2822 3475 
Q 2822 3834 2567 4026 
Q 2313 4219 1838 4219 
Q 1578 4219 1281 4162 
Q 984 4106 628 3988 
L 628 4550 
Q 988 4650 1302 4700 
Q 1616 4750 1894 4750 
Q 2613 4750 3031 4423 
Q 3450 4097 3450 3541 
Q 3450 3153 3228 2886 
Q 3006 2619 2597 2516 
z
" transform="scale(0.015625)"/>
      </defs>
      <use xlink:href="#DejaVuSans-52"/>
      <use xlink:href="#DejaVuSans-6f" x="64.982422"/>
      <use xlink:href="#DejaVuSans-77" x="126.164062"/>
      <use xlink:href="#DejaVuSans-20" x="207.951172"/>
      <use xlink:href="#DejaVuSans-69" x="239.738281"/>
      <use xlink:href="#DejaVuSans-6e" x="267.521484"/>
      <use xlink:href="#DejaVuSans-64" x="330.900391"/>
      <use xlink:href="#DejaVuSans-65" x="394.376953"/>
      <use xlink:href="#DejaVuSans-78" x="454.150391"/>
      <use xlink:href="#DejaVuSans-3a" x="513.330078"/>
      <use xlink:href="#DejaVuSans-20" x="547.021484"/>
      <use xlink:href="#DejaVuSans-33" x="578.808594"/>
      <use xlink:href="#DejaVuSans-30" x="642.431641"/>
     </g>
    </g>
    <g id="line2d_32">
     <path d="M 410.79375 305.820312 
L 420.79375 305.820312 
L 430.79375 305.820312 
" style="fill: none; stroke: #000000; stroke-width: 1.5; stroke-linecap: square"/>
    </g>
    <g id="text_19">
     <!-- Row average -->
     <g transform="translate(438.79375 309.320312) scale(0.1 -0.1)">
      <defs>
       <path id="DejaVuSans-76" d="M 191 3500 
L 800 3500 
L 1894 563 
L 2988 3500 
L 3597 3500 
L 2284 0 
L 1503 0 
L 191 3500 
z
" transform="scale(0.015625)"/>
       <path id="DejaVuSans-67" d="M 2906 1791 
Q 2906 2416 2648 2759 
Q 2391 3103 1925 3103 
Q 1463 3103 1205 2759 
Q 947 2416 947 1791 
Q 947 1169 1205 825 
Q 1463 481 1925 481 
Q 2391 481 2648 825 
Q 2906 1169 2906 1791 
z
M 3481 434 
Q 3481 -459 3084 -895 
Q 2688 -1331 1869 -1331 
Q 1566 -1331 1297 -1286 
Q 1028 -1241 775 -1147 
L 775 -588 
Q 1028 -725 1275 -790 
Q 1522 -856 1778 -856 
Q 2344 -856 2625 -561 
Q 2906 -266 2906 331 
L 2906 616 
Q 2728 306 2450 153 
Q 2172 0 1784 0 
Q 1141 0 747 490 
Q 353 981 353 1791 
Q 353 2603 747 3093 
Q 1141 3584 1784 3584 
Q 2172 3584 2450 3431 
Q 2728 3278 2906 2969 
L 2906 3500 
L 3481 3500 
L 3481 434 
z
" transform="scale(0.015625)"/>
      </defs>
      <use xlink:href="#DejaVuSans-52"/>
      <use xlink:href="#DejaVuSans-6f" x="64.982422"/>
      <use xlink:href="#DejaVuSans-77" x="126.164062"/>
      <use xlink:href="#DejaVuSans-20" x="207.951172"/>
      <use xlink:href="#DejaVuSans-61" x="239.738281"/>
      <use xlink:href="#DejaVuSans-76" x="301.017578"/>
      <use xlink:href="#DejaVuSans-65" x="360.197266"/>
      <use xlink:href="#DejaVuSans-72" x="421.720703"/>
      <use xlink:href="#DejaVuSans-61" x="462.833984"/>
      <use xlink:href="#DejaVuSans-67" x="524.113281"/>
      <use xlink:href="#DejaVuSans-65" x="587.589844"/>
     </g>
    </g>
   </g>
  </g>
 </g>
 <defs>
  <clipPath id="p62bb0f2cc0">
   <rect x="72" y="43.2" width="446.4" height="277.2"/>
  </clipPath>
 </defs>
</svg>
