<?xml version="1.0" encoding="utf-8" standalone="no"?>
<!DOCTYPE svg PUBLIC "-//W3C//DTD SVG 1.1//EN"
  "http://www.w3.org/Graphics/SVG/1.1/DTD/svg11.dtd">
<svg xmlns:xlink="http://www.w3.org/1999/xlink" width="720pt" height="504pt" viewBox="0 0 720 504" xmlns="http://www.w3.org/2000/svg" version="1.1">
 <metadata>
  <rdf:RDF xmlns:dc="http://purl.org/dc/elements/1.1/" xmlns:cc="http://creativecommons.org/ns#" xmlns:rdf="http://www.w3.org/1999/02/22-rdf-syntax-ns#">
   <cc:Work>
    <dc:type rdf:resource="http://purl.org/dc/dcmitype/StillImage"/>
    <dc:date>2022-11-11T22:08:21.399641</dc:date>
    <dc:format>image/svg+xml</dc:format>
    <dc:creator>
     <cc:Agent>
      <dc:title>Matplotlib v3.6.0, https://matplotlib.org/</dc:title>
     </cc:Agent>
    </dc:creator>
   </cc:Work>
  </rdf:RDF>
 </metadata>
 <defs>
  <style type="text/css">*{stroke-linejoin: round; stroke-linecap: butt}</style>
 </defs>
 <g id="figure_1">
  <g id="patch_1">
   <path d="M 0 504 
L 720 504 
L 720 0 
L 0 0 
z
" style="fill: #ffffff"/>
  </g>
  <g id="axes_1">
   <g id="patch_2">
    <path d="M 90 236.88 
L 343.636364 236.88 
L 343.636364 60.48 
L 90 60.48 
z
" style="fill: #ffffff"/>
   </g>
   <g id="matplotlib.axis_1">
    <g id="xtick_1">
     <g id="line2d_1">
      <defs>
       <path id="mb84fbc31ed" d="M 0 0 
L 0 3.5 
" style="stroke: #000000; stroke-width: 0.8"/>
      </defs>
      <g>
       <use xlink:href="#mb84fbc31ed" x="90" y="236.88" style="stroke: #000000; stroke-width: 0.8"/>
      </g>
     </g>
     <g id="text_1">
      <!-- 0 -->
      <g transform="translate(86.81875 251.478437) scale(0.1 -0.1)">
       <defs>
        <path id="DejaVuSans-30" d="M 2034 4250 
Q 1547 4250 1301 3770 
Q 1056 3291 1056 2328 
Q 1056 1369 1301 889 
Q 1547 409 2034 409 
Q 2525 409 2770 889 
Q 3016 1369 3016 2328 
Q 3016 3291 2770 3770 
Q 2525 4250 2034 4250 
z
M 2034 4750 
Q 2819 4750 3233 4129 
Q 3647 3509 3647 2328 
Q 3647 1150 3233 529 
Q 2819 -91 2034 -91 
Q 1250 -91 836 529 
Q 422 1150 422 2328 
Q 422 3509 836 4129 
Q 1250 4750 2034 4750 
z
" transform="scale(0.015625)"/>
       </defs>
       <use xlink:href="#DejaVuSans-30"/>
      </g>
     </g>
    </g>
    <g id="xtick_2">
     <g id="line2d_2">
      <g>
       <use xlink:href="#mb84fbc31ed" x="140.727273" y="236.88" style="stroke: #000000; stroke-width: 0.8"/>
      </g>
     </g>
     <g id="text_2">
      <!-- 20 -->
      <g transform="translate(134.364773 251.478437) scale(0.1 -0.1)">
       <defs>
        <path id="DejaVuSans-32" d="M 1228 531 
L 3431 531 
L 3431 0 
L 469 0 
L 469 531 
Q 828 903 1448 1529 
Q 2069 2156 2228 2338 
Q 2531 2678 2651 2914 
Q 2772 3150 2772 3378 
Q 2772 3750 2511 3984 
Q 2250 4219 1831 4219 
Q 1534 4219 1204 4116 
Q 875 4013 500 3803 
L 500 4441 
Q 881 4594 1212 4672 
Q 1544 4750 1819 4750 
Q 2544 4750 2975 4387 
Q 3406 4025 3406 3419 
Q 3406 3131 3298 2873 
Q 3191 2616 2906 2266 
Q 2828 2175 2409 1742 
Q 1991 1309 1228 531 
z
" transform="scale(0.015625)"/>
       </defs>
       <use xlink:href="#DejaVuSans-32"/>
       <use xlink:href="#DejaVuSans-30" x="63.623047"/>
      </g>
     </g>
    </g>
    <g id="xtick_3">
     <g id="line2d_3">
      <g>
       <use xlink:href="#mb84fbc31ed" x="191.454545" y="236.88" style="stroke: #000000; stroke-width: 0.8"/>
      </g>
     </g>
     <g id="text_3">
      <!-- 40 -->
      <g transform="translate(185.092045 251.478437) scale(0.1 -0.1)">
       <defs>
        <path id="DejaVuSans-34" d="M 2419 4116 
L 825 1625 
L 2419 1625 
L 2419 4116 
z
M 2253 4666 
L 3047 4666 
L 3047 1625 
L 3713 1625 
L 3713 1100 
L 3047 1100 
L 3047 0 
L 2419 0 
L 2419 1100 
L 313 1100 
L 313 1709 
L 2253 4666 
z
" transform="scale(0.015625)"/>
       </defs>
       <use xlink:href="#DejaVuSans-34"/>
       <use xlink:href="#DejaVuSans-30" x="63.623047"/>
      </g>
     </g>
    </g>
    <g id="xtick_4">
     <g id="line2d_4">
      <g>
       <use xlink:href="#mb84fbc31ed" x="242.181818" y="236.88" style="stroke: #000000; stroke-width: 0.8"/>
      </g>
     </g>
     <g id="text_4">
      <!-- 60 -->
      <g transform="translate(235.819318 251.478437) scale(0.1 -0.1)">
       <defs>
        <path id="DejaVuSans-36" d="M 2113 2584 
Q 1688 2584 1439 2293 
Q 1191 2003 1191 1497 
Q 1191 994 1439 701 
Q 1688 409 2113 409 
Q 2538 409 2786 701 
Q 3034 994 3034 1497 
Q 3034 2003 2786 2293 
Q 2538 2584 2113 2584 
z
M 3366 4563 
L 3366 3988 
Q 3128 4100 2886 4159 
Q 2644 4219 2406 4219 
Q 1781 4219 1451 3797 
Q 1122 3375 1075 2522 
Q 1259 2794 1537 2939 
Q 1816 3084 2150 3084 
Q 2853 3084 3261 2657 
Q 3669 2231 3669 1497 
Q 3669 778 3244 343 
Q 2819 -91 2113 -91 
Q 1303 -91 875 529 
Q 447 1150 447 2328 
Q 447 3434 972 4092 
Q 1497 4750 2381 4750 
Q 2619 4750 2861 4703 
Q 3103 4656 3366 4563 
z
" transform="scale(0.015625)"/>
       </defs>
       <use xlink:href="#DejaVuSans-36"/>
       <use xlink:href="#DejaVuSans-30" x="63.623047"/>
      </g>
     </g>
    </g>
    <g id="xtick_5">
     <g id="line2d_5">
      <g>
       <use xlink:href="#mb84fbc31ed" x="292.909091" y="236.88" style="stroke: #000000; stroke-width: 0.8"/>
      </g>
     </g>
     <g id="text_5">
      <!-- 80 -->
      <g transform="translate(286.546591 251.478437) scale(0.1 -0.1)">
       <defs>
        <path id="DejaVuSans-38" d="M 2034 2216 
Q 1584 2216 1326 1975 
Q 1069 1734 1069 1313 
Q 1069 891 1326 650 
Q 1584 409 2034 409 
Q 2484 409 2743 651 
Q 3003 894 3003 1313 
Q 3003 1734 2745 1975 
Q 2488 2216 2034 2216 
z
M 1403 2484 
Q 997 2584 770 2862 
Q 544 3141 544 3541 
Q 544 4100 942 4425 
Q 1341 4750 2034 4750 
Q 2731 4750 3128 4425 
Q 3525 4100 3525 3541 
Q 3525 3141 3298 2862 
Q 3072 2584 2669 2484 
Q 3125 2378 3379 2068 
Q 3634 1759 3634 1313 
Q 3634 634 3220 271 
Q 2806 -91 2034 -91 
Q 1263 -91 848 271 
Q 434 634 434 1313 
Q 434 1759 690 2068 
Q 947 2378 1403 2484 
z
M 1172 3481 
Q 1172 3119 1398 2916 
Q 1625 2713 2034 2713 
Q 2441 2713 2670 2916 
Q 2900 3119 2900 3481 
Q 2900 3844 2670 4047 
Q 2441 4250 2034 4250 
Q 1625 4250 1398 4047 
Q 1172 3844 1172 3481 
z
" transform="scale(0.015625)"/>
       </defs>
       <use xlink:href="#DejaVuSans-38"/>
       <use xlink:href="#DejaVuSans-30" x="63.623047"/>
      </g>
     </g>
    </g>
    <g id="xtick_6">
     <g id="line2d_6">
      <g>
       <use xlink:href="#mb84fbc31ed" x="343.636364" y="236.88" style="stroke: #000000; stroke-width: 0.8"/>
      </g>
     </g>
     <g id="text_6">
      <!-- 100 -->
      <g transform="translate(334.092614 251.478437) scale(0.1 -0.1)">
       <defs>
        <path id="DejaVuSans-31" d="M 794 531 
L 1825 531 
L 1825 4091 
L 703 3866 
L 703 4441 
L 1819 4666 
L 2450 4666 
L 2450 531 
L 3481 531 
L 3481 0 
L 794 0 
L 794 531 
z
" transform="scale(0.015625)"/>
       </defs>
       <use xlink:href="#DejaVuSans-31"/>
       <use xlink:href="#DejaVuSans-30" x="63.623047"/>
       <use xlink:href="#DejaVuSans-30" x="127.246094"/>
      </g>
     </g>
    </g>
   </g>
   <g id="matplotlib.axis_2">
    <g id="ytick_1">
     <g id="line2d_7">
      <defs>
       <path id="m6d19c74a29" d="M 0 0 
L -3.5 0 
" style="stroke: #000000; stroke-width: 0.8"/>
      </defs>
      <g>
       <use xlink:href="#m6d19c74a29" x="90" y="236.88" style="stroke: #000000; stroke-width: 0.8"/>
      </g>
     </g>
     <g id="text_7">
      <!-- 0 -->
      <g transform="translate(76.6375 240.679219) scale(0.1 -0.1)">
       <use xlink:href="#DejaVuSans-30"/>
      </g>
     </g>
    </g>
    <g id="ytick_2">
     <g id="line2d_8">
      <g>
       <use xlink:href="#m6d19c74a29" x="90" y="202.291765" style="stroke: #000000; stroke-width: 0.8"/>
      </g>
     </g>
     <g id="text_8">
      <!-- 50 -->
      <g transform="translate(70.275 206.090983) scale(0.1 -0.1)">
       <defs>
        <path id="DejaVuSans-35" d="M 691 4666 
L 3169 4666 
L 3169 4134 
L 1269 4134 
L 1269 2991 
Q 1406 3038 1543 3061 
Q 1681 3084 1819 3084 
Q 2600 3084 3056 2656 
Q 3513 2228 3513 1497 
Q 3513 744 3044 326 
Q 2575 -91 1722 -91 
Q 1428 -91 1123 -41 
Q 819 9 494 109 
L 494 744 
Q 775 591 1075 516 
Q 1375 441 1709 441 
Q 2250 441 2565 725 
Q 2881 1009 2881 1497 
Q 2881 1984 2565 2268 
Q 2250 2553 1709 2553 
Q 1456 2553 1204 2497 
Q 953 2441 691 2322 
L 691 4666 
z
" transform="scale(0.015625)"/>
       </defs>
       <use xlink:href="#DejaVuSans-35"/>
       <use xlink:href="#DejaVuSans-30" x="63.623047"/>
      </g>
     </g>
    </g>
    <g id="ytick_3">
     <g id="line2d_9">
      <g>
       <use xlink:href="#m6d19c74a29" x="90" y="167.703529" style="stroke: #000000; stroke-width: 0.8"/>
      </g>
     </g>
     <g id="text_9">
      <!-- 100 -->
      <g transform="translate(63.9125 171.502748) scale(0.1 -0.1)">
       <use xlink:href="#DejaVuSans-31"/>
       <use xlink:href="#DejaVuSans-30" x="63.623047"/>
       <use xlink:href="#DejaVuSans-30" x="127.246094"/>
      </g>
     </g>
    </g>
    <g id="ytick_4">
     <g id="line2d_10">
      <g>
       <use xlink:href="#m6d19c74a29" x="90" y="133.115294" style="stroke: #000000; stroke-width: 0.8"/>
      </g>
     </g>
     <g id="text_10">
      <!-- 150 -->
      <g transform="translate(63.9125 136.914513) scale(0.1 -0.1)">
       <use xlink:href="#DejaVuSans-31"/>
       <use xlink:href="#DejaVuSans-35" x="63.623047"/>
       <use xlink:href="#DejaVuSans-30" x="127.246094"/>
      </g>
     </g>
    </g>
    <g id="ytick_5">
     <g id="line2d_11">
      <g>
       <use xlink:href="#m6d19c74a29" x="90" y="98.527059" style="stroke: #000000; stroke-width: 0.8"/>
      </g>
     </g>
     <g id="text_11">
      <!-- 200 -->
      <g transform="translate(63.9125 102.326278) scale(0.1 -0.1)">
       <use xlink:href="#DejaVuSans-32"/>
       <use xlink:href="#DejaVuSans-30" x="63.623047"/>
       <use xlink:href="#DejaVuSans-30" x="127.246094"/>
      </g>
     </g>
    </g>
    <g id="ytick_6">
     <g id="line2d_12">
      <g>
       <use xlink:href="#m6d19c74a29" x="90" y="63.938824" style="stroke: #000000; stroke-width: 0.8"/>
      </g>
     </g>
     <g id="text_12">
      <!-- 250 -->
      <g transform="translate(63.9125 67.738042) scale(0.1 -0.1)">
       <use xlink:href="#DejaVuSans-32"/>
       <use xlink:href="#DejaVuSans-35" x="63.623047"/>
       <use xlink:href="#DejaVuSans-30" x="127.246094"/>
      </g>
     </g>
    </g>
    <g id="text_13">
     <!-- Intensity (8-bit) -->
     <g transform="translate(57.832812 187.441719) rotate(-90) scale(0.1 -0.1)">
      <defs>
       <path id="DejaVuSans-49" d="M 628 4666 
L 1259 4666 
L 1259 0 
L 628 0 
L 628 4666 
z
" transform="scale(0.015625)"/>
       <path id="DejaVuSans-6e" d="M 3513 2113 
L 3513 0 
L 2938 0 
L 2938 2094 
Q 2938 2591 2744 2837 
Q 2550 3084 2163 3084 
Q 1697 3084 1428 2787 
Q 1159 2491 1159 1978 
L 1159 0 
L 581 0 
L 581 3500 
L 1159 3500 
L 1159 2956 
Q 1366 3272 1645 3428 
Q 1925 3584 2291 3584 
Q 2894 3584 3203 3211 
Q 3513 2838 3513 2113 
z
" transform="scale(0.015625)"/>
       <path id="DejaVuSans-74" d="M 1172 4494 
L 1172 3500 
L 2356 3500 
L 2356 3053 
L 1172 3053 
L 1172 1153 
Q 1172 725 1289 603 
Q 1406 481 1766 481 
L 2356 481 
L 2356 0 
L 1766 0 
Q 1100 0 847 248 
Q 594 497 594 1153 
L 594 3053 
L 172 3053 
L 172 3500 
L 594 3500 
L 594 4494 
L 1172 4494 
z
" transform="scale(0.015625)"/>
       <path id="DejaVuSans-65" d="M 3597 1894 
L 3597 1613 
L 953 1613 
Q 991 1019 1311 708 
Q 1631 397 2203 397 
Q 2534 397 2845 478 
Q 3156 559 3463 722 
L 3463 178 
Q 3153 47 2828 -22 
Q 2503 -91 2169 -91 
Q 1331 -91 842 396 
Q 353 884 353 1716 
Q 353 2575 817 3079 
Q 1281 3584 2069 3584 
Q 2775 3584 3186 3129 
Q 3597 2675 3597 1894 
z
M 3022 2063 
Q 3016 2534 2758 2815 
Q 2500 3097 2075 3097 
Q 1594 3097 1305 2825 
Q 1016 2553 972 2059 
L 3022 2063 
z
" transform="scale(0.015625)"/>
       <path id="DejaVuSans-73" d="M 2834 3397 
L 2834 2853 
Q 2591 2978 2328 3040 
Q 2066 3103 1784 3103 
Q 1356 3103 1142 2972 
Q 928 2841 928 2578 
Q 928 2378 1081 2264 
Q 1234 2150 1697 2047 
L 1894 2003 
Q 2506 1872 2764 1633 
Q 3022 1394 3022 966 
Q 3022 478 2636 193 
Q 2250 -91 1575 -91 
Q 1294 -91 989 -36 
Q 684 19 347 128 
L 347 722 
Q 666 556 975 473 
Q 1284 391 1588 391 
Q 1994 391 2212 530 
Q 2431 669 2431 922 
Q 2431 1156 2273 1281 
Q 2116 1406 1581 1522 
L 1381 1569 
Q 847 1681 609 1914 
Q 372 2147 372 2553 
Q 372 3047 722 3315 
Q 1072 3584 1716 3584 
Q 2034 3584 2315 3537 
Q 2597 3491 2834 3397 
z
" transform="scale(0.015625)"/>
       <path id="DejaVuSans-69" d="M 603 3500 
L 1178 3500 
L 1178 0 
L 603 0 
L 603 3500 
z
M 603 4863 
L 1178 4863 
L 1178 4134 
L 603 4134 
L 603 4863 
z
" transform="scale(0.015625)"/>
       <path id="DejaVuSans-79" d="M 2059 -325 
Q 1816 -950 1584 -1140 
Q 1353 -1331 966 -1331 
L 506 -1331 
L 506 -850 
L 844 -850 
Q 1081 -850 1212 -737 
Q 1344 -625 1503 -206 
L 1606 56 
L 191 3500 
L 800 3500 
L 1894 763 
L 2988 3500 
L 3597 3500 
L 2059 -325 
z
" transform="scale(0.015625)"/>
       <path id="DejaVuSans-20" transform="scale(0.015625)"/>
       <path id="DejaVuSans-28" d="M 1984 4856 
Q 1566 4138 1362 3434 
Q 1159 2731 1159 2009 
Q 1159 1288 1364 580 
Q 1569 -128 1984 -844 
L 1484 -844 
Q 1016 -109 783 600 
Q 550 1309 550 2009 
Q 550 2706 781 3412 
Q 1013 4119 1484 4856 
L 1984 4856 
z
" transform="scale(0.015625)"/>
       <path id="DejaVuSans-2d" d="M 313 2009 
L 1997 2009 
L 1997 1497 
L 313 1497 
L 313 2009 
z
" transform="scale(0.015625)"/>
       <path id="DejaVuSans-62" d="M 3116 1747 
Q 3116 2381 2855 2742 
Q 2594 3103 2138 3103 
Q 1681 3103 1420 2742 
Q 1159 2381 1159 1747 
Q 1159 1113 1420 752 
Q 1681 391 2138 391 
Q 2594 391 2855 752 
Q 3116 1113 3116 1747 
z
M 1159 2969 
Q 1341 3281 1617 3432 
Q 1894 3584 2278 3584 
Q 2916 3584 3314 3078 
Q 3713 2572 3713 1747 
Q 3713 922 3314 415 
Q 2916 -91 2278 -91 
Q 1894 -91 1617 61 
Q 1341 213 1159 525 
L 1159 0 
L 581 0 
L 581 4863 
L 1159 4863 
L 1159 2969 
z
" transform="scale(0.015625)"/>
       <path id="DejaVuSans-29" d="M 513 4856 
L 1013 4856 
Q 1481 4119 1714 3412 
Q 1947 2706 1947 2009 
Q 1947 1309 1714 600 
Q 1481 -109 1013 -844 
L 513 -844 
Q 928 -128 1133 580 
Q 1338 1288 1338 2009 
Q 1338 2731 1133 3434 
Q 928 4138 513 4856 
z
" transform="scale(0.015625)"/>
      </defs>
      <use xlink:href="#DejaVuSans-49"/>
      <use xlink:href="#DejaVuSans-6e" x="29.492188"/>
      <use xlink:href="#DejaVuSans-74" x="92.871094"/>
      <use xlink:href="#DejaVuSans-65" x="132.080078"/>
      <use xlink:href="#DejaVuSans-6e" x="193.603516"/>
      <use xlink:href="#DejaVuSans-73" x="256.982422"/>
      <use xlink:href="#DejaVuSans-69" x="309.082031"/>
      <use xlink:href="#DejaVuSans-74" x="336.865234"/>
      <use xlink:href="#DejaVuSans-79" x="376.074219"/>
      <use xlink:href="#DejaVuSans-20" x="435.253906"/>
      <use xlink:href="#DejaVuSans-28" x="467.041016"/>
      <use xlink:href="#DejaVuSans-38" x="506.054688"/>
      <use xlink:href="#DejaVuSans-2d" x="569.677734"/>
      <use xlink:href="#DejaVuSans-62" x="605.761719"/>
      <use xlink:href="#DejaVuSans-69" x="669.238281"/>
      <use xlink:href="#DejaVuSans-74" x="697.021484"/>
      <use xlink:href="#DejaVuSans-29" x="736.230469"/>
     </g>
    </g>
   </g>
   <g id="line2d_13">
    <path d="M 90 63.938824 
L 92.536364 64.630588 
L 95.072727 65.322353 
L 97.609091 66.705882 
L 100.145455 67.397647 
L 102.681818 68.781176 
L 105.218182 70.164706 
L 107.754545 72.24 
L 110.290909 77.082353 
L 112.827273 84 
L 115.363636 95.76 
L 117.9 110.978824 
L 120.436364 129.656471 
L 122.972727 148.334118 
L 125.509091 163.552941 
L 128.045455 172.545882 
L 130.581818 173.237647 
L 133.118182 165.628235 
L 135.654545 150.409412 
L 138.190909 131.04 
L 140.727273 110.978824 
L 143.263636 93.684706 
L 145.8 80.541176 
L 148.336364 71.548235 
L 150.872727 66.014118 
L 153.409091 63.247059 
L 155.945455 61.863529 
L 158.481818 61.171765 
L 161.018182 61.171765 
L 163.554545 61.863529 
L 166.090909 63.938824 
L 168.627273 67.397647 
L 171.163636 73.623529 
L 173.7 82.616471 
L 176.236364 96.451765 
L 178.772727 113.745882 
L 181.309091 133.115294 
L 183.845455 151.101176 
L 186.381818 165.628235 
L 188.918182 172.545882 
L 191.454545 171.162353 
L 193.990909 162.169412 
L 196.527273 146.258824 
L 199.063636 128.272941 
L 201.6 109.595294 
L 204.136364 93.684706 
L 206.672727 81.232941 
L 209.209091 72.931765 
L 211.745455 68.089412 
L 214.281818 65.322353 
L 216.818182 64.630588 
L 219.354545 66.014118 
L 221.890909 68.781176 
L 224.427273 75.007059 
L 226.963636 84 
L 229.5 97.835294 
L 232.036364 114.437647 
L 234.572727 133.115294 
L 237.109091 151.101176 
L 239.645455 164.936471 
L 242.181818 172.545882 
L 244.718182 171.854118 
L 247.254545 162.169412 
L 249.790909 146.950588 
L 252.327273 128.272941 
L 254.863636 110.287059 
L 257.4 95.068235 
L 259.936364 85.383529 
L 262.472727 81.924706 
L 265.009091 85.383529 
L 267.545455 95.068235 
L 270.081818 110.287059 
L 272.618182 128.272941 
L 275.154545 146.950588 
L 277.690909 162.169412 
L 280.227273 171.162353 
L 282.763636 172.545882 
L 285.3 164.936471 
L 287.836364 150.409412 
L 290.372727 132.423529 
L 292.909091 113.745882 
L 295.445455 97.143529 
L 297.981818 84 
L 300.518182 75.007059 
L 303.054545 68.781176 
L 305.590909 66.014118 
L 308.127273 64.630588 
L 310.663636 65.322353 
L 313.2 68.089412 
L 315.736364 72.931765 
L 318.272727 81.232941 
L 320.809091 93.684706 
L 323.345455 109.595294 
L 325.881818 128.272941 
L 328.418182 146.258824 
L 330.954545 162.169412 
L 333.490909 171.162353 
L 336.027273 172.545882 
L 338.563636 165.628235 
L 341.1 151.101176 
L 343.636364 133.115294 
L 346.172727 114.437647 
L 348.709091 97.835294 
L 351.245455 86.075294 
L 353.781818 79.849412 
" clip-path="url(#pce5eaa31fa)" style="fill: none; stroke-dasharray: 1.5,2.475; stroke-dashoffset: 0; stroke: #0000ff; stroke-width: 1.5"/>
   </g>
   <g id="patch_3">
    <path d="M 90 236.88 
L 90 60.48 
" style="fill: none; stroke: #000000; stroke-width: 0.8; stroke-linejoin: miter; stroke-linecap: square"/>
   </g>
   <g id="patch_4">
    <path d="M 343.636364 236.88 
L 343.636364 60.48 
" style="fill: none; stroke: #000000; stroke-width: 0.8; stroke-linejoin: miter; stroke-linecap: square"/>
   </g>
   <g id="patch_5">
    <path d="M 90 236.88 
L 343.636364 236.88 
" style="fill: none; stroke: #000000; stroke-width: 0.8; stroke-linejoin: miter; stroke-linecap: square"/>
   </g>
   <g id="patch_6">
    <path d="M 90 60.48 
L 343.636364 60.48 
" style="fill: none; stroke: #000000; stroke-width: 0.8; stroke-linejoin: miter; stroke-linecap: square"/>
   </g>
   <g id="text_14">
    <!-- Row index: 10 (student-ID: 100) -->
    <g transform="translate(120.994432 54.48) scale(0.12 -0.12)">
     <defs>
      <path id="DejaVuSans-52" d="M 2841 2188 
Q 3044 2119 3236 1894 
Q 3428 1669 3622 1275 
L 4263 0 
L 3584 0 
L 2988 1197 
Q 2756 1666 2539 1819 
Q 2322 1972 1947 1972 
L 1259 1972 
L 1259 0 
L 628 0 
L 628 4666 
L 2053 4666 
Q 2853 4666 3247 4331 
Q 3641 3997 3641 3322 
Q 3641 2881 3436 2590 
Q 3231 2300 2841 2188 
z
M 1259 4147 
L 1259 2491 
L 2053 2491 
Q 2509 2491 2742 2702 
Q 2975 2913 2975 3322 
Q 2975 3731 2742 3939 
Q 2509 4147 2053 4147 
L 1259 4147 
z
" transform="scale(0.015625)"/>
      <path id="DejaVuSans-6f" d="M 1959 3097 
Q 1497 3097 1228 2736 
Q 959 2375 959 1747 
Q 959 1119 1226 758 
Q 1494 397 1959 397 
Q 2419 397 2687 759 
Q 2956 1122 2956 1747 
Q 2956 2369 2687 2733 
Q 2419 3097 1959 3097 
z
M 1959 3584 
Q 2709 3584 3137 3096 
Q 3566 2609 3566 1747 
Q 3566 888 3137 398 
Q 2709 -91 1959 -91 
Q 1206 -91 779 398 
Q 353 888 353 1747 
Q 353 2609 779 3096 
Q 1206 3584 1959 3584 
z
" transform="scale(0.015625)"/>
      <path id="DejaVuSans-77" d="M 269 3500 
L 844 3500 
L 1563 769 
L 2278 3500 
L 2956 3500 
L 3675 769 
L 4391 3500 
L 4966 3500 
L 4050 0 
L 3372 0 
L 2619 2869 
L 1863 0 
L 1184 0 
L 269 3500 
z
" transform="scale(0.015625)"/>
      <path id="DejaVuSans-64" d="M 2906 2969 
L 2906 4863 
L 3481 4863 
L 3481 0 
L 2906 0 
L 2906 525 
Q 2725 213 2448 61 
Q 2172 -91 1784 -91 
Q 1150 -91 751 415 
Q 353 922 353 1747 
Q 353 2572 751 3078 
Q 1150 3584 1784 3584 
Q 2172 3584 2448 3432 
Q 2725 3281 2906 2969 
z
M 947 1747 
Q 947 1113 1208 752 
Q 1469 391 1925 391 
Q 2381 391 2643 752 
Q 2906 1113 2906 1747 
Q 2906 2381 2643 2742 
Q 2381 3103 1925 3103 
Q 1469 3103 1208 2742 
Q 947 2381 947 1747 
z
" transform="scale(0.015625)"/>
      <path id="DejaVuSans-78" d="M 3513 3500 
L 2247 1797 
L 3578 0 
L 2900 0 
L 1881 1375 
L 863 0 
L 184 0 
L 1544 1831 
L 300 3500 
L 978 3500 
L 1906 2253 
L 2834 3500 
L 3513 3500 
z
" transform="scale(0.015625)"/>
      <path id="DejaVuSans-3a" d="M 750 794 
L 1409 794 
L 1409 0 
L 750 0 
L 750 794 
z
M 750 3309 
L 1409 3309 
L 1409 2516 
L 750 2516 
L 750 3309 
z
" transform="scale(0.015625)"/>
      <path id="DejaVuSans-75" d="M 544 1381 
L 544 3500 
L 1119 3500 
L 1119 1403 
Q 1119 906 1312 657 
Q 1506 409 1894 409 
Q 2359 409 2629 706 
Q 2900 1003 2900 1516 
L 2900 3500 
L 3475 3500 
L 3475 0 
L 2900 0 
L 2900 538 
Q 2691 219 2414 64 
Q 2138 -91 1772 -91 
Q 1169 -91 856 284 
Q 544 659 544 1381 
z
M 1991 3584 
L 1991 3584 
z
" transform="scale(0.015625)"/>
      <path id="DejaVuSans-44" d="M 1259 4147 
L 1259 519 
L 2022 519 
Q 2988 519 3436 956 
Q 3884 1394 3884 2338 
Q 3884 3275 3436 3711 
Q 2988 4147 2022 4147 
L 1259 4147 
z
M 628 4666 
L 1925 4666 
Q 3281 4666 3915 4102 
Q 4550 3538 4550 2338 
Q 4550 1131 3912 565 
Q 3275 0 1925 0 
L 628 0 
L 628 4666 
z
" transform="scale(0.015625)"/>
     </defs>
     <use xlink:href="#DejaVuSans-52"/>
     <use xlink:href="#DejaVuSans-6f" x="64.982422"/>
     <use xlink:href="#DejaVuSans-77" x="126.164062"/>
     <use xlink:href="#DejaVuSans-20" x="207.951172"/>
     <use xlink:href="#DejaVuSans-69" x="239.738281"/>
     <use xlink:href="#DejaVuSans-6e" x="267.521484"/>
     <use xlink:href="#DejaVuSans-64" x="330.900391"/>
     <use xlink:href="#DejaVuSans-65" x="394.376953"/>
     <use xlink:href="#DejaVuSans-78" x="454.150391"/>
     <use xlink:href="#DejaVuSans-3a" x="513.330078"/>
     <use xlink:href="#DejaVuSans-20" x="547.021484"/>
     <use xlink:href="#DejaVuSans-31" x="578.808594"/>
     <use xlink:href="#DejaVuSans-30" x="642.431641"/>
     <use xlink:href="#DejaVuSans-20" x="706.054688"/>
     <use xlink:href="#DejaVuSans-28" x="737.841797"/>
     <use xlink:href="#DejaVuSans-73" x="776.855469"/>
     <use xlink:href="#DejaVuSans-74" x="828.955078"/>
     <use xlink:href="#DejaVuSans-75" x="868.164062"/>
     <use xlink:href="#DejaVuSans-64" x="931.542969"/>
     <use xlink:href="#DejaVuSans-65" x="995.019531"/>
     <use xlink:href="#DejaVuSans-6e" x="1056.542969"/>
     <use xlink:href="#DejaVuSans-74" x="1119.921875"/>
     <use xlink:href="#DejaVuSans-2d" x="1159.130859"/>
     <use xlink:href="#DejaVuSans-49" x="1195.214844"/>
     <use xlink:href="#DejaVuSans-44" x="1224.707031"/>
     <use xlink:href="#DejaVuSans-3a" x="1301.708984"/>
     <use xlink:href="#DejaVuSans-20" x="1335.400391"/>
     <use xlink:href="#DejaVuSans-31" x="1367.1875"/>
     <use xlink:href="#DejaVuSans-30" x="1430.810547"/>
     <use xlink:href="#DejaVuSans-30" x="1494.433594"/>
     <use xlink:href="#DejaVuSans-29" x="1558.056641"/>
    </g>
   </g>
  </g>
  <g id="axes_2">
   <g id="patch_7">
    <path d="M 394.363636 236.88 
L 648 236.88 
L 648 60.48 
L 394.363636 60.48 
z
" style="fill: #ffffff"/>
   </g>
   <g id="matplotlib.axis_3">
    <g id="xtick_7">
     <g id="line2d_14">
      <g>
       <use xlink:href="#mb84fbc31ed" x="394.363636" y="236.88" style="stroke: #000000; stroke-width: 0.8"/>
      </g>
     </g>
     <g id="text_15">
      <!-- 0 -->
      <g transform="translate(391.182386 251.478437) scale(0.1 -0.1)">
       <use xlink:href="#DejaVuSans-30"/>
      </g>
     </g>
    </g>
    <g id="xtick_8">
     <g id="line2d_15">
      <g>
       <use xlink:href="#mb84fbc31ed" x="445.090909" y="236.88" style="stroke: #000000; stroke-width: 0.8"/>
      </g>
     </g>
     <g id="text_16">
      <!-- 20 -->
      <g transform="translate(438.728409 251.478437) scale(0.1 -0.1)">
       <use xlink:href="#DejaVuSans-32"/>
       <use xlink:href="#DejaVuSans-30" x="63.623047"/>
      </g>
     </g>
    </g>
    <g id="xtick_9">
     <g id="line2d_16">
      <g>
       <use xlink:href="#mb84fbc31ed" x="495.818182" y="236.88" style="stroke: #000000; stroke-width: 0.8"/>
      </g>
     </g>
     <g id="text_17">
      <!-- 40 -->
      <g transform="translate(489.455682 251.478437) scale(0.1 -0.1)">
       <use xlink:href="#DejaVuSans-34"/>
       <use xlink:href="#DejaVuSans-30" x="63.623047"/>
      </g>
     </g>
    </g>
    <g id="xtick_10">
     <g id="line2d_17">
      <g>
       <use xlink:href="#mb84fbc31ed" x="546.545455" y="236.88" style="stroke: #000000; stroke-width: 0.8"/>
      </g>
     </g>
     <g id="text_18">
      <!-- 60 -->
      <g transform="translate(540.182955 251.478437) scale(0.1 -0.1)">
       <use xlink:href="#DejaVuSans-36"/>
       <use xlink:href="#DejaVuSans-30" x="63.623047"/>
      </g>
     </g>
    </g>
    <g id="xtick_11">
     <g id="line2d_18">
      <g>
       <use xlink:href="#mb84fbc31ed" x="597.272727" y="236.88" style="stroke: #000000; stroke-width: 0.8"/>
      </g>
     </g>
     <g id="text_19">
      <!-- 80 -->
      <g transform="translate(590.910227 251.478437) scale(0.1 -0.1)">
       <use xlink:href="#DejaVuSans-38"/>
       <use xlink:href="#DejaVuSans-30" x="63.623047"/>
      </g>
     </g>
    </g>
    <g id="xtick_12">
     <g id="line2d_19">
      <g>
       <use xlink:href="#mb84fbc31ed" x="648" y="236.88" style="stroke: #000000; stroke-width: 0.8"/>
      </g>
     </g>
     <g id="text_20">
      <!-- 100 -->
      <g transform="translate(638.45625 251.478437) scale(0.1 -0.1)">
       <use xlink:href="#DejaVuSans-31"/>
       <use xlink:href="#DejaVuSans-30" x="63.623047"/>
       <use xlink:href="#DejaVuSans-30" x="127.246094"/>
      </g>
     </g>
    </g>
   </g>
   <g id="matplotlib.axis_4">
    <g id="ytick_7">
     <g id="line2d_20">
      <g>
       <use xlink:href="#m6d19c74a29" x="394.363636" y="236.88" style="stroke: #000000; stroke-width: 0.8"/>
      </g>
     </g>
     <g id="text_21">
      <!-- 0 -->
      <g transform="translate(381.001136 240.679219) scale(0.1 -0.1)">
       <use xlink:href="#DejaVuSans-30"/>
      </g>
     </g>
    </g>
    <g id="ytick_8">
     <g id="line2d_21">
      <g>
       <use xlink:href="#m6d19c74a29" x="394.363636" y="202.291765" style="stroke: #000000; stroke-width: 0.8"/>
      </g>
     </g>
     <g id="text_22">
      <!-- 50 -->
      <g transform="translate(374.638636 206.090983) scale(0.1 -0.1)">
       <use xlink:href="#DejaVuSans-35"/>
       <use xlink:href="#DejaVuSans-30" x="63.623047"/>
      </g>
     </g>
    </g>
    <g id="ytick_9">
     <g id="line2d_22">
      <g>
       <use xlink:href="#m6d19c74a29" x="394.363636" y="167.703529" style="stroke: #000000; stroke-width: 0.8"/>
      </g>
     </g>
     <g id="text_23">
      <!-- 100 -->
      <g transform="translate(368.276136 171.502748) scale(0.1 -0.1)">
       <use xlink:href="#DejaVuSans-31"/>
       <use xlink:href="#DejaVuSans-30" x="63.623047"/>
       <use xlink:href="#DejaVuSans-30" x="127.246094"/>
      </g>
     </g>
    </g>
    <g id="ytick_10">
     <g id="line2d_23">
      <g>
       <use xlink:href="#m6d19c74a29" x="394.363636" y="133.115294" style="stroke: #000000; stroke-width: 0.8"/>
      </g>
     </g>
     <g id="text_24">
      <!-- 150 -->
      <g transform="translate(368.276136 136.914513) scale(0.1 -0.1)">
       <use xlink:href="#DejaVuSans-31"/>
       <use xlink:href="#DejaVuSans-35" x="63.623047"/>
       <use xlink:href="#DejaVuSans-30" x="127.246094"/>
      </g>
     </g>
    </g>
    <g id="ytick_11">
     <g id="line2d_24">
      <g>
       <use xlink:href="#m6d19c74a29" x="394.363636" y="98.527059" style="stroke: #000000; stroke-width: 0.8"/>
      </g>
     </g>
     <g id="text_25">
      <!-- 200 -->
      <g transform="translate(368.276136 102.326278) scale(0.1 -0.1)">
       <use xlink:href="#DejaVuSans-32"/>
       <use xlink:href="#DejaVuSans-30" x="63.623047"/>
       <use xlink:href="#DejaVuSans-30" x="127.246094"/>
      </g>
     </g>
    </g>
    <g id="ytick_12">
     <g id="line2d_25">
      <g>
       <use xlink:href="#m6d19c74a29" x="394.363636" y="63.938824" style="stroke: #000000; stroke-width: 0.8"/>
      </g>
     </g>
     <g id="text_26">
      <!-- 250 -->
      <g transform="translate(368.276136 67.738042) scale(0.1 -0.1)">
       <use xlink:href="#DejaVuSans-32"/>
       <use xlink:href="#DejaVuSans-35" x="63.623047"/>
       <use xlink:href="#DejaVuSans-30" x="127.246094"/>
      </g>
     </g>
    </g>
   </g>
   <g id="line2d_26">
    <path d="M 394.363636 60.48 
L 396.9 61.171765 
L 399.436364 61.171765 
L 401.972727 61.171765 
L 404.509091 61.171765 
L 407.045455 61.863529 
L 409.581818 62.555294 
L 412.118182 65.322353 
L 414.654545 70.164706 
L 417.190909 78.465882 
L 419.727273 90.225882 
L 422.263636 106.828235 
L 424.8 126.197647 
L 427.336364 145.567059 
L 429.872727 162.169412 
L 432.409091 171.854118 
L 434.945455 172.545882 
L 437.481818 164.936471 
L 440.018182 149.717647 
L 442.554545 131.04 
L 445.090909 110.978824 
L 447.627273 93.684706 
L 450.163636 80.541176 
L 452.7 71.548235 
L 455.236364 66.014118 
L 457.772727 63.247059 
L 460.309091 61.863529 
L 462.845455 61.863529 
L 465.381818 61.863529 
L 467.918182 63.247059 
L 470.454545 66.014118 
L 472.990909 71.548235 
L 475.527273 81.232941 
L 478.063636 94.376471 
L 480.6 111.670588 
L 483.136364 131.731765 
L 485.672727 151.101176 
L 488.209091 166.32 
L 490.745455 174.621176 
L 493.281818 173.929412 
L 495.818182 164.244706 
L 498.354545 148.334118 
L 500.890909 128.272941 
L 503.427273 108.903529 
L 505.963636 92.301176 
L 508.5 79.157647 
L 511.036364 70.856471 
L 513.572727 66.014118 
L 516.109091 63.247059 
L 518.645455 61.863529 
L 521.181818 61.863529 
L 523.718182 61.863529 
L 526.254545 63.247059 
L 528.790909 66.705882 
L 531.327273 72.24 
L 533.863636 81.924706 
L 536.4 95.76 
L 538.936364 113.054118 
L 541.472727 133.115294 
L 544.009091 152.484706 
L 546.545455 167.703529 
L 549.081818 174.621176 
L 551.618182 173.237647 
L 554.154545 163.552941 
L 556.690909 146.950588 
L 559.227273 128.964706 
L 561.763636 111.670588 
L 564.3 100.602353 
L 566.836364 96.451765 
L 569.372727 100.602353 
L 571.909091 112.362353 
L 574.445455 128.964706 
L 576.981818 147.642353 
L 579.518182 163.552941 
L 582.054545 173.237647 
L 584.590909 174.621176 
L 587.127273 167.011765 
L 589.663636 152.484706 
L 592.2 133.115294 
L 594.736364 113.054118 
L 597.272727 95.76 
L 599.809091 81.924706 
L 602.345455 72.24 
L 604.881818 66.705882 
L 607.418182 63.247059 
L 609.954545 61.863529 
L 612.490909 61.863529 
L 615.027273 61.863529 
L 617.563636 63.247059 
L 620.1 66.014118 
L 622.636364 70.856471 
L 625.172727 79.849412 
L 627.709091 92.301176 
L 630.245455 108.903529 
L 632.781818 128.272941 
L 635.318182 148.334118 
L 637.854545 164.244706 
L 640.390909 173.929412 
L 642.927273 174.621176 
L 645.463636 166.32 
L 648 151.101176 
L 650.536364 132.423529 
L 653.072727 114.437647 
L 655.609091 99.910588 
L 658.145455 91.609412 
" clip-path="url(#pb42c3d474c)" style="fill: none; stroke-dasharray: 5.55,2.4; stroke-dashoffset: 0; stroke: #008000; stroke-width: 1.5"/>
   </g>
   <g id="patch_8">
    <path d="M 394.363636 236.88 
L 394.363636 60.48 
" style="fill: none; stroke: #000000; stroke-width: 0.8; stroke-linejoin: miter; stroke-linecap: square"/>
   </g>
   <g id="patch_9">
    <path d="M 648 236.88 
L 648 60.48 
" style="fill: none; stroke: #000000; stroke-width: 0.8; stroke-linejoin: miter; stroke-linecap: square"/>
   </g>
   <g id="patch_10">
    <path d="M 394.363636 236.88 
L 648 236.88 
" style="fill: none; stroke: #000000; stroke-width: 0.8; stroke-linejoin: miter; stroke-linecap: square"/>
   </g>
   <g id="patch_11">
    <path d="M 394.363636 60.48 
L 648 60.48 
" style="fill: none; stroke: #000000; stroke-width: 0.8; stroke-linejoin: miter; stroke-linecap: square"/>
   </g>
   <g id="text_27">
    <!-- Row index: 10 (student-ID: 100) -->
    <g transform="translate(425.358068 54.48) scale(0.12 -0.12)">
     <use xlink:href="#DejaVuSans-52"/>
     <use xlink:href="#DejaVuSans-6f" x="64.982422"/>
     <use xlink:href="#DejaVuSans-77" x="126.164062"/>
     <use xlink:href="#DejaVuSans-20" x="207.951172"/>
     <use xlink:href="#DejaVuSans-69" x="239.738281"/>
     <use xlink:href="#DejaVuSans-6e" x="267.521484"/>
     <use xlink:href="#DejaVuSans-64" x="330.900391"/>
     <use xlink:href="#DejaVuSans-65" x="394.376953"/>
     <use xlink:href="#DejaVuSans-78" x="454.150391"/>
     <use xlink:href="#DejaVuSans-3a" x="513.330078"/>
     <use xlink:href="#DejaVuSans-20" x="547.021484"/>
     <use xlink:href="#DejaVuSans-31" x="578.808594"/>
     <use xlink:href="#DejaVuSans-30" x="642.431641"/>
     <use xlink:href="#DejaVuSans-20" x="706.054688"/>
     <use xlink:href="#DejaVuSans-28" x="737.841797"/>
     <use xlink:href="#DejaVuSans-73" x="776.855469"/>
     <use xlink:href="#DejaVuSans-74" x="828.955078"/>
     <use xlink:href="#DejaVuSans-75" x="868.164062"/>
     <use xlink:href="#DejaVuSans-64" x="931.542969"/>
     <use xlink:href="#DejaVuSans-65" x="995.019531"/>
     <use xlink:href="#DejaVuSans-6e" x="1056.542969"/>
     <use xlink:href="#DejaVuSans-74" x="1119.921875"/>
     <use xlink:href="#DejaVuSans-2d" x="1159.130859"/>
     <use xlink:href="#DejaVuSans-49" x="1195.214844"/>
     <use xlink:href="#DejaVuSans-44" x="1224.707031"/>
     <use xlink:href="#DejaVuSans-3a" x="1301.708984"/>
     <use xlink:href="#DejaVuSans-20" x="1335.400391"/>
     <use xlink:href="#DejaVuSans-31" x="1367.1875"/>
     <use xlink:href="#DejaVuSans-30" x="1430.810547"/>
     <use xlink:href="#DejaVuSans-30" x="1494.433594"/>
     <use xlink:href="#DejaVuSans-29" x="1558.056641"/>
    </g>
   </g>
  </g>
  <g id="axes_3">
   <g id="patch_12">
    <path d="M 90 448.56 
L 343.636364 448.56 
L 343.636364 272.16 
L 90 272.16 
z
" style="fill: #ffffff"/>
   </g>
   <g id="matplotlib.axis_5">
    <g id="xtick_13">
     <g id="line2d_27">
      <g>
       <use xlink:href="#mb84fbc31ed" x="90" y="448.56" style="stroke: #000000; stroke-width: 0.8"/>
      </g>
     </g>
     <g id="text_28">
      <!-- 0 -->
      <g transform="translate(86.81875 463.158437) scale(0.1 -0.1)">
       <use xlink:href="#DejaVuSans-30"/>
      </g>
     </g>
    </g>
    <g id="xtick_14">
     <g id="line2d_28">
      <g>
       <use xlink:href="#mb84fbc31ed" x="140.727273" y="448.56" style="stroke: #000000; stroke-width: 0.8"/>
      </g>
     </g>
     <g id="text_29">
      <!-- 20 -->
      <g transform="translate(134.364773 463.158437) scale(0.1 -0.1)">
       <use xlink:href="#DejaVuSans-32"/>
       <use xlink:href="#DejaVuSans-30" x="63.623047"/>
      </g>
     </g>
    </g>
    <g id="xtick_15">
     <g id="line2d_29">
      <g>
       <use xlink:href="#mb84fbc31ed" x="191.454545" y="448.56" style="stroke: #000000; stroke-width: 0.8"/>
      </g>
     </g>
     <g id="text_30">
      <!-- 40 -->
      <g transform="translate(185.092045 463.158437) scale(0.1 -0.1)">
       <use xlink:href="#DejaVuSans-34"/>
       <use xlink:href="#DejaVuSans-30" x="63.623047"/>
      </g>
     </g>
    </g>
    <g id="xtick_16">
     <g id="line2d_30">
      <g>
       <use xlink:href="#mb84fbc31ed" x="242.181818" y="448.56" style="stroke: #000000; stroke-width: 0.8"/>
      </g>
     </g>
     <g id="text_31">
      <!-- 60 -->
      <g transform="translate(235.819318 463.158437) scale(0.1 -0.1)">
       <use xlink:href="#DejaVuSans-36"/>
       <use xlink:href="#DejaVuSans-30" x="63.623047"/>
      </g>
     </g>
    </g>
    <g id="xtick_17">
     <g id="line2d_31">
      <g>
       <use xlink:href="#mb84fbc31ed" x="292.909091" y="448.56" style="stroke: #000000; stroke-width: 0.8"/>
      </g>
     </g>
     <g id="text_32">
      <!-- 80 -->
      <g transform="translate(286.546591 463.158437) scale(0.1 -0.1)">
       <use xlink:href="#DejaVuSans-38"/>
       <use xlink:href="#DejaVuSans-30" x="63.623047"/>
      </g>
     </g>
    </g>
    <g id="xtick_18">
     <g id="line2d_32">
      <g>
       <use xlink:href="#mb84fbc31ed" x="343.636364" y="448.56" style="stroke: #000000; stroke-width: 0.8"/>
      </g>
     </g>
     <g id="text_33">
      <!-- 100 -->
      <g transform="translate(334.092614 463.158437) scale(0.1 -0.1)">
       <use xlink:href="#DejaVuSans-31"/>
       <use xlink:href="#DejaVuSans-30" x="63.623047"/>
       <use xlink:href="#DejaVuSans-30" x="127.246094"/>
      </g>
     </g>
    </g>
    <g id="text_34">
     <!-- Horizontal dimension (column index) -->
     <g transform="translate(124.633026 476.836563) scale(0.1 -0.1)">
      <defs>
       <path id="DejaVuSans-48" d="M 628 4666 
L 1259 4666 
L 1259 2753 
L 3553 2753 
L 3553 4666 
L 4184 4666 
L 4184 0 
L 3553 0 
L 3553 2222 
L 1259 2222 
L 1259 0 
L 628 0 
L 628 4666 
z
" transform="scale(0.015625)"/>
       <path id="DejaVuSans-72" d="M 2631 2963 
Q 2534 3019 2420 3045 
Q 2306 3072 2169 3072 
Q 1681 3072 1420 2755 
Q 1159 2438 1159 1844 
L 1159 0 
L 581 0 
L 581 3500 
L 1159 3500 
L 1159 2956 
Q 1341 3275 1631 3429 
Q 1922 3584 2338 3584 
Q 2397 3584 2469 3576 
Q 2541 3569 2628 3553 
L 2631 2963 
z
" transform="scale(0.015625)"/>
       <path id="DejaVuSans-7a" d="M 353 3500 
L 3084 3500 
L 3084 2975 
L 922 459 
L 3084 459 
L 3084 0 
L 275 0 
L 275 525 
L 2438 3041 
L 353 3041 
L 353 3500 
z
" transform="scale(0.015625)"/>
       <path id="DejaVuSans-61" d="M 2194 1759 
Q 1497 1759 1228 1600 
Q 959 1441 959 1056 
Q 959 750 1161 570 
Q 1363 391 1709 391 
Q 2188 391 2477 730 
Q 2766 1069 2766 1631 
L 2766 1759 
L 2194 1759 
z
M 3341 1997 
L 3341 0 
L 2766 0 
L 2766 531 
Q 2569 213 2275 61 
Q 1981 -91 1556 -91 
Q 1019 -91 701 211 
Q 384 513 384 1019 
Q 384 1609 779 1909 
Q 1175 2209 1959 2209 
L 2766 2209 
L 2766 2266 
Q 2766 2663 2505 2880 
Q 2244 3097 1772 3097 
Q 1472 3097 1187 3025 
Q 903 2953 641 2809 
L 641 3341 
Q 956 3463 1253 3523 
Q 1550 3584 1831 3584 
Q 2591 3584 2966 3190 
Q 3341 2797 3341 1997 
z
" transform="scale(0.015625)"/>
       <path id="DejaVuSans-6c" d="M 603 4863 
L 1178 4863 
L 1178 0 
L 603 0 
L 603 4863 
z
" transform="scale(0.015625)"/>
       <path id="DejaVuSans-6d" d="M 3328 2828 
Q 3544 3216 3844 3400 
Q 4144 3584 4550 3584 
Q 5097 3584 5394 3201 
Q 5691 2819 5691 2113 
L 5691 0 
L 5113 0 
L 5113 2094 
Q 5113 2597 4934 2840 
Q 4756 3084 4391 3084 
Q 3944 3084 3684 2787 
Q 3425 2491 3425 1978 
L 3425 0 
L 2847 0 
L 2847 2094 
Q 2847 2600 2669 2842 
Q 2491 3084 2119 3084 
Q 1678 3084 1418 2786 
Q 1159 2488 1159 1978 
L 1159 0 
L 581 0 
L 581 3500 
L 1159 3500 
L 1159 2956 
Q 1356 3278 1631 3431 
Q 1906 3584 2284 3584 
Q 2666 3584 2933 3390 
Q 3200 3197 3328 2828 
z
" transform="scale(0.015625)"/>
       <path id="DejaVuSans-63" d="M 3122 3366 
L 3122 2828 
Q 2878 2963 2633 3030 
Q 2388 3097 2138 3097 
Q 1578 3097 1268 2742 
Q 959 2388 959 1747 
Q 959 1106 1268 751 
Q 1578 397 2138 397 
Q 2388 397 2633 464 
Q 2878 531 3122 666 
L 3122 134 
Q 2881 22 2623 -34 
Q 2366 -91 2075 -91 
Q 1284 -91 818 406 
Q 353 903 353 1747 
Q 353 2603 823 3093 
Q 1294 3584 2113 3584 
Q 2378 3584 2631 3529 
Q 2884 3475 3122 3366 
z
" transform="scale(0.015625)"/>
      </defs>
      <use xlink:href="#DejaVuSans-48"/>
      <use xlink:href="#DejaVuSans-6f" x="75.195312"/>
      <use xlink:href="#DejaVuSans-72" x="136.376953"/>
      <use xlink:href="#DejaVuSans-69" x="177.490234"/>
      <use xlink:href="#DejaVuSans-7a" x="205.273438"/>
      <use xlink:href="#DejaVuSans-6f" x="257.763672"/>
      <use xlink:href="#DejaVuSans-6e" x="318.945312"/>
      <use xlink:href="#DejaVuSans-74" x="382.324219"/>
      <use xlink:href="#DejaVuSans-61" x="421.533203"/>
      <use xlink:href="#DejaVuSans-6c" x="482.8125"/>
      <use xlink:href="#DejaVuSans-20" x="510.595703"/>
      <use xlink:href="#DejaVuSans-64" x="542.382812"/>
      <use xlink:href="#DejaVuSans-69" x="605.859375"/>
      <use xlink:href="#DejaVuSans-6d" x="633.642578"/>
      <use xlink:href="#DejaVuSans-65" x="731.054688"/>
      <use xlink:href="#DejaVuSans-6e" x="792.578125"/>
      <use xlink:href="#DejaVuSans-73" x="855.957031"/>
      <use xlink:href="#DejaVuSans-69" x="908.056641"/>
      <use xlink:href="#DejaVuSans-6f" x="935.839844"/>
      <use xlink:href="#DejaVuSans-6e" x="997.021484"/>
      <use xlink:href="#DejaVuSans-20" x="1060.400391"/>
      <use xlink:href="#DejaVuSans-28" x="1092.1875"/>
      <use xlink:href="#DejaVuSans-63" x="1131.201172"/>
      <use xlink:href="#DejaVuSans-6f" x="1186.181641"/>
      <use xlink:href="#DejaVuSans-6c" x="1247.363281"/>
      <use xlink:href="#DejaVuSans-75" x="1275.146484"/>
      <use xlink:href="#DejaVuSans-6d" x="1338.525391"/>
      <use xlink:href="#DejaVuSans-6e" x="1435.9375"/>
      <use xlink:href="#DejaVuSans-20" x="1499.316406"/>
      <use xlink:href="#DejaVuSans-69" x="1531.103516"/>
      <use xlink:href="#DejaVuSans-6e" x="1558.886719"/>
      <use xlink:href="#DejaVuSans-64" x="1622.265625"/>
      <use xlink:href="#DejaVuSans-65" x="1685.742188"/>
      <use xlink:href="#DejaVuSans-78" x="1745.515625"/>
      <use xlink:href="#DejaVuSans-29" x="1804.695312"/>
     </g>
    </g>
   </g>
   <g id="matplotlib.axis_6">
    <g id="ytick_13">
     <g id="line2d_33">
      <g>
       <use xlink:href="#m6d19c74a29" x="90" y="448.56" style="stroke: #000000; stroke-width: 0.8"/>
      </g>
     </g>
     <g id="text_35">
      <!-- 0 -->
      <g transform="translate(76.6375 452.359219) scale(0.1 -0.1)">
       <use xlink:href="#DejaVuSans-30"/>
      </g>
     </g>
    </g>
    <g id="ytick_14">
     <g id="line2d_34">
      <g>
       <use xlink:href="#m6d19c74a29" x="90" y="413.971765" style="stroke: #000000; stroke-width: 0.8"/>
      </g>
     </g>
     <g id="text_36">
      <!-- 50 -->
      <g transform="translate(70.275 417.770983) scale(0.1 -0.1)">
       <use xlink:href="#DejaVuSans-35"/>
       <use xlink:href="#DejaVuSans-30" x="63.623047"/>
      </g>
     </g>
    </g>
    <g id="ytick_15">
     <g id="line2d_35">
      <g>
       <use xlink:href="#m6d19c74a29" x="90" y="379.383529" style="stroke: #000000; stroke-width: 0.8"/>
      </g>
     </g>
     <g id="text_37">
      <!-- 100 -->
      <g transform="translate(63.9125 383.182748) scale(0.1 -0.1)">
       <use xlink:href="#DejaVuSans-31"/>
       <use xlink:href="#DejaVuSans-30" x="63.623047"/>
       <use xlink:href="#DejaVuSans-30" x="127.246094"/>
      </g>
     </g>
    </g>
    <g id="ytick_16">
     <g id="line2d_36">
      <g>
       <use xlink:href="#m6d19c74a29" x="90" y="344.795294" style="stroke: #000000; stroke-width: 0.8"/>
      </g>
     </g>
     <g id="text_38">
      <!-- 150 -->
      <g transform="translate(63.9125 348.594513) scale(0.1 -0.1)">
       <use xlink:href="#DejaVuSans-31"/>
       <use xlink:href="#DejaVuSans-35" x="63.623047"/>
       <use xlink:href="#DejaVuSans-30" x="127.246094"/>
      </g>
     </g>
    </g>
    <g id="ytick_17">
     <g id="line2d_37">
      <g>
       <use xlink:href="#m6d19c74a29" x="90" y="310.207059" style="stroke: #000000; stroke-width: 0.8"/>
      </g>
     </g>
     <g id="text_39">
      <!-- 200 -->
      <g transform="translate(63.9125 314.006278) scale(0.1 -0.1)">
       <use xlink:href="#DejaVuSans-32"/>
       <use xlink:href="#DejaVuSans-30" x="63.623047"/>
       <use xlink:href="#DejaVuSans-30" x="127.246094"/>
      </g>
     </g>
    </g>
    <g id="ytick_18">
     <g id="line2d_38">
      <g>
       <use xlink:href="#m6d19c74a29" x="90" y="275.618824" style="stroke: #000000; stroke-width: 0.8"/>
      </g>
     </g>
     <g id="text_40">
      <!-- 250 -->
      <g transform="translate(63.9125 279.418042) scale(0.1 -0.1)">
       <use xlink:href="#DejaVuSans-32"/>
       <use xlink:href="#DejaVuSans-35" x="63.623047"/>
       <use xlink:href="#DejaVuSans-30" x="127.246094"/>
      </g>
     </g>
    </g>
    <g id="text_41">
     <!-- Intensity (8-bit) -->
     <g transform="translate(57.832812 399.121719) rotate(-90) scale(0.1 -0.1)">
      <use xlink:href="#DejaVuSans-49"/>
      <use xlink:href="#DejaVuSans-6e" x="29.492188"/>
      <use xlink:href="#DejaVuSans-74" x="92.871094"/>
      <use xlink:href="#DejaVuSans-65" x="132.080078"/>
      <use xlink:href="#DejaVuSans-6e" x="193.603516"/>
      <use xlink:href="#DejaVuSans-73" x="256.982422"/>
      <use xlink:href="#DejaVuSans-69" x="309.082031"/>
      <use xlink:href="#DejaVuSans-74" x="336.865234"/>
      <use xlink:href="#DejaVuSans-79" x="376.074219"/>
      <use xlink:href="#DejaVuSans-20" x="435.253906"/>
      <use xlink:href="#DejaVuSans-28" x="467.041016"/>
      <use xlink:href="#DejaVuSans-38" x="506.054688"/>
      <use xlink:href="#DejaVuSans-2d" x="569.677734"/>
      <use xlink:href="#DejaVuSans-62" x="605.761719"/>
      <use xlink:href="#DejaVuSans-69" x="669.238281"/>
      <use xlink:href="#DejaVuSans-74" x="697.021484"/>
      <use xlink:href="#DejaVuSans-29" x="736.230469"/>
     </g>
    </g>
   </g>
   <g id="line2d_39">
    <path d="M 90 273.543529 
L 92.536364 274.235294 
L 95.072727 274.235294 
L 97.609091 274.927059 
L 100.145455 276.310588 
L 102.681818 277.694118 
L 105.218182 279.077647 
L 107.754545 282.536471 
L 110.290909 287.378824 
L 112.827273 295.68 
L 115.363636 307.44 
L 117.9 323.350588 
L 120.436364 341.336471 
L 122.972727 360.705882 
L 125.509091 375.924706 
L 128.045455 385.609412 
L 130.581818 386.992941 
L 133.118182 379.383529 
L 135.654545 364.856471 
L 138.190909 346.178824 
L 140.727273 327.501176 
L 143.263636 310.898824 
L 145.8 297.755294 
L 148.336364 288.762353 
L 150.872727 283.228235 
L 153.409091 279.769412 
L 155.945455 277.694118 
L 158.481818 276.310588 
L 161.018182 275.618824 
L 163.554545 275.618824 
L 166.090909 275.618824 
L 168.627273 277.694118 
L 171.163636 282.536471 
L 173.7 289.454118 
L 176.236364 301.214118 
L 178.772727 316.432941 
L 181.309091 334.418824 
L 183.845455 352.404706 
L 186.381818 369.007059 
L 188.918182 380.075294 
L 191.454545 383.534118 
L 193.990909 379.383529 
L 196.527273 367.623529 
L 199.063636 351.712941 
L 201.6 334.418824 
L 204.136364 317.816471 
L 206.672727 303.981176 
L 209.209091 293.604706 
L 211.745455 287.378824 
L 214.281818 283.228235 
L 216.818182 282.536471 
L 219.354545 283.92 
L 221.890909 288.070588 
L 224.427273 295.68 
L 226.963636 307.44 
L 229.5 321.967059 
L 232.036364 338.569412 
L 234.572727 355.863529 
L 237.109091 371.082353 
L 239.645455 380.767059 
L 242.181818 383.534118 
L 244.718182 378 
L 247.254545 365.548235 
L 249.790909 348.254118 
L 252.327273 329.576471 
L 254.863636 312.974118 
L 257.4 299.138824 
L 259.936364 290.837647 
L 262.472727 288.070588 
L 265.009091 290.837647 
L 267.545455 299.138824 
L 270.081818 312.974118 
L 272.618182 329.576471 
L 275.154545 348.254118 
L 277.690909 365.548235 
L 280.227273 378 
L 282.763636 383.534118 
L 285.3 380.767059 
L 287.836364 371.082353 
L 290.372727 355.863529 
L 292.909091 338.569412 
L 295.445455 321.967059 
L 297.981818 307.44 
L 300.518182 295.68 
L 303.054545 288.070588 
L 305.590909 283.92 
L 308.127273 282.536471 
L 310.663636 283.228235 
L 313.2 287.378824 
L 315.736364 293.604706 
L 318.272727 303.981176 
L 320.809091 317.816471 
L 323.345455 334.418824 
L 325.881818 351.712941 
L 328.418182 367.623529 
L 330.954545 379.383529 
L 333.490909 383.534118 
L 336.027273 380.075294 
L 338.563636 369.007059 
L 341.1 352.404706 
L 343.636364 334.418824 
L 346.172727 316.432941 
L 348.709091 301.905882 
L 351.245455 291.529412 
L 353.781818 286.687059 
" clip-path="url(#p336a8ae644)" style="fill: none; stroke-dasharray: 9.6,2.4,1.5,2.4; stroke-dashoffset: 0; stroke: #ff0000; stroke-width: 1.5"/>
   </g>
   <g id="patch_13">
    <path d="M 90 448.56 
L 90 272.16 
" style="fill: none; stroke: #000000; stroke-width: 0.8; stroke-linejoin: miter; stroke-linecap: square"/>
   </g>
   <g id="patch_14">
    <path d="M 343.636364 448.56 
L 343.636364 272.16 
" style="fill: none; stroke: #000000; stroke-width: 0.8; stroke-linejoin: miter; stroke-linecap: square"/>
   </g>
   <g id="patch_15">
    <path d="M 90 448.56 
L 343.636364 448.56 
" style="fill: none; stroke: #000000; stroke-width: 0.8; stroke-linejoin: miter; stroke-linecap: square"/>
   </g>
   <g id="patch_16">
    <path d="M 90 272.16 
L 343.636364 272.16 
" style="fill: none; stroke: #000000; stroke-width: 0.8; stroke-linejoin: miter; stroke-linecap: square"/>
   </g>
   <g id="text_42">
    <!-- Row index: 10 (student-ID: 100) -->
    <g transform="translate(120.994432 266.16) scale(0.12 -0.12)">
     <use xlink:href="#DejaVuSans-52"/>
     <use xlink:href="#DejaVuSans-6f" x="64.982422"/>
     <use xlink:href="#DejaVuSans-77" x="126.164062"/>
     <use xlink:href="#DejaVuSans-20" x="207.951172"/>
     <use xlink:href="#DejaVuSans-69" x="239.738281"/>
     <use xlink:href="#DejaVuSans-6e" x="267.521484"/>
     <use xlink:href="#DejaVuSans-64" x="330.900391"/>
     <use xlink:href="#DejaVuSans-65" x="394.376953"/>
     <use xlink:href="#DejaVuSans-78" x="454.150391"/>
     <use xlink:href="#DejaVuSans-3a" x="513.330078"/>
     <use xlink:href="#DejaVuSans-20" x="547.021484"/>
     <use xlink:href="#DejaVuSans-31" x="578.808594"/>
     <use xlink:href="#DejaVuSans-30" x="642.431641"/>
     <use xlink:href="#DejaVuSans-20" x="706.054688"/>
     <use xlink:href="#DejaVuSans-28" x="737.841797"/>
     <use xlink:href="#DejaVuSans-73" x="776.855469"/>
     <use xlink:href="#DejaVuSans-74" x="828.955078"/>
     <use xlink:href="#DejaVuSans-75" x="868.164062"/>
     <use xlink:href="#DejaVuSans-64" x="931.542969"/>
     <use xlink:href="#DejaVuSans-65" x="995.019531"/>
     <use xlink:href="#DejaVuSans-6e" x="1056.542969"/>
     <use xlink:href="#DejaVuSans-74" x="1119.921875"/>
     <use xlink:href="#DejaVuSans-2d" x="1159.130859"/>
     <use xlink:href="#DejaVuSans-49" x="1195.214844"/>
     <use xlink:href="#DejaVuSans-44" x="1224.707031"/>
     <use xlink:href="#DejaVuSans-3a" x="1301.708984"/>
     <use xlink:href="#DejaVuSans-20" x="1335.400391"/>
     <use xlink:href="#DejaVuSans-31" x="1367.1875"/>
     <use xlink:href="#DejaVuSans-30" x="1430.810547"/>
     <use xlink:href="#DejaVuSans-30" x="1494.433594"/>
     <use xlink:href="#DejaVuSans-29" x="1558.056641"/>
    </g>
   </g>
  </g>
  <g id="axes_4">
   <g id="patch_17">
    <path d="M 394.363636 448.56 
L 648 448.56 
L 648 272.16 
L 394.363636 272.16 
z
" style="fill: #ffffff"/>
   </g>
   <g id="matplotlib.axis_7">
    <g id="xtick_19">
     <g id="line2d_40">
      <g>
       <use xlink:href="#mb84fbc31ed" x="394.363636" y="448.56" style="stroke: #000000; stroke-width: 0.8"/>
      </g>
     </g>
     <g id="text_43">
      <!-- 0 -->
      <g transform="translate(391.182386 463.158437) scale(0.1 -0.1)">
       <use xlink:href="#DejaVuSans-30"/>
      </g>
     </g>
    </g>
    <g id="xtick_20">
     <g id="line2d_41">
      <g>
       <use xlink:href="#mb84fbc31ed" x="445.090909" y="448.56" style="stroke: #000000; stroke-width: 0.8"/>
      </g>
     </g>
     <g id="text_44">
      <!-- 20 -->
      <g transform="translate(438.728409 463.158437) scale(0.1 -0.1)">
       <use xlink:href="#DejaVuSans-32"/>
       <use xlink:href="#DejaVuSans-30" x="63.623047"/>
      </g>
     </g>
    </g>
    <g id="xtick_21">
     <g id="line2d_42">
      <g>
       <use xlink:href="#mb84fbc31ed" x="495.818182" y="448.56" style="stroke: #000000; stroke-width: 0.8"/>
      </g>
     </g>
     <g id="text_45">
      <!-- 40 -->
      <g transform="translate(489.455682 463.158437) scale(0.1 -0.1)">
       <use xlink:href="#DejaVuSans-34"/>
       <use xlink:href="#DejaVuSans-30" x="63.623047"/>
      </g>
     </g>
    </g>
    <g id="xtick_22">
     <g id="line2d_43">
      <g>
       <use xlink:href="#mb84fbc31ed" x="546.545455" y="448.56" style="stroke: #000000; stroke-width: 0.8"/>
      </g>
     </g>
     <g id="text_46">
      <!-- 60 -->
      <g transform="translate(540.182955 463.158437) scale(0.1 -0.1)">
       <use xlink:href="#DejaVuSans-36"/>
       <use xlink:href="#DejaVuSans-30" x="63.623047"/>
      </g>
     </g>
    </g>
    <g id="xtick_23">
     <g id="line2d_44">
      <g>
       <use xlink:href="#mb84fbc31ed" x="597.272727" y="448.56" style="stroke: #000000; stroke-width: 0.8"/>
      </g>
     </g>
     <g id="text_47">
      <!-- 80 -->
      <g transform="translate(590.910227 463.158437) scale(0.1 -0.1)">
       <use xlink:href="#DejaVuSans-38"/>
       <use xlink:href="#DejaVuSans-30" x="63.623047"/>
      </g>
     </g>
    </g>
    <g id="xtick_24">
     <g id="line2d_45">
      <g>
       <use xlink:href="#mb84fbc31ed" x="648" y="448.56" style="stroke: #000000; stroke-width: 0.8"/>
      </g>
     </g>
     <g id="text_48">
      <!-- 100 -->
      <g transform="translate(638.45625 463.158437) scale(0.1 -0.1)">
       <use xlink:href="#DejaVuSans-31"/>
       <use xlink:href="#DejaVuSans-30" x="63.623047"/>
       <use xlink:href="#DejaVuSans-30" x="127.246094"/>
      </g>
     </g>
    </g>
    <g id="text_49">
     <!-- Horizontal dimension (column index) -->
     <g transform="translate(428.996662 476.836563) scale(0.1 -0.1)">
      <use xlink:href="#DejaVuSans-48"/>
      <use xlink:href="#DejaVuSans-6f" x="75.195312"/>
      <use xlink:href="#DejaVuSans-72" x="136.376953"/>
      <use xlink:href="#DejaVuSans-69" x="177.490234"/>
      <use xlink:href="#DejaVuSans-7a" x="205.273438"/>
      <use xlink:href="#DejaVuSans-6f" x="257.763672"/>
      <use xlink:href="#DejaVuSans-6e" x="318.945312"/>
      <use xlink:href="#DejaVuSans-74" x="382.324219"/>
      <use xlink:href="#DejaVuSans-61" x="421.533203"/>
      <use xlink:href="#DejaVuSans-6c" x="482.8125"/>
      <use xlink:href="#DejaVuSans-20" x="510.595703"/>
      <use xlink:href="#DejaVuSans-64" x="542.382812"/>
      <use xlink:href="#DejaVuSans-69" x="605.859375"/>
      <use xlink:href="#DejaVuSans-6d" x="633.642578"/>
      <use xlink:href="#DejaVuSans-65" x="731.054688"/>
      <use xlink:href="#DejaVuSans-6e" x="792.578125"/>
      <use xlink:href="#DejaVuSans-73" x="855.957031"/>
      <use xlink:href="#DejaVuSans-69" x="908.056641"/>
      <use xlink:href="#DejaVuSans-6f" x="935.839844"/>
      <use xlink:href="#DejaVuSans-6e" x="997.021484"/>
      <use xlink:href="#DejaVuSans-20" x="1060.400391"/>
      <use xlink:href="#DejaVuSans-28" x="1092.1875"/>
      <use xlink:href="#DejaVuSans-63" x="1131.201172"/>
      <use xlink:href="#DejaVuSans-6f" x="1186.181641"/>
      <use xlink:href="#DejaVuSans-6c" x="1247.363281"/>
      <use xlink:href="#DejaVuSans-75" x="1275.146484"/>
      <use xlink:href="#DejaVuSans-6d" x="1338.525391"/>
      <use xlink:href="#DejaVuSans-6e" x="1435.9375"/>
      <use xlink:href="#DejaVuSans-20" x="1499.316406"/>
      <use xlink:href="#DejaVuSans-69" x="1531.103516"/>
      <use xlink:href="#DejaVuSans-6e" x="1558.886719"/>
      <use xlink:href="#DejaVuSans-64" x="1622.265625"/>
      <use xlink:href="#DejaVuSans-65" x="1685.742188"/>
      <use xlink:href="#DejaVuSans-78" x="1745.515625"/>
      <use xlink:href="#DejaVuSans-29" x="1804.695312"/>
     </g>
    </g>
   </g>
   <g id="matplotlib.axis_8">
    <g id="ytick_19">
     <g id="line2d_46">
      <g>
       <use xlink:href="#m6d19c74a29" x="394.363636" y="448.56" style="stroke: #000000; stroke-width: 0.8"/>
      </g>
     </g>
     <g id="text_50">
      <!-- 0 -->
      <g transform="translate(381.001136 452.359219) scale(0.1 -0.1)">
       <use xlink:href="#DejaVuSans-30"/>
      </g>
     </g>
    </g>
    <g id="ytick_20">
     <g id="line2d_47">
      <g>
       <use xlink:href="#m6d19c74a29" x="394.363636" y="413.971765" style="stroke: #000000; stroke-width: 0.8"/>
      </g>
     </g>
     <g id="text_51">
      <!-- 50 -->
      <g transform="translate(374.638636 417.770983) scale(0.1 -0.1)">
       <use xlink:href="#DejaVuSans-35"/>
       <use xlink:href="#DejaVuSans-30" x="63.623047"/>
      </g>
     </g>
    </g>
    <g id="ytick_21">
     <g id="line2d_48">
      <g>
       <use xlink:href="#m6d19c74a29" x="394.363636" y="379.383529" style="stroke: #000000; stroke-width: 0.8"/>
      </g>
     </g>
     <g id="text_52">
      <!-- 100 -->
      <g transform="translate(368.276136 383.182748) scale(0.1 -0.1)">
       <use xlink:href="#DejaVuSans-31"/>
       <use xlink:href="#DejaVuSans-30" x="63.623047"/>
       <use xlink:href="#DejaVuSans-30" x="127.246094"/>
      </g>
     </g>
    </g>
    <g id="ytick_22">
     <g id="line2d_49">
      <g>
       <use xlink:href="#m6d19c74a29" x="394.363636" y="344.795294" style="stroke: #000000; stroke-width: 0.8"/>
      </g>
     </g>
     <g id="text_53">
      <!-- 150 -->
      <g transform="translate(368.276136 348.594513) scale(0.1 -0.1)">
       <use xlink:href="#DejaVuSans-31"/>
       <use xlink:href="#DejaVuSans-35" x="63.623047"/>
       <use xlink:href="#DejaVuSans-30" x="127.246094"/>
      </g>
     </g>
    </g>
    <g id="ytick_23">
     <g id="line2d_50">
      <g>
       <use xlink:href="#m6d19c74a29" x="394.363636" y="310.207059" style="stroke: #000000; stroke-width: 0.8"/>
      </g>
     </g>
     <g id="text_54">
      <!-- 200 -->
      <g transform="translate(368.276136 314.006278) scale(0.1 -0.1)">
       <use xlink:href="#DejaVuSans-32"/>
       <use xlink:href="#DejaVuSans-30" x="63.623047"/>
       <use xlink:href="#DejaVuSans-30" x="127.246094"/>
      </g>
     </g>
    </g>
    <g id="ytick_24">
     <g id="line2d_51">
      <g>
       <use xlink:href="#m6d19c74a29" x="394.363636" y="275.618824" style="stroke: #000000; stroke-width: 0.8"/>
      </g>
     </g>
     <g id="text_55">
      <!-- 250 -->
      <g transform="translate(368.276136 279.418042) scale(0.1 -0.1)">
       <use xlink:href="#DejaVuSans-32"/>
       <use xlink:href="#DejaVuSans-35" x="63.623047"/>
       <use xlink:href="#DejaVuSans-30" x="127.246094"/>
      </g>
     </g>
    </g>
   </g>
   <g id="line2d_52">
    <path d="M 394.363636 282.097791 
L 396.9 284.122468 
L 399.436364 287.800631 
L 401.972727 292.558623 
L 404.509091 297.772166 
L 407.045455 302.816987 
L 409.581818 307.574978 
L 412.118182 312.282353 
L 414.654545 317.630875 
L 417.190909 324.700373 
L 419.727273 334.199484 
L 422.263636 346.651248 
L 424.8 361.026456 
L 427.336364 375.469154 
L 429.872727 387.12792 
L 432.409091 393.438164 
L 434.945455 392.645165 
L 437.481818 384.529584 
L 440.018182 370.390588 
L 442.554545 353.265194 
L 445.090909 335.583013 
L 447.627273 320.161722 
L 450.163636 308.148637 
L 452.7 299.628121 
L 455.236364 293.739684 
L 457.772727 289.774692 
L 460.309091 286.535208 
L 462.845455 283.650043 
L 465.381818 281.254175 
L 467.918182 279.533199 
L 470.454545 278.892052 
L 472.990909 280.208092 
L 475.527273 284.257446 
L 478.063636 291.360689 
L 480.6 301.990244 
L 483.136364 315.639943 
L 485.672727 331.111851 
L 488.209091 346.29693 
L 490.745455 359.221119 
L 493.281818 367.572912 
L 495.818182 370.373716 
L 498.354545 367.741636 
L 500.890909 360.385308 
L 503.427273 350.413773 
L 505.963636 339.497389 
L 508.5 329.323386 
L 511.036364 320.853486 
L 513.572727 314.492626 
L 516.109091 310.274548 
L 518.645455 307.87868 
L 521.181818 307.271277 
L 523.718182 308.334232 
L 526.254545 311.067547 
L 528.790909 315.893027 
L 531.327273 322.760057 
L 533.863636 331.769871 
L 536.4 342.247575 
L 538.936364 353.045854 
L 541.472727 362.578709 
L 544.009091 368.855208 
L 546.545455 370.306227 
L 549.081818 365.885681 
L 551.618182 356.335954 
L 554.154545 342.770617 
L 556.690909 327.38307 
L 559.227273 312.839139 
L 561.763636 300.927288 
L 564.3 293.19977 
L 566.836364 290.550818 
L 569.372727 293.26726 
L 571.909091 300.961033 
L 574.445455 312.872884 
L 576.981818 327.467432 
L 579.518182 342.787489 
L 582.054545 356.369699 
L 584.590909 365.868809 
L 587.127273 370.221865 
L 589.663636 368.770846 
L 592.2 362.477475 
L 594.736364 352.978364 
L 597.272727 342.163214 
L 599.809091 331.668637 
L 602.345455 322.692568 
L 604.881818 315.876155 
L 607.418182 311.067547 
L 609.954545 308.31736 
L 612.490909 307.305022 
L 615.027273 307.895552 
L 617.563636 310.274548 
L 620.1 314.52637 
L 622.636364 320.887231 
L 625.172727 329.390875 
L 627.709091 339.632367 
L 630.245455 350.447518 
L 632.781818 360.402181 
L 635.318182 367.809125 
L 637.854545 370.390588 
L 640.390909 367.505423 
L 642.927273 359.187374 
L 645.463636 346.280057 
L 648 331.111851 
L 650.536364 315.960516 
L 653.072727 302.816987 
L 655.609091 293.402238 
L 658.145455 288.441779 
" clip-path="url(#pefb6469e2b)" style="fill: none; stroke: #000000; stroke-width: 1.5; stroke-linecap: square"/>
   </g>
   <g id="patch_18">
    <path d="M 394.363636 448.56 
L 394.363636 272.16 
" style="fill: none; stroke: #000000; stroke-width: 0.8; stroke-linejoin: miter; stroke-linecap: square"/>
   </g>
   <g id="patch_19">
    <path d="M 648 448.56 
L 648 272.16 
" style="fill: none; stroke: #000000; stroke-width: 0.8; stroke-linejoin: miter; stroke-linecap: square"/>
   </g>
   <g id="patch_20">
    <path d="M 394.363636 448.56 
L 648 448.56 
" style="fill: none; stroke: #000000; stroke-width: 0.8; stroke-linejoin: miter; stroke-linecap: square"/>
   </g>
   <g id="patch_21">
    <path d="M 394.363636 272.16 
L 648 272.16 
" style="fill: none; stroke: #000000; stroke-width: 0.8; stroke-linejoin: miter; stroke-linecap: square"/>
   </g>
   <g id="text_56">
    <!-- Row index: 10 (student-ID: 100) -->
    <g transform="translate(425.358068 266.16) scale(0.12 -0.12)">
     <use xlink:href="#DejaVuSans-52"/>
     <use xlink:href="#DejaVuSans-6f" x="64.982422"/>
     <use xlink:href="#DejaVuSans-77" x="126.164062"/>
     <use xlink:href="#DejaVuSans-20" x="207.951172"/>
     <use xlink:href="#DejaVuSans-69" x="239.738281"/>
     <use xlink:href="#DejaVuSans-6e" x="267.521484"/>
     <use xlink:href="#DejaVuSans-64" x="330.900391"/>
     <use xlink:href="#DejaVuSans-65" x="394.376953"/>
     <use xlink:href="#DejaVuSans-78" x="454.150391"/>
     <use xlink:href="#DejaVuSans-3a" x="513.330078"/>
     <use xlink:href="#DejaVuSans-20" x="547.021484"/>
     <use xlink:href="#DejaVuSans-31" x="578.808594"/>
     <use xlink:href="#DejaVuSans-30" x="642.431641"/>
     <use xlink:href="#DejaVuSans-20" x="706.054688"/>
     <use xlink:href="#DejaVuSans-28" x="737.841797"/>
     <use xlink:href="#DejaVuSans-73" x="776.855469"/>
     <use xlink:href="#DejaVuSans-74" x="828.955078"/>
     <use xlink:href="#DejaVuSans-75" x="868.164062"/>
     <use xlink:href="#DejaVuSans-64" x="931.542969"/>
     <use xlink:href="#DejaVuSans-65" x="995.019531"/>
     <use xlink:href="#DejaVuSans-6e" x="1056.542969"/>
     <use xlink:href="#DejaVuSans-74" x="1119.921875"/>
     <use xlink:href="#DejaVuSans-2d" x="1159.130859"/>
     <use xlink:href="#DejaVuSans-49" x="1195.214844"/>
     <use xlink:href="#DejaVuSans-44" x="1224.707031"/>
     <use xlink:href="#DejaVuSans-3a" x="1301.708984"/>
     <use xlink:href="#DejaVuSans-20" x="1335.400391"/>
     <use xlink:href="#DejaVuSans-31" x="1367.1875"/>
     <use xlink:href="#DejaVuSans-30" x="1430.810547"/>
     <use xlink:href="#DejaVuSans-30" x="1494.433594"/>
     <use xlink:href="#DejaVuSans-29" x="1558.056641"/>
    </g>
   </g>
  </g>
 </g>
 <defs>
  <clipPath id="pce5eaa31fa">
   <rect x="90" y="60.48" width="253.636364" height="176.4"/>
  </clipPath>
  <clipPath id="pb42c3d474c">
   <rect x="394.363636" y="60.48" width="253.636364" height="176.4"/>
  </clipPath>
  <clipPath id="p336a8ae644">
   <rect x="90" y="272.16" width="253.636364" height="176.4"/>
  </clipPath>
  <clipPath id="pefb6469e2b">
   <rect x="394.363636" y="272.16" width="253.636364" height="176.4"/>
  </clipPath>
 </defs>
</svg>
